<?xml version="1.0" encoding="utf-8"?>
<!-- Generator: Adobe Illustrator 16.0.3, SVG Export Plug-In . SVG Version: 6.00 Build 0)  -->
<!DOCTYPE svg PUBLIC "-//W3C//DTD SVG 1.1//EN" "http://www.w3.org/Graphics/SVG/1.1/DTD/svg11.dtd">
<svg version="1.1" id="Capa_1" xmlns="http://www.w3.org/2000/svg" xmlns:xlink="http://www.w3.org/1999/xlink" x="0px" y="0px"
	 width="1500px" height="800px" viewBox="0 0 1500 800" enable-background="new 0 0 1500 800" xml:space="preserve">
<rect fill="#0C0F1A" width="1500" height="800"/>
<g>
	<g>
		<path fill="#4CAF50" d="M367.288,375.029c0.035-28.438-3.099-56.475-11.428-83.734c-3.793-12.412-8.866-24.267-17.86-34.132
			c-6.544-7.178-5.759-16.901,1.207-23.066c6.315-5.59,15.974-4.883,22.329,1.983c12.093,13.066,19.322,28.85,24.455,45.634
			c7.819,25.574,11.354,51.794,12.533,78.523c1.438,32.642-1.074,64.831-8.721,96.523c-4.33,17.949-10.411,35.404-21.426,50.599
			c-7.236,9.981-15.872,18.155-28.358,21.418c-8.483,2.215-16.463,0.452-24.493-1.867c-20.326-5.873-35.564-18.836-48.415-35.008
			c-1.809-2.277-2.931-2.709-5.558-1.142c-19.954,11.914-41.332,16.25-64.143,10.705c-18.177-4.42-33.456-14.117-46.537-27.342
			c-19.788-20.006-31.68-44.34-38.967-71.213c-6.461-23.827-8.952-47.993-6.883-72.632c2.379-28.323,9.477-55.249,23.15-80.307
			c3.647-6.685,9.771-10.247,16.193-9.218c7.035,1.126,12.17,6.393,13.41,13.541c0.714,4.117-1.083,7.481-2.946,10.826
			c-10.161,18.243-15.983,37.942-18.367,58.521c-2.111,18.221-1.886,36.48,1.337,54.718c4.135,23.394,11.933,45.152,26.194,64.318
			c9.722,13.066,21.707,23.353,37.583,28.103c15.885,4.75,30.864,2.174,44.845-6.681c2.417-1.53,1.678-3.032,0.727-5.022
			c-7.486-15.656-12.699-32.142-16.587-48.976c-5.95-25.761-7.64-51.969-6.68-78.363c0.236-6.483,0.062-12.983,1.133-19.427
			c1.433-8.614,7.974-14.077,16.339-13.509c8.094,0.55,14.257,7.177,13.863,15.854c-0.498,10.978-1.314,21.933-1.14,32.938
			c0.559,35.306,6.777,69.423,22.221,101.388c8.305,17.188,19.064,32.613,35.575,43.275c5.849,3.777,12.218,5.072,18.88,5.461
			c5.652,0.33,8.506-4.051,11.291-7.871c7.956-10.908,12.381-23.465,15.88-36.322C364.917,427.84,367.258,401.564,367.288,375.029z"
			/>
		<path fill="#17A2B8" d="M477.248,559.539c2.985,6.396,6.946,12.119,11.882,17.166c-10.979,12.191-25.063,18.938-40.619,23.033
			c-29.744,7.83-59.78,6.662-89.629,1.512c-82.722-14.275-156.501-48.498-221.273-101.777
			c-23.269-19.139-43.549-41.164-57.542-68.293c-3.858-7.481-0.394-15.131,7.136-15.823c4.258-0.394,7.664,1.403,9.645,4.981
			c29.875,53.957,78.476,86.81,130.785,115.047c39.54,21.349,81.501,36.635,125.854,44.736c26.147,4.775,52.467,7.199,78.91,2.629
			C449.704,579.758,466.125,574.664,477.248,559.539z"/>
		<path fill="#17A2B8" d="M449.849,442.941c-0.047,27.694-2.137,66.18-12.574,103.754c-1.736,6.254-3.753,12.41-6.325,18.358
			c-2.642,6.101-8.051,8.664-13.26,6.558c-5.507-2.228-7.78-7.912-5.286-14.142c9.824-24.543,13.451-50.348,15.679-76.428
			c3.387-39.656,1.818-79.221-3.15-118.636c-4.546-36.047-11.736-71.516-25.772-105.27c-2.875-6.912-6.13-13.637-10.129-19.984
			c-3.932-6.238-8.404-11.924-14.498-16.298c-5.552-3.985-6.738-9.598-3.492-14.256c3.396-4.875,9.301-5.751,14.92-2.023
			c12.234,8.116,19.723,20.108,26.088,32.845c12.883,25.777,20.354,53.336,26.051,81.426
			C445.665,356.155,449.194,393.892,449.849,442.941z"/>
		<path fill="#17A2B8" d="M307.28,695.984c-5.454-0.009-10.908-0.015-16.362-0.021c-28.867-2.553-51.318-16.293-67.747-39.777
			c-9.864-14.1-15.773-29.905-17.355-47.207c-0.639-6.989,2.628-12.133,8.595-12.918c5.495-0.723,10.237,3.427,11.094,10.355
			c1.961,15.873,7.357,30.314,17.445,42.801c20.932,25.914,55.109,34.394,86,21.418c22.463-9.434,38.679-25.414,49.269-47.248
			c1.088-2.242,2.064-4.565,3.403-6.653c2.989-4.662,8.135-6.232,12.5-4.033c5.12,2.578,7.208,7.646,5.002,12.992
			c-8.651,20.961-21.954,38.327-40.592,51.368C343.136,687.832,326.265,694.824,307.28,695.984z"/>
		<path fill="#4CAF50" d="M596.968,411.867c-0.203-0.789-0.534-1.57-0.589-2.373c-1.336-18.551-6.898-35.849-16.477-51.671
			c-11.734-19.38-28.149-33.302-49.934-40.53c-8.174-2.712-16.76-4.218-24.441-8.4c-23.657-12.881-33.981-34.41-37.225-59.671
			c-3.533-27.515,2.539-53.523,15.714-77.875c7.327-13.546,16.604-25.593,27.932-36.055c5.002-4.62,5.737-10.644,3.845-16.559
			c-1.846-5.766-6.625-9.005-12.744-9.781c-6.059-0.769-10.551,2.352-14.552,6.315c-28.581,28.302-45.756,62.161-50.644,102.305
			c-3.071,25.232-0.146,49.455,10.566,72.471c12.985,27.903,34.046,46.475,64.37,53.896c13.92,3.406,26.102,10.058,35.074,21.405
			c16.695,21.115,20.657,45.762,17.801,71.646c-2.746,24.884-12.173,47.351-27.246,67.446c-2.144,2.861-3.597,3.723-7.247,2.275
			c-21.534-8.532-46.38,3.437-53.628,25.322c-3.051,9.213-2.151,18.317-0.294,27.506c1.573,7.373,5.21,13.32,11.882,17.166
			c4.632,3.15,9.156,6.387,14.693,8.01c15.896,4.658,30.147,1.682,41.864-9.91c11.192-11.074,15.039-24.688,10.873-40.209
			c-0.5-1.868-1.338-3.743,0.736-5.436c3.906-3.188,6.549-7.463,9.365-11.562c16.373-23.815,26.594-49.95,29.612-78.791
			C597.058,429.844,597.089,420.857,596.968,411.867z M516.73,566.781c-11.608-0.008-21.263-9.525-21.438-20.992
			c-0.219-14.232,12.336-21.791,21.113-21.863c11.736-0.1,21.643,9.688,21.685,21.375
			C538.134,557.278,528.675,566.789,516.73,566.781z"/>
		<path fill="#17A2B8" d="M321.571,124.929c-22.595,0.106-41.246,18.73-41.397,41.335c-0.153,22.775,18.7,41.623,41.606,41.599
			c22.907-0.025,41.51-18.827,41.344-41.79C362.96,143.421,344.175,124.822,321.571,124.929z M321.618,187.773
			c-11.687-0.027-21.336-9.629-21.394-21.286c-0.057-11.474,9.866-21.495,21.312-21.521c11.897-0.027,21.602,9.759,21.502,21.687
			C342.938,178.444,333.449,187.8,321.618,187.773z"/>
	</g>
	<g>
		<g>
			<path fill="#4CAF50" d="M589.621,309.065l5.713-90.137l13.14-0.762l-6.029,79.98h1.143l14.728-35.864l4.442,17.202h-9.712
				l7.998-6.348l-14.473,35.928L589.621,309.065L589.621,309.065z M618.502,309.065l1.904-32.056h-5.776l3.301-35.229l12.188-0.762
				l-3.555,57.129h1.143c3.047-7.024,6.146-14.652,9.299-22.883c3.152-8.23,5.999-17.054,8.538-26.47s4.443-19.37,5.713-29.866
				h13.584c-1.101,8.929-2.666,17.551-4.696,25.867c-2.031,8.316-4.402,16.272-7.109,23.867c-2.708,7.596-5.641,14.769-8.792,21.518
				c-3.153,6.751-6.401,13.045-9.744,18.885H618.502L618.502,309.065z"/>
			<path fill="#4CAF50" d="M695.626,298.274c3.385,0,7.003-0.528,10.854-1.587c3.85-1.058,7.554-2.539,11.107-4.443l4.38,10.854
				c-4.147,2.285-8.591,4.063-13.33,5.332c-4.739,1.27-9.268,1.904-13.584,1.904c-8.718,0-15.52-2.285-20.408-6.855
				c-4.888-4.57-7.331-10.938-7.331-19.106c0-8.802,1.659-16.482,4.982-23.042c3.322-6.559,7.966-11.669,13.933-15.33
				c5.968-3.66,12.928-5.491,20.885-5.491c6.262,0,11.14,1.566,14.631,4.697c3.491,3.132,5.236,7.49,5.236,13.076
				c0,8.294-4.242,14.833-12.727,19.614c-8.485,4.782-20.323,7.321-35.515,7.617l-1.333-10.156
				c11.34-0.169,20.175-1.671,26.501-4.507c6.325-2.834,9.489-6.75,9.489-11.743c0-2.031-0.697-3.628-2.095-4.792
				c-1.396-1.164-3.386-1.746-5.967-1.746c-5.037,0-9.469,1.292-13.298,3.872c-3.831,2.582-6.814,6.2-8.95,10.854
				c-2.137,4.655-3.229,10.093-3.269,16.313c0.042,4.613,1.46,8.21,4.253,10.791C686.867,296.984,690.717,298.274,695.626,298.274z"
				/>
			<path fill="#4CAF50" d="M748.502,212.517c7.363,0,12.419,1.777,15.17,5.332c2.751,3.555,3.406,9.268,1.968,17.139l-13.013,74.077
				l-13.646-0.063l13.266-75.283c0.593-3.258,0.423-5.627-0.508-7.109c-0.932-1.481-2.688-2.222-5.269-2.222
				c-1.058,0-2.104,0.054-3.142,0.159c-1.038,0.106-2.085,0.286-3.143,0.54l-1.333-11.553c1.608-0.381,3.216-0.645,4.824-0.793
				C745.286,212.591,746.894,212.517,748.502,212.517z M757.389,310.334c-3.089,0-6.156-0.117-9.204-0.35
				c-3.047-0.232-6.115-0.561-9.203-0.983l6.348-12.314c2.75,1.059,7.236,1.587,13.457,1.587c4.782,0,9.214-0.878,13.299-2.635
				c4.083-1.755,7.648-4.21,10.695-7.363c3.047-3.151,5.417-6.844,7.108-11.076c1.692-4.231,2.539-8.844,2.539-13.838
				c0-3.428-0.783-6.083-2.349-7.966c-1.565-1.882-3.787-2.825-6.665-2.825c-3.513,0-7.046,1.101-10.601,3.301
				c-3.556,2.201-6.75,5.649-9.585,10.347c-2.836,4.698-4.931,10.771-6.284,18.218l2.476-27.358h5.522l-3.302,4.824
				c1.481-6.813,4.57-12.082,9.269-15.806c4.697-3.723,10.559-5.586,17.583-5.586c5.544,0,9.849,1.768,12.918,5.3
				c3.066,3.534,4.602,8.538,4.602,15.012c0,7.068-1.217,13.605-3.648,19.614c-2.436,6.01-5.852,11.257-10.252,15.742
				c-4.401,4.486-9.554,7.966-15.456,10.442C770.751,309.096,764.329,310.334,757.389,310.334z"/>
		</g>
		<g>
			<path fill="#17A2B8" d="M643.952,437.061L646.046,425h54.78l-2.095,12.061H643.952z M657.726,358.984l2.096-12.061h54.779
				l-2.095,12.061H657.726z M664.771,437.061l15.869-90.137h13.203l-15.869,90.137H664.771z"/>
			<path fill="#17A2B8" d="M720.124,437.061l11.87-67.285h11.234l-0.443,16.06l-9.014,51.227h-13.647V437.061z M761.256,437.061
				l7.809-44.75c0.677-3.893,0.391-6.824-0.856-8.792c-1.249-1.968-3.481-2.952-6.697-2.952c-3.428,0-6.602,0.995-9.521,2.983
				c-2.919,1.99-5.555,5.3-7.902,9.934c-2.348,4.634-4.348,10.908-5.999,18.821l3.174-27.23h2.793
				c1.354-5.29,4.041-9.373,8.062-12.251c4.021-2.877,8.845-4.316,14.473-4.316c6.813,0,11.563,2.042,14.251,6.125
				c2.688,4.084,3.312,10.146,1.872,18.186l-7.808,44.243L761.256,437.061L761.256,437.061z"/>
			<path fill="#17A2B8" d="M787.979,467.085l-0.57-12.061l4.634-0.509c5.417-0.593,9.817-2.053,13.203-4.38
				c3.386-2.328,5.956-5.586,7.713-9.774c1.755-4.189,2.866-9.353,3.332-15.488l4.697-43.037c0.762-9.436,2.654-17.191,5.682-23.264
				c3.024-6.072,7.511-10.59,13.457-13.552c5.944-2.961,13.637-4.443,23.073-4.443c3.682,0,7.193,0.423,10.537,1.27l-3.429,11.68
				c-1.945-0.338-3.672-0.571-5.173-0.698c-1.503-0.127-2.974-0.19-4.412-0.19c-8.633,0-14.906,2.317-18.819,6.951
				c-3.915,4.634-6.295,11.838-7.143,21.614l-5.142,45.576c-0.677,8.083-2.37,14.917-5.078,20.503s-6.665,9.966-11.87,13.14
				s-11.934,5.227-20.186,6.157L787.979,467.085z M797.12,396.436l2.095-11.807h62.207l-2.095,11.807H797.12z"/>
			<path fill="#17A2B8" d="M899.571,438.33c-7.49,0-13.341-2.147-17.552-6.443c-4.212-4.294-6.315-10.271-6.315-17.932
				c0-14.303,3.195-25.454,9.585-33.452s15.256-11.997,26.597-11.997c7.49,0,13.34,2.201,17.552,6.602
				c4.211,4.402,6.315,10.537,6.315,18.408c0,14.092-3.185,25.083-9.553,32.977C919.83,434.385,910.955,438.33,899.571,438.33z
				 M901.92,426.333c6.348,0,11.309-2.655,14.886-7.966c3.575-5.312,5.363-12.686,5.363-22.122c0-4.909-1.058-8.749-3.174-11.521
				c-2.116-2.771-5.101-4.158-8.95-4.158c-6.517,0-11.606,2.645-15.266,7.935c-3.661,5.291-5.491,12.653-5.491,22.09
				c0,4.951,1.11,8.813,3.333,11.585C894.843,424.948,897.942,426.333,901.92,426.333z"/>
			<path fill="#17A2B8" d="M942.926,437.061l2.096-11.807h44.94l-2.095,11.807H942.926z M957.97,437.061l8.442-47.417
				c0.593-3.258,0.423-5.627-0.508-7.109c-0.932-1.481-2.688-2.222-5.27-2.222c-3.555,0-6.981,0.487-10.283,1.46l-1.333-11.553
				c1.904-0.592,3.999-1.037,6.284-1.333c2.285-0.295,4.739-0.444,7.363-0.444c7.363,0,12.42,1.777,15.171,5.332
				c2.751,3.555,3.428,9.268,2.031,17.139l-8.252,46.146H957.97z M975.997,412.305l3.174-27.23h2.793
				c1.229-5.29,3.618-9.373,7.173-12.251c3.556-2.877,7.829-4.316,12.822-4.316c6.771,0,11.669,2.126,14.695,6.379
				c3.023,4.253,3.924,10.23,2.697,17.932h-13.647c0.55-4.147,0.212-7.226-1.016-9.236c-1.229-2.009-3.406-3.015-6.538-3.015
				c-3.217,0-6.211,0.995-8.981,2.983c-2.771,1.99-5.269,5.3-7.49,9.934C979.458,398.118,977.563,404.392,975.997,412.305z"/>
			<path fill="#17A2B8" d="M1044.552,369.775l-0.825,17.329l-8.822,49.956h-13.647l11.87-67.285H1044.552z M1046.52,437.061
				l9.269-52.559c0.635-3.469-0.466-5.205-3.301-5.205c-2.624,0-4.951,2.285-6.982,6.855c-2.031,4.57-3.703,11.024-5.015,19.36
				l1.522-25.518h3.237c1.058-4.147,2.676-7.099,4.854-8.855c2.181-1.755,4.813-2.634,7.903-2.634c3.936,0,6.696,1.418,8.284,4.253
				c1.586,2.835,1.829,7.342,0.729,13.521l-9.077,50.781L1046.52,437.061L1046.52,437.061z M1092.159,386.279l-8.95,50.781h-13.646
				l9.268-52.559c0.296-1.65,0.189-2.93-0.317-3.84c-0.508-0.91-1.438-1.365-2.793-1.365c-2.793,0-5.194,2.285-7.204,6.855
				c-2.011,4.57-3.649,11.024-4.92,19.36l0.89-25.518h4.253c1.143-4.189,2.909-7.151,5.301-8.887
				c2.391-1.735,5.278-2.603,8.664-2.603C1091.08,368.506,1094.232,374.431,1092.159,386.279z"/>
			<path fill="#17A2B8" d="M1118.248,438.394c-5.756,0-10.199-1.649-13.33-4.95c-3.132-3.302-4.697-7.955-4.697-13.965
				c0-7.617,1.619-14.525,4.855-20.726c3.238-6.199,7.775-11.499,13.616-15.901c5.84-4.401,12.674-7.786,20.503-10.156
				c7.828-2.37,16.334-3.555,25.518-3.555h1.271l-8.38,47.798c-0.593,3.386-0.327,5.84,0.793,7.362
				c1.121,1.523,3.545,2.285,7.27,2.285h2.604l-1.904,11.108h-4.507c-3.26,0-5.979-0.328-8.157-0.984
				c-2.18-0.655-3.871-1.691-5.078-3.109c-1.205-1.418-1.979-3.289-2.316-5.617c-0.339-2.327-0.297-5.162,0.127-8.507l3.683,1.65
				h-7.363l3.364-3.682c-2.328,6.645-5.926,11.797-10.791,15.456C1130.456,436.563,1124.765,438.394,1118.248,438.394z
				 M1122.374,426.333c6.094,0,11.404-2.75,15.933-8.252c4.527-5.501,7.701-13.287,9.521-23.359l3.301-18.408l5.143,4.888
				c-5.926,0.254-11.459,1.355-16.6,3.301c-5.143,1.947-9.647,4.561-13.521,7.839c-3.871,3.28-6.897,7.088-9.076,11.426
				c-2.182,4.339-3.271,9.045-3.271,14.123c0,2.709,0.751,4.793,2.254,6.252C1117.561,425.604,1119.665,426.333,1122.374,426.333z"
				/>
			<path fill="#17A2B8" d="M1180.709,381.582l2.095-11.807h59.287l-2.095,11.807H1180.709z M1213.59,438.33
				c-7.787,0-13.511-1.66-17.17-4.982c-3.661-3.321-5.491-8.495-5.491-15.521c0-1.777,0.084-3.48,0.254-5.11
				c0.169-1.628,0.435-3.459,0.794-5.49c0.358-2.03,0.793-4.526,1.302-7.489l8.822-50.273h13.647l-8.823,50.273
				c-0.72,4.231-1.302,7.489-1.745,9.774c-0.444,2.285-0.667,4.635-0.667,7.046c0,3.345,0.932,5.799,2.793,7.363
				c1.861,1.566,4.781,2.349,8.761,2.349c3.089,0,5.797-0.254,8.125-0.762c2.326-0.508,5.099-1.417,8.314-2.729l2.476,10.854
				c-3.047,1.313-6.273,2.423-9.681,3.332C1221.895,437.875,1217.99,438.33,1213.59,438.33z"/>
			<path fill="#17A2B8" d="M1309.884,422.778l4.38,10.22c-2.582,1.48-5.312,2.74-8.188,3.777c-2.878,1.035-6.179,1.555-9.902,1.555
				c-7.66,0-13.352-1.798-17.074-5.396c-3.726-3.597-5.375-8.864-4.951-15.806c0.211-3.174,0.835-6.263,1.873-9.268
				c1.035-3.004,2.157-5.925,3.362-8.761c1.207-2.834,2.127-5.563,2.763-8.188c0.889-3.512,0.518-6.157-1.111-7.935
				s-4.454-2.666-8.474-2.666c-4.021,0-7.894,0.487-11.616,1.46l-1.333-11.553c2.496-0.719,4.993-1.195,7.49-1.428
				c2.495-0.232,4.993-0.349,7.489-0.349c8.761,0,14.917,2,18.473,5.999c3.555,3.999,4.38,9.913,2.476,17.742
				c-0.72,3.005-1.661,5.808-2.825,8.411s-2.231,5.173-3.205,7.712s-1.565,5.29-1.776,8.252c-0.466,6.476,3.174,9.713,10.918,9.713
				c2.115,0,3.967-0.265,5.555-0.794C1305.789,424.947,1307.683,424.048,1309.884,422.778z M1294.967,359.111
				c-2.582,0-4.793-0.92-6.633-2.761c-1.842-1.841-2.762-4.052-2.762-6.633c0-2.624,0.92-4.845,2.762-6.665
				c1.84-1.819,4.051-2.729,6.633-2.729c2.623,0,4.846,0.911,6.665,2.729c1.819,1.82,2.729,4.042,2.729,6.665
				c0,2.582-0.91,4.792-2.729,6.633C1299.813,358.191,1297.59,359.111,1294.967,359.111z"/>
			<path fill="#17A2B8" d="M1356.604,438.33c-7.49,0-13.342-2.147-17.553-6.443c-4.211-4.294-6.314-10.271-6.314-17.932
				c0-14.303,3.193-25.454,9.585-33.452c6.39-7.998,15.255-11.997,26.597-11.997c7.49,0,13.34,2.201,17.552,6.602
				c4.21,4.402,6.315,10.537,6.315,18.408c0,14.092-3.186,25.083-9.554,32.977C1376.862,434.386,1367.985,438.33,1356.604,438.33z
				 M1358.951,426.333c6.348,0,11.309-2.655,14.885-7.966c3.576-5.312,5.364-12.686,5.364-22.122c0-4.909-1.06-8.749-3.174-11.521
				c-2.116-2.771-5.101-4.158-8.95-4.158c-6.518,0-11.605,2.645-15.266,7.935c-3.661,5.291-5.491,12.653-5.491,22.09
				c0,4.951,1.11,8.813,3.333,11.585C1351.873,424.947,1354.973,426.333,1358.951,426.333z"/>
			<path fill="#17A2B8" d="M1405.67,437.061l11.87-67.285h11.235l-0.444,16.06l-9.014,51.227h-13.647V437.061z M1446.803,437.061
				l7.809-44.75c0.677-3.893,0.391-6.824-0.856-8.792c-1.249-1.968-3.48-2.952-6.697-2.952c-3.428,0-6.602,0.995-9.521,2.983
				c-2.92,1.99-5.555,5.3-7.902,9.934c-2.35,4.634-4.349,10.908-5.999,18.821l3.174-27.23h2.793
				c1.354-5.29,4.041-9.373,8.063-12.251c4.02-2.877,8.844-4.316,14.473-4.316c6.813,0,11.563,2.042,14.25,6.125
				c2.688,4.084,3.313,10.146,1.873,18.186l-7.808,44.243L1446.803,437.061L1446.803,437.061z"/>
		</g>
		<g>
			<path fill="#4CAF50" d="M728.539,569.822c-10.96,0-20.229-1.861-27.803-5.586l3.936-11.554
				c8.674,3.641,17.033,5.459,25.073,5.459c6.389,0,11.235-0.993,14.536-2.982c3.301-1.988,4.951-4.908,4.951-8.76
				c0-2.369-0.467-4.434-1.396-6.188c-0.931-1.756-2.455-3.479-4.57-5.174l-18.153-14.727c-3.259-2.666-5.641-5.745-7.142-9.236
				c-1.502-3.491-2.253-6.908-2.253-10.251c0-7.786,2.465-13.681,7.396-17.679c4.929-3.999,12.092-5.998,21.486-5.998
				c11.722,0,20.989,3.575,27.803,10.728l-9.204,9.648c-3.089-2.878-6.263-5.048-9.521-6.508c-3.258-1.46-6.538-2.188-9.838-2.188
				c-4.656,0-8.242,0.92-10.759,2.761c-2.518,1.841-3.777,4.562-3.777,8.157c0,1.904,0.509,3.978,1.523,6.221
				s2.644,4.274,4.888,6.094l15.615,12.568c4.021,3.259,6.94,6.443,8.76,9.553c1.819,3.111,2.729,6.697,2.729,10.761
				c0,8.168-2.898,14.355-8.696,18.565C748.321,567.718,739.795,569.822,728.539,569.822z"/>
			<path fill="#4CAF50" d="M774.051,598.514l-5.648-11.107c9.647-4.189,18.144-9.004,25.485-14.44
				c7.342-5.438,13.668-11.627,18.979-18.566c5.31-6.939,9.701-14.801,13.171-23.582c3.47-8.78,6.157-18.63,8.062-29.549h13.584
				c-3.174,16.463-7.85,30.818-14.027,43.068c-6.18,12.252-14.146,22.778-23.898,31.58
				C800.002,584.718,788.101,592.25,774.051,598.514z M794.427,499.998c6.222,25.391,14.432,44.624,24.629,57.7l-11.742,7.617
				c-5.29-7.998-10.167-17.309-14.632-27.931c-4.466-10.622-8.56-22.661-12.282-36.118L794.427,499.998z"/>
			<path fill="#4CAF50" d="M881.199,569.822c-5.501,0-10.56-0.339-15.171-1.017c-4.612-0.677-8.38-1.606-11.3-2.793l3.683-12.188
				c4.909,1.228,9.531,2.188,13.87,2.889c4.337,0.697,8.028,1.047,11.076,1.047c5.544,0,9.849-0.729,12.918-2.188
				c3.066-1.461,4.602-3.523,4.602-6.189c0-1.312-0.519-2.528-1.555-3.65c-1.038-1.119-2.529-1.998-4.477-2.634l-19.043-6.411
				c-4.188-1.396-7.404-3.363-9.647-5.902s-3.364-5.396-3.364-8.569c0-7.067,2.993-12.537,8.982-16.409
				c5.986-3.872,14.462-5.808,25.422-5.808c3.851,0,7.797,0.169,11.839,0.508c4.04,0.339,7.839,0.804,11.394,1.396L917,513.582
				c-3.979-0.466-7.861-0.835-11.646-1.111c-3.788-0.273-7.143-0.412-10.063-0.412c-6.009,0-10.654,0.772-13.933,2.316
				c-3.28,1.546-4.92,3.735-4.92,6.57c0,1.016,0.401,1.936,1.206,2.761c0.804,0.825,1.988,1.471,3.555,1.937l19.359,6.157
				c4.485,1.439,7.925,3.565,10.315,6.38c2.39,2.814,3.586,6.041,3.586,9.681c0,6.981-2.897,12.389-8.696,16.219
				C899.966,567.909,891.778,569.822,881.199,569.822z"/>
			<path fill="#4CAF50" d="M934.52,513.074l2.096-11.808h59.287l-2.096,11.808H934.52z M967.4,569.822
				c-7.786,0-13.512-1.66-17.17-4.982c-3.661-3.322-5.491-8.495-5.491-15.521c0-1.777,0.085-3.48,0.254-5.11
				c0.169-1.628,0.434-3.459,0.794-5.49c0.357-2.03,0.793-4.526,1.301-7.489l8.823-50.273h13.646l-8.822,50.273
				c-0.721,4.231-1.302,7.489-1.745,9.774c-0.444,2.285-0.667,4.634-0.667,7.046c0,3.345,0.931,5.798,2.793,7.363
				c1.862,1.566,4.782,2.349,8.76,2.349c3.089,0,5.798-0.254,8.125-0.762s5.101-1.417,8.315-2.729l2.476,10.854
				c-3.047,1.313-6.273,2.423-9.68,3.332C975.705,569.367,971.802,569.822,967.4,569.822z"/>
			<path fill="#4CAF50" d="M1039.637,557.762c3.387,0,7.004-0.527,10.854-1.587c3.851-1.058,7.554-2.539,11.107-4.442l4.38,10.854
				c-4.146,2.285-8.591,4.063-13.329,5.332c-4.739,1.27-9.269,1.904-13.584,1.904c-8.719,0-15.521-2.285-20.407-6.855
				c-4.887-4.569-7.332-10.938-7.332-19.105c0-8.803,1.66-16.482,4.982-23.042c3.321-6.561,7.967-11.669,13.934-15.33
				c5.967-3.659,12.928-5.49,20.884-5.49c6.263,0,11.142,1.565,14.632,4.697c3.491,3.132,5.236,7.489,5.236,13.076
				c0,8.294-4.243,14.833-12.728,19.613c-8.484,4.782-20.322,7.321-35.516,7.617l-1.333-10.156
				c11.341-0.169,20.175-1.671,26.502-4.507c6.325-2.835,9.489-6.75,9.489-11.743c0-2.03-0.698-3.628-2.095-4.793
				c-1.396-1.163-3.387-1.745-5.968-1.745c-5.036,0-9.469,1.291-13.298,3.872c-3.831,2.581-6.813,6.199-8.95,10.854
				c-2.138,4.655-3.228,10.093-3.27,16.313c0.042,4.613,1.46,8.21,4.253,10.791C1030.877,556.472,1034.729,557.762,1039.637,557.762
				z"/>
			<path fill="#4CAF50" d="M1103.05,501.268l-0.825,17.329l-8.822,49.956h-13.647l11.87-67.285H1103.05L1103.05,501.268z
				 M1105.018,568.553l9.269-52.559c0.635-3.47-0.466-5.205-3.302-5.205c-2.623,0-4.95,2.285-6.981,6.854
				c-2.031,4.57-3.703,11.023-5.015,19.36l1.522-25.518h3.237c1.058-4.147,2.676-7.1,4.854-8.855
				c2.181-1.755,4.813-2.634,7.903-2.634c3.936,0,6.696,1.418,8.284,4.253c1.586,2.835,1.829,7.342,0.729,13.521l-9.077,50.781
				L1105.018,568.553L1105.018,568.553z M1150.657,517.771l-8.95,50.78h-13.646l9.268-52.559c0.296-1.65,0.189-2.931-0.317-3.841
				c-0.508-0.909-1.438-1.364-2.793-1.364c-2.793,0-5.194,2.285-7.205,6.854c-2.01,4.57-3.648,11.023-4.919,19.36l0.89-25.518h4.253
				c1.143-4.189,2.909-7.151,5.301-8.888c2.391-1.734,5.278-2.603,8.664-2.603C1149.578,499.998,1152.73,505.923,1150.657,517.771z"
				/>
		</g>
	</g>
</g>
</svg>
