<?xml version="1.0" encoding="utf-8"?>
<!-- Generator: Adobe Illustrator 16.0.3, SVG Export Plug-In . SVG Version: 6.00 Build 0)  -->
<!DOCTYPE svg PUBLIC "-//W3C//DTD SVG 1.1//EN" "http://www.w3.org/Graphics/SVG/1.1/DTD/svg11.dtd">
<svg version="1.1" id="Capa_1" xmlns="http://www.w3.org/2000/svg" xmlns:xlink="http://www.w3.org/1999/xlink" x="0px" y="0px"
	 width="1920px" height="1282px" viewBox="0 0 1920 1282" enable-background="new 0 0 1920 1282" xml:space="preserve">
<rect fill="#0C101A" width="1920" height="1282"/>
<g>
	<g>
		<path fill="#4CAE4F" d="M282.498,583.715c0.024-19.936-2.172-39.59-8.011-58.7c-2.659-8.701-6.215-17.012-12.521-23.927
			c-4.587-5.032-4.037-11.848,0.846-16.17c4.427-3.919,11.198-3.423,15.653,1.39c8.478,9.16,13.545,20.225,17.144,31.991
			c5.481,17.928,7.96,36.309,8.786,55.046c1.008,22.883-0.753,45.448-6.113,67.666c-3.036,12.583-7.299,24.819-15.02,35.471
			c-5.073,6.997-11.127,12.728-19.88,15.015c-5.947,1.553-11.541,0.316-17.17-1.309c-14.25-4.117-24.932-13.205-33.94-24.541
			c-1.268-1.598-2.055-1.9-3.896-0.801c-13.988,8.352-28.975,11.392-44.966,7.504c-12.743-3.098-23.454-9.896-32.624-19.167
			c-13.872-14.024-22.208-31.083-27.316-49.922c-4.53-16.704-6.276-33.645-4.826-50.917c1.668-19.855,6.644-38.731,16.229-56.297
			c2.557-4.686,6.85-7.183,11.352-6.462c4.931,0.789,8.531,4.481,9.4,9.493c0.501,2.886-0.759,5.244-2.065,7.589
			c-7.124,12.789-11.205,26.598-12.876,41.025c-1.48,12.773-1.322,25.573,0.937,38.358c2.899,16.4,8.366,31.653,18.363,45.089
			c6.815,9.16,15.217,16.371,26.347,19.701c11.135,3.329,21.636,1.523,31.437-4.684c1.694-1.073,1.177-2.126,0.51-3.521
			c-5.248-10.976-8.902-22.532-11.628-34.333c-4.171-18.059-5.356-36.432-4.683-54.935c0.166-4.544,0.044-9.101,0.795-13.619
			c1.004-6.039,5.589-9.869,11.454-9.47c5.674,0.386,9.995,5.031,9.718,11.114c-0.349,7.696-0.921,15.376-0.799,23.091
			c0.392,24.75,4.751,48.667,15.577,71.075c5.822,12.05,13.365,22.862,24.939,30.337c4.1,2.648,8.565,3.557,13.235,3.828
			c3.962,0.232,5.963-2.839,7.915-5.518c5.578-7.646,8.68-16.449,11.132-25.462C280.835,620.737,282.477,602.317,282.498,583.715z"
			/>
		<path fill="#1DA0B5" d="M359.583,713.062c2.093,4.483,4.87,8.496,8.33,12.034c-7.696,8.546-17.57,13.275-28.475,16.146
			c-20.852,5.489-41.908,4.671-62.833,1.06c-57.99-10.007-109.711-33.998-155.118-71.349
			c-16.313-13.416-30.529-28.857-40.339-47.875c-2.704-5.245-0.276-10.607,5.003-11.092c2.985-0.276,5.373,0.984,6.761,3.492
			c20.943,37.825,55.014,60.856,91.684,80.651c27.719,14.966,57.135,25.682,88.228,31.361c18.33,3.348,36.781,5.047,55.318,1.843
			C340.273,727.235,351.785,723.665,359.583,713.062z"/>
		<path fill="#1DA0B5" d="M340.375,631.324c-0.033,19.415-1.498,46.393-8.815,72.734c-1.217,4.385-2.631,8.7-4.434,12.87
			c-1.852,4.276-5.644,6.073-9.295,4.597c-3.861-1.562-5.455-5.546-3.706-9.913c6.887-17.205,9.43-35.295,10.991-53.578
			c2.374-27.8,1.275-55.536-2.208-83.167c-3.187-25.27-8.228-50.135-18.067-73.797c-2.016-4.845-4.297-9.56-7.101-14.009
			c-2.756-4.373-5.892-8.359-10.164-11.425c-3.892-2.793-4.724-6.729-2.448-9.994c2.38-3.418,6.52-4.032,10.459-1.418
			c8.577,5.689,13.826,14.096,18.289,23.025c9.031,18.07,14.269,37.39,18.262,57.082
			C337.442,570.484,339.916,596.938,340.375,631.324z"/>
		<path fill="#1DA0B5" d="M240.431,808.714c-3.824-0.007-7.647-0.011-11.471-0.016c-20.237-1.789-35.975-11.422-47.493-27.885
			c-6.915-9.884-11.057-20.964-12.166-33.094c-0.448-4.899,1.842-8.505,6.025-9.056c3.852-0.507,7.176,2.402,7.777,7.26
			c1.375,11.127,5.158,21.251,12.23,30.004c14.673,18.167,38.633,24.111,60.288,15.015c15.747-6.612,27.115-17.815,34.539-33.122
			c0.763-1.571,1.447-3.2,2.386-4.664c2.096-3.268,5.703-4.369,8.763-2.827c3.589,1.808,5.053,5.359,3.506,9.108
			c-6.065,14.693-15.391,26.868-28.456,36.01C265.566,802.999,253.739,807.9,240.431,808.714z"/>
		<path fill="#4CAE4F" d="M443.509,609.54c-0.143-0.553-0.375-1.101-0.413-1.664c-0.937-13.005-4.836-25.131-11.551-36.223
			c-8.226-13.585-19.733-23.345-35.005-28.412c-5.73-1.901-11.749-2.958-17.134-5.889c-16.584-9.03-23.822-24.123-26.096-41.832
			c-2.477-19.288,1.78-37.521,11.016-54.592c5.136-9.496,11.64-17.941,19.581-25.275c3.507-3.239,4.022-7.462,2.695-11.608
			c-1.294-4.042-4.644-6.313-8.934-6.856c-4.247-0.539-7.396,1.648-10.201,4.427c-20.036,19.84-32.076,43.577-35.502,71.718
			c-2.153,17.688-0.102,34.669,7.407,50.805c9.103,19.561,23.867,32.58,45.125,37.782c9.758,2.388,18.298,7.051,24.588,15.005
			c11.704,14.802,14.481,32.081,12.479,50.226c-1.925,17.445-8.534,33.194-19.101,47.282c-1.502,2.006-2.521,2.61-5.08,1.595
			c-15.096-5.98-32.514,2.41-37.595,17.752c-2.139,6.459-1.508,12.841-0.206,19.282c1.103,5.169,3.652,9.338,8.33,12.034
			c3.247,2.208,6.418,4.478,10.3,5.615c11.143,3.266,21.134,1.179,29.348-6.947c7.846-7.764,10.542-17.308,7.622-28.188
			c-0.351-1.311-0.938-2.625,0.516-3.811c2.739-2.235,4.591-5.232,6.565-8.105c11.478-16.695,18.643-35.016,20.759-55.234
			C443.572,622.142,443.594,615.842,443.509,609.54z M387.261,718.139c-8.138-0.006-14.906-6.678-15.029-14.717
			c-0.153-9.977,8.647-15.275,14.801-15.326c8.228-0.07,15.172,6.791,15.202,14.984
			C402.265,711.477,395.634,718.145,387.261,718.139z"/>
		<path fill="#1DA0B5" d="M250.449,408.388c-15.84,0.074-28.915,13.13-29.021,28.977c-0.107,15.966,13.109,29.179,29.167,29.162
			c16.059-0.017,29.1-13.198,28.983-29.295C279.463,421.352,266.294,408.313,250.449,408.388z M250.482,452.443
			c-8.193-0.019-14.958-6.75-14.998-14.922c-0.04-8.043,6.916-15.068,14.94-15.087c8.34-0.019,15.143,6.841,15.073,15.203
			C265.427,445.903,258.775,452.462,250.482,452.443z"/>
	</g>
	<g>
		<g>
			<path fill="#4CAE4F" d="M438.359,537.473l4.005-63.188l9.211-0.534l-4.227,56.068h0.801l10.325-25.142l3.114,12.059h-6.809
				l5.607-4.45l-10.146,25.186L438.359,537.473L438.359,537.473z M458.605,537.473L459.94,515h-4.049l2.314-24.696l8.544-0.534
				l-2.492,40.049h0.801c2.136-4.924,4.309-10.271,6.519-16.042c2.21-5.77,4.206-11.956,5.985-18.557
				c1.78-6.601,3.115-13.579,4.005-20.937h9.523c-0.771,6.259-1.869,12.304-3.292,18.133c-1.424,5.83-3.086,11.407-4.984,16.731
				c-1.898,5.325-3.954,10.354-6.163,15.085c-2.211,4.732-4.488,9.145-6.831,13.239H458.605L458.605,537.473z"/>
			<path fill="#4CAE4F" d="M512.671,529.908c2.373,0,4.909-0.37,7.609-1.112c2.699-0.742,5.295-1.78,7.787-3.115l3.07,7.609
				c-2.907,1.602-6.022,2.848-9.345,3.738c-3.322,0.891-6.497,1.335-9.523,1.335c-6.111,0-10.879-1.602-14.307-4.806
				c-3.426-3.204-5.139-7.668-5.139-13.394c0-6.17,1.163-11.554,3.493-16.153c2.329-4.598,5.584-8.18,9.768-10.747
				c4.184-2.565,9.063-3.849,14.641-3.849c4.39,0,7.809,1.098,10.257,3.292c2.447,2.196,3.67,5.251,3.67,9.167
				c0,5.814-2.974,10.398-8.921,13.75c-5.949,3.353-14.247,5.132-24.897,5.34l-0.935-7.12c7.95-0.118,14.143-1.171,18.578-3.159
				c4.434-1.987,6.652-4.732,6.652-8.232c0-1.424-0.489-2.543-1.469-3.359c-0.978-0.816-2.374-1.224-4.183-1.224
				c-3.531,0-6.638,0.906-9.322,2.714c-2.686,1.811-4.777,4.347-6.274,7.609c-1.498,3.263-2.263,7.076-2.292,11.436
				c0.03,3.234,1.023,5.755,2.981,7.565C506.531,529.003,509.23,529.908,512.671,529.908z"/>
			<path fill="#4CAE4F" d="M549.739,469.79c5.162,0,8.706,1.246,10.635,3.738c1.929,2.492,2.388,6.497,1.379,12.015l-9.122,51.93
				l-9.567-0.044l9.3-52.775c0.416-2.284,0.296-3.945-0.356-4.984c-0.653-1.038-1.885-1.557-3.693-1.557
				c-0.742,0-1.476,0.038-2.203,0.111c-0.728,0.074-1.461,0.2-2.203,0.378l-0.934-8.099c1.127-0.268,2.254-0.452,3.382-0.556
				C547.484,469.841,548.611,469.79,549.739,469.79z M555.969,538.362c-2.166,0-4.316-0.083-6.452-0.246
				c-2.136-0.163-4.287-0.394-6.452-0.689l4.45-8.632c1.928,0.742,5.073,1.112,9.434,1.112c3.352,0,6.459-0.616,9.323-1.847
				c2.862-1.23,5.362-2.951,7.498-5.162c2.136-2.209,3.797-4.798,4.983-7.765c1.186-2.966,1.78-6.2,1.78-9.701
				c0-2.403-0.549-4.264-1.646-5.584c-1.098-1.319-2.655-1.98-4.672-1.98c-2.462,0-4.939,0.772-7.432,2.314
				c-2.492,1.543-4.731,3.96-6.719,7.253c-1.988,3.293-3.457,7.551-4.405,12.771l1.735-19.179h3.872l-2.314,3.382
				c1.039-4.776,3.204-8.47,6.497-11.081c3.293-2.61,7.402-3.916,12.326-3.916c3.887,0,6.904,1.239,9.056,3.716
				c2.149,2.478,3.226,5.985,3.226,10.524c0,4.955-0.853,9.538-2.558,13.75c-1.707,4.213-4.102,7.892-7.187,11.036
				c-3.085,3.145-6.698,5.584-10.835,7.32C565.336,537.494,560.834,538.362,555.969,538.362z"/>
		</g>
		<g>
			<path fill="#1DA0B5" d="M476.447,627.201l1.468-8.455h38.402l-1.468,8.455H476.447z M486.102,572.467l1.469-8.455h38.402
				l-1.468,8.455H486.102z M491.042,627.201l11.125-63.188h9.255l-11.125,63.188H491.042z"/>
			<path fill="#1DA0B5" d="M529.845,627.201l8.321-47.168h7.875l-0.311,11.259l-6.319,35.911h-9.567V627.201z M558.68,627.201
				l5.474-31.371c0.475-2.729,0.274-4.784-0.601-6.164c-0.875-1.38-2.44-2.069-4.695-2.069c-2.403,0-4.628,0.697-6.674,2.091
				c-2.046,1.396-3.894,3.716-5.54,6.964c-1.646,3.249-3.048,7.646-4.206,13.194l2.225-19.089h1.958
				c0.95-3.708,2.833-6.571,5.651-8.588c2.818-2.017,6.2-3.026,10.146-3.026c4.776,0,8.106,1.432,9.991,4.294
				c1.884,2.863,2.321,7.113,1.312,12.749l-5.473,31.015L558.68,627.201L558.68,627.201z"/>
			<path fill="#1DA0B5" d="M577.413,648.249l-0.4-8.455l3.249-0.356c3.797-0.416,6.882-1.439,9.256-3.07
				c2.374-1.632,4.175-3.916,5.407-6.853c1.23-2.937,2.009-6.556,2.336-10.857l3.293-30.17c0.534-6.615,1.861-12.051,3.983-16.309
				c2.12-4.256,5.265-7.424,9.434-9.5c4.167-2.076,9.56-3.114,16.175-3.114c2.581,0,5.042,0.296,7.387,0.89l-2.404,8.188
				c-1.364-0.237-2.574-0.4-3.626-0.489c-1.054-0.089-2.085-0.133-3.093-0.133c-6.052,0-10.45,1.625-13.193,4.873
				c-2.745,3.249-4.413,8.299-5.007,15.152l-3.604,31.95c-0.475,5.667-1.662,10.457-3.56,14.373s-4.672,6.986-8.321,9.211
				c-3.649,2.226-8.366,3.664-14.15,4.316L577.413,648.249z M583.822,598.722l1.468-8.277h43.609l-1.468,8.277H583.822z"/>
			<path fill="#1DA0B5" d="M655.643,628.091c-5.25,0-9.352-1.505-12.304-4.517c-2.953-3.01-4.427-7.2-4.427-12.57
				c0-10.027,2.24-17.844,6.719-23.451c4.479-5.606,10.695-8.41,18.645-8.41c5.251,0,9.352,1.543,12.304,4.628
				c2.952,3.086,4.427,7.387,4.427,12.904c0,9.879-2.232,17.584-6.697,23.118C669.845,625.325,663.623,628.091,655.643,628.091z
				 M657.289,619.681c4.45,0,7.928-1.861,10.436-5.584c2.506-3.723,3.76-8.893,3.76-15.508c0-3.441-0.742-6.133-2.225-8.076
				c-1.483-1.942-3.576-2.915-6.274-2.915c-4.568,0-8.136,1.854-10.702,5.563c-2.566,3.709-3.849,8.871-3.849,15.486
				c0,3.471,0.778,6.178,2.336,8.121C652.328,618.71,654.501,619.681,657.289,619.681z"/>
			<path fill="#1DA0B5" d="M686.036,627.201l1.469-8.276h31.505l-1.469,8.276H686.036z M696.582,627.201l5.918-33.24
				c0.416-2.284,0.296-3.944-0.356-4.983c-0.653-1.038-1.885-1.558-3.694-1.558c-2.492,0-4.894,0.341-7.208,1.023l-0.935-8.099
				c1.335-0.415,2.803-0.727,4.405-0.934s3.322-0.312,5.162-0.312c5.162,0,8.707,1.246,10.635,3.738s2.402,6.497,1.424,12.015
				l-5.785,32.35H696.582z M709.219,609.846l2.225-19.089h1.958c0.861-3.708,2.537-6.57,5.028-8.588
				c2.493-2.018,5.488-3.026,8.989-3.026c4.747,0,8.18,1.49,10.302,4.472c2.119,2.982,2.751,7.172,1.891,12.571h-9.567
				c0.386-2.907,0.148-5.065-0.712-6.475c-0.861-1.408-2.388-2.114-4.583-2.114c-2.255,0-4.354,0.698-6.296,2.091
				c-1.943,1.395-3.694,3.716-5.251,6.964C711.645,599.901,710.317,604.299,709.219,609.846z"/>
			<path fill="#1DA0B5" d="M757.278,580.032L756.7,592.18l-6.185,35.02h-9.567l8.321-47.168H757.278z M758.658,627.201l6.497-36.845
				c0.445-2.432-0.326-3.649-2.313-3.649c-1.84,0-3.472,1.602-4.896,4.806s-2.596,7.728-3.515,13.572l1.067-17.889h2.269
				c0.742-2.907,1.876-4.977,3.403-6.208c1.529-1.23,3.375-1.847,5.541-1.847c2.759,0,4.694,0.994,5.807,2.981
				s1.283,5.147,0.511,9.479l-6.363,35.599L758.658,627.201L758.658,627.201z M790.652,591.602l-6.274,35.599h-9.566l6.497-36.845
				c0.207-1.156,0.133-2.054-0.223-2.692c-0.355-0.638-1.009-0.957-1.958-0.957c-1.958,0-3.642,1.602-5.05,4.806
				c-1.41,3.204-2.559,7.728-3.449,13.572l0.624-17.888h2.98c0.802-2.937,2.04-5.014,3.717-6.23c1.676-1.216,3.7-1.825,6.073-1.825
				C789.896,579.142,792.106,583.296,790.652,591.602z"/>
			<path fill="#1DA0B5" d="M808.941,628.135c-4.035,0-7.149-1.156-9.345-3.47c-2.195-2.314-3.293-5.577-3.293-9.79
				c0-5.34,1.135-10.183,3.404-14.529c2.27-4.345,5.45-8.061,9.545-11.147c4.094-3.085,8.885-5.458,14.373-7.12
				c5.488-1.661,11.451-2.492,17.889-2.492h0.891l-5.874,33.508c-0.416,2.373-0.229,4.094,0.556,5.161
				c0.786,1.068,2.485,1.602,5.096,1.602h1.825l-1.335,7.788h-3.159c-2.285,0-4.191-0.23-5.719-0.69
				c-1.527-0.459-2.714-1.186-3.56-2.18c-0.845-0.994-1.387-2.306-1.624-3.938c-0.237-1.631-0.208-3.619,0.089-5.964l2.582,1.157
				h-5.162l2.358-2.581c-1.632,4.658-4.154,8.27-7.564,10.835C817.5,626.852,813.509,628.135,808.941,628.135z M811.833,619.681
				c4.272,0,7.995-1.928,11.169-5.785c3.174-3.856,5.399-9.314,6.675-16.375l2.314-12.905l3.604,3.427
				c-4.153,0.178-8.032,0.95-11.637,2.314c-3.604,1.365-6.763,3.197-9.478,5.495c-2.714,2.3-4.836,4.969-6.363,8.01
				c-1.529,3.042-2.292,6.34-2.292,9.9c0,1.899,0.526,3.36,1.58,4.383C808.459,619.169,809.934,619.681,811.833,619.681z"/>
			<path fill="#1DA0B5" d="M852.728,588.309l1.469-8.277h41.562l-1.469,8.277H852.728z M875.778,628.091
				c-5.459,0-9.471-1.164-12.036-3.493c-2.566-2.329-3.85-5.956-3.85-10.88c0-1.246,0.06-2.44,0.179-3.583
				c0.118-1.141,0.304-2.425,0.556-3.849c0.252-1.423,0.557-3.173,0.913-5.25l6.185-35.243h9.567l-6.186,35.243
				c-0.505,2.966-0.912,5.25-1.224,6.853c-0.312,1.602-0.468,3.249-0.468,4.939c0,2.345,0.653,4.065,1.958,5.162
				c1.306,1.098,3.353,1.646,6.142,1.646c2.166,0,4.064-0.178,5.696-0.534c1.631-0.356,3.574-0.993,5.828-1.913l1.735,7.608
				c-2.136,0.921-4.397,1.699-6.786,2.336C881.6,627.772,878.863,628.091,875.778,628.091z"/>
			<path fill="#1DA0B5" d="M943.283,617.188l3.071,7.165c-1.811,1.038-3.725,1.921-5.74,2.648c-2.018,0.726-4.331,1.09-6.941,1.09
				c-5.37,0-9.36-1.26-11.97-3.783c-2.612-2.521-3.769-6.214-3.471-11.08c0.147-2.225,0.585-4.39,1.313-6.497
				c0.726-2.106,1.513-4.154,2.357-6.142c0.846-1.987,1.491-3.9,1.937-5.74c0.623-2.462,0.363-4.316-0.779-5.563
				c-1.142-1.247-3.122-1.869-5.939-1.869c-2.819,0-5.534,0.341-8.144,1.023l-0.935-8.099c1.75-0.504,3.5-0.837,5.251-1.001
				c1.749-0.163,3.5-0.245,5.25-0.245c6.142,0,10.457,1.402,12.95,4.206c2.491,2.803,3.07,6.949,1.735,12.438
				c-0.505,2.106-1.165,4.072-1.98,5.896c-0.816,1.825-1.564,3.626-2.247,5.406c-0.683,1.78-1.098,3.709-1.245,5.785
				c-0.327,4.54,2.225,6.809,7.653,6.809c1.482,0,2.781-0.186,3.895-0.557C940.413,618.709,941.74,618.079,943.283,617.188z
				 M932.826,572.556c-1.81,0-3.36-0.645-4.649-1.936c-1.291-1.291-1.937-2.841-1.937-4.65c0-1.84,0.646-3.396,1.937-4.672
				c1.289-1.275,2.84-1.913,4.649-1.913c1.839,0,3.397,0.639,4.673,1.913c1.275,1.276,1.913,2.833,1.913,4.672
				c0,1.81-0.638,3.359-1.913,4.65S934.665,572.556,932.826,572.556z"/>
			<path fill="#1DA0B5" d="M976.035,628.091c-5.252,0-9.354-1.505-12.305-4.517c-2.953-3.01-4.427-7.2-4.427-12.57
				c0-10.027,2.238-17.844,6.72-23.451c4.479-5.606,10.693-8.41,18.645-8.41c5.25,0,9.352,1.543,12.305,4.628
				c2.951,3.086,4.426,7.387,4.426,12.904c0,9.879-2.232,17.584-6.697,23.118C990.236,625.326,984.014,628.091,976.035,628.091z
				 M977.68,619.681c4.451,0,7.928-1.861,10.436-5.584s3.76-8.893,3.76-15.508c0-3.441-0.742-6.133-2.225-8.076
				c-1.482-1.942-3.576-2.915-6.273-2.915c-4.57,0-8.137,1.854-10.703,5.563c-2.566,3.709-3.848,8.871-3.848,15.486
				c0,3.471,0.777,6.178,2.336,8.121C972.719,618.709,974.891,619.681,977.68,619.681z"/>
			<path fill="#1DA0B5" d="M1010.432,627.201l8.322-47.168h7.875l-0.311,11.259l-6.32,35.911h-9.566V627.201z M1039.268,627.201
				l5.473-31.371c0.475-2.729,0.275-4.784-0.6-6.164c-0.875-1.38-2.439-2.069-4.695-2.069c-2.402,0-4.627,0.697-6.674,2.091
				c-2.047,1.396-3.895,3.716-5.539,6.964c-1.648,3.249-3.049,7.646-4.207,13.194l2.227-19.089h1.957
				c0.949-3.708,2.832-6.571,5.652-8.588c2.818-2.017,6.199-3.026,10.146-3.026c4.775,0,8.105,1.432,9.988,4.294
				c1.885,2.863,2.322,7.113,1.314,12.749l-5.475,31.015L1039.268,627.201L1039.268,627.201z"/>
		</g>
		<g>
			<path fill="#4CAE4F" d="M535.745,720.271c-7.684,0-14.181-1.305-19.491-3.916l2.759-8.1c6.081,2.553,11.941,3.827,17.577,3.827
				c4.479,0,7.876-0.696,10.19-2.091c2.314-1.394,3.471-3.44,3.471-6.141c0-1.661-0.327-3.108-0.979-4.339
				c-0.652-1.23-1.721-2.439-3.204-3.627l-12.726-10.323c-2.285-1.869-3.954-4.027-5.007-6.476
				c-1.053-2.447-1.579-4.842-1.579-7.186c0-5.459,1.728-9.591,5.185-12.394c3.455-2.804,8.477-4.204,15.063-4.204
				c8.217,0,14.714,2.506,19.49,7.52l-6.452,6.764c-2.166-2.018-4.391-3.538-6.675-4.562c-2.284-1.023-4.583-1.534-6.896-1.534
				c-3.264,0-5.778,0.645-7.542,1.936c-1.765,1.29-2.648,3.197-2.648,5.718c0,1.335,0.356,2.788,1.068,4.361
				c0.711,1.572,1.854,2.996,3.426,4.271l10.947,8.812c2.819,2.284,4.866,4.517,6.141,6.696c1.275,2.181,1.913,4.694,1.913,7.544
				c0,5.726-2.032,10.063-6.096,13.015C549.612,718.795,543.635,720.271,535.745,720.271z"/>
			<path fill="#4CAE4F" d="M567.649,740.384l-3.959-7.786c6.763-2.938,12.719-6.313,17.866-10.123
				c5.147-3.813,9.582-8.151,13.305-13.016c3.722-4.865,6.801-10.376,9.233-16.532c2.433-6.155,4.316-13.06,5.651-20.714h9.523
				c-2.225,11.541-5.503,21.604-9.833,30.191c-4.332,8.589-9.917,15.969-16.753,22.139
				C585.842,730.713,577.499,735.993,567.649,740.384z M581.934,671.322c4.361,17.799,10.117,31.282,17.266,40.449l-8.232,5.34
				c-3.708-5.607-7.127-12.134-10.257-19.58c-3.13-7.447-6-15.887-8.61-25.32L581.934,671.322z"/>
			<path fill="#4CAE4F" d="M642.763,720.271c-3.856,0-7.402-0.237-10.635-0.713c-3.233-0.475-5.875-1.126-7.922-1.958l2.582-8.544
				c3.441,0.861,6.682,1.534,9.723,2.025c3.04,0.489,5.628,0.734,7.765,0.734c3.886,0,6.904-0.512,9.056-1.534
				c2.15-1.024,3.226-2.471,3.226-4.34c0-0.919-0.364-1.771-1.09-2.559c-0.728-0.785-1.773-1.4-3.138-1.846l-13.35-4.495
				c-2.937-0.978-5.191-2.357-6.763-4.138c-1.573-1.779-2.358-3.783-2.358-6.008c0-4.954,2.098-8.788,6.297-11.503
				c4.196-2.714,10.138-4.071,17.821-4.071c2.699,0,5.466,0.119,8.299,0.356c2.833,0.237,5.496,0.563,7.987,0.979l-2.403,8.188
				c-2.789-0.327-5.511-0.585-8.165-0.779c-2.656-0.191-5.007-0.289-7.054-0.289c-4.212,0-7.469,0.542-9.767,1.624
				c-2.299,1.084-3.449,2.619-3.449,4.605c0,0.713,0.282,1.357,0.846,1.936c0.563,0.579,1.394,1.031,2.492,1.357l13.572,4.316
				c3.144,1.01,5.555,2.5,7.231,4.473c1.675,1.973,2.514,4.235,2.514,6.787c0,4.894-2.031,8.685-6.096,11.369
				C655.919,718.93,650.18,720.271,642.763,720.271z"/>
			<path fill="#4CAE4F" d="M680.143,680.488l1.469-8.277h41.562l-1.469,8.277H680.143z M703.193,720.271
				c-5.458,0-9.472-1.164-12.037-3.493c-2.566-2.329-3.85-5.955-3.85-10.88c0-1.246,0.06-2.44,0.178-3.583
				c0.118-1.141,0.304-2.424,0.557-3.849c0.25-1.423,0.556-3.173,0.912-5.25l6.186-35.243h9.566l-6.185,35.243
				c-0.505,2.966-0.913,5.25-1.224,6.853c-0.312,1.602-0.467,3.248-0.467,4.939c0,2.344,0.652,4.064,1.958,5.161
				c1.305,1.099,3.353,1.646,6.141,1.646c2.166,0,4.064-0.178,5.696-0.534c1.631-0.355,3.576-0.993,5.83-1.912l1.735,7.608
				c-2.136,0.921-4.397,1.698-6.786,2.336C709.015,719.951,706.278,720.271,703.193,720.271z"/>
			<path fill="#4CAE4F" d="M753.833,711.815c2.374,0,4.91-0.369,7.609-1.112c2.699-0.741,5.295-1.78,7.786-3.114l3.07,7.608
				c-2.906,1.603-6.022,2.849-9.344,3.738c-3.322,0.89-6.497,1.335-9.522,1.335c-6.112,0-10.881-1.602-14.307-4.806
				c-3.426-3.203-5.14-7.668-5.14-13.394c0-6.171,1.164-11.555,3.493-16.153c2.328-4.6,5.585-8.18,9.768-10.746
				s9.063-3.85,14.641-3.85c4.39,0,7.811,1.098,10.257,3.293c2.447,2.195,3.671,5.25,3.671,9.167c0,5.814-2.975,10.398-8.923,13.749
				c-5.947,3.354-14.246,5.133-24.897,5.34l-0.934-7.119c7.95-0.119,14.143-1.172,18.578-3.16c4.435-1.986,6.652-4.731,6.652-8.232
				c0-1.423-0.489-2.543-1.469-3.359c-0.979-0.815-2.374-1.224-4.184-1.224c-3.53,0-6.638,0.905-9.322,2.715
				c-2.686,1.81-4.776,4.346-6.274,7.608c-1.498,3.264-2.263,7.076-2.292,11.436c0.029,3.234,1.023,5.756,2.981,7.565
				C747.692,710.911,750.392,711.815,753.833,711.815z"/>
			<path fill="#4CAE4F" d="M798.287,672.212l-0.578,12.147l-6.185,35.021h-9.567l8.321-47.169H798.287L798.287,672.212z
				 M799.667,719.381l6.497-36.846c0.445-2.432-0.326-3.648-2.314-3.648c-1.839,0-3.47,1.602-4.895,4.805
				c-1.424,3.204-2.596,7.729-3.515,13.572l1.066-17.889h2.27c0.742-2.907,1.876-4.977,3.403-6.207
				c1.528-1.23,3.374-1.847,5.541-1.847c2.759,0,4.694,0.994,5.807,2.981s1.282,5.146,0.511,9.479l-6.363,35.599L799.667,719.381
				L799.667,719.381z M831.661,683.781l-6.274,35.599h-9.566l6.497-36.845c0.207-1.157,0.133-2.055-0.223-2.693
				c-0.355-0.637-1.008-0.956-1.958-0.956c-1.958,0-3.642,1.603-5.051,4.806s-2.558,7.728-3.448,13.572l0.623-17.889h2.982
				c0.801-2.938,2.039-5.014,3.716-6.23c1.676-1.217,3.7-1.824,6.073-1.824C830.905,671.322,833.114,675.475,831.661,683.781z"/>
		</g>
	</g>
</g>
</svg>
