<?xml version="1.0" encoding="utf-8"?>
<!-- Generator: Adobe Illustrator 16.0.3, SVG Export Plug-In . SVG Version: 6.00 Build 0)  -->
<!DOCTYPE svg PUBLIC "-//W3C//DTD SVG 1.1//EN" "http://www.w3.org/Graphics/SVG/1.1/DTD/svg11.dtd">
<svg version="1.1" id="Capa_1" xmlns="http://www.w3.org/2000/svg" xmlns:xlink="http://www.w3.org/1999/xlink" x="0px" y="0px"
	 width="1920px" height="1282px" viewBox="0 0 1920 1282" enable-background="new 0 0 1920 1282" xml:space="preserve">
<rect x="-3.83" y="0" fill="#FDFCFC" width="1920" height="1282"/>
<g>
	<g>
		<path fill="#4CAE4F" d="M376.161,759.47c0.018-14.574-1.587-28.942-5.856-42.911c-1.943-6.362-4.543-12.437-9.153-17.493
			c-3.354-3.678-2.952-8.661,0.618-11.82c3.237-2.865,8.187-2.502,11.443,1.016c6.198,6.696,9.902,14.785,12.533,23.388
			c4.007,13.106,5.819,26.542,6.423,40.241c0.737,16.729-0.55,33.224-4.468,49.467c-2.221,9.199-5.337,18.145-10.98,25.932
			c-3.709,5.115-8.135,9.305-14.534,10.977c-4.347,1.135-8.438,0.23-12.552-0.957c-10.417-3.01-18.227-9.653-24.813-17.939
			c-0.926-1.169-1.502-1.391-2.848-0.586c-10.226,6.104-21.182,8.328-32.872,5.484c-9.317-2.264-17.147-7.234-23.851-14.012
			c-10.141-10.252-16.235-22.725-19.969-36.496c-3.312-12.211-4.588-24.595-3.528-37.224c1.22-14.514,4.857-28.312,11.865-41.154
			c1.869-3.427,5.007-5.252,8.298-4.724c3.604,0.578,6.237,3.275,6.873,6.939c0.365,2.111-0.555,3.833-1.511,5.549
			c-5.208,9.35-8.191,19.443-9.413,29.99c-1.082,9.338-0.966,18.695,0.685,28.041c2.12,11.99,6.117,23.141,13.424,32.963
			c4.983,6.695,11.125,11.969,19.262,14.404c8.14,2.432,15.817,1.112,22.981-3.424c1.238-0.787,0.861-1.557,0.373-2.576
			c-3.836-8.023-6.507-16.471-8.5-25.1c-3.049-13.203-3.916-26.633-3.424-40.16c0.122-3.321,0.033-6.654,0.582-9.956
			c0.735-4.415,4.086-7.214,8.374-6.923c4.148,0.283,7.306,3.678,7.104,8.125c-0.254,5.625-0.673,11.239-0.584,16.881
			c0.287,18.092,3.473,35.576,11.387,51.957c4.257,8.811,9.771,16.715,18.232,22.18c2.997,1.937,6.261,2.602,9.675,2.797
			c2.897,0.172,4.359-2.074,5.787-4.031c4.078-5.59,6.346-12.025,8.138-18.615C374.945,786.535,376.146,773.067,376.161,759.47z"/>
		<path fill="#1DA0B5" d="M432.514,854.028c1.53,3.279,3.561,6.213,6.089,8.799c-5.626,6.248-12.845,9.705-20.816,11.803
			c-15.244,4.014-30.637,3.414-45.934,0.775c-42.394-7.316-80.204-24.855-113.399-52.16c-11.926-9.807-22.318-21.096-29.49-34.998
			c-1.977-3.835-0.201-7.756,3.658-8.109c2.182-0.201,3.927,0.721,4.943,2.555c15.31,27.651,40.217,44.486,67.024,58.958
			c20.265,10.942,41.769,18.774,64.5,22.928c13.4,2.446,26.889,3.688,40.44,1.345C418.398,864.391,426.814,861.782,432.514,854.028z
			"/>
		<path fill="#1DA0B5" d="M418.472,794.276c-0.025,14.191-1.096,33.914-6.444,53.172c-0.89,3.205-1.923,6.359-3.241,9.408
			c-1.354,3.125-4.126,4.439-6.795,3.361c-2.823-1.143-3.988-4.055-2.709-7.248c5.035-12.578,6.895-25.803,8.035-39.169
			c1.736-20.322,0.933-40.601-1.614-60.798c-2.331-18.474-6.016-36.652-13.209-53.951c-1.473-3.542-3.14-6.988-5.19-10.24
			c-2.016-3.196-4.308-6.111-7.43-8.352c-2.846-2.043-3.454-4.921-1.79-7.307c1.74-2.499,4.766-2.947,7.646-1.039
			c6.269,4.16,10.107,10.308,13.37,16.834c6.602,13.21,10.431,27.334,13.35,41.73C416.328,749.799,418.136,769.137,418.472,794.276z
			"/>
		<path fill="#1DA0B5" d="M345.408,923.956c-2.795-0.004-5.59-0.009-8.386-0.012c-14.794-1.307-26.3-8.349-34.72-20.386
			c-5.055-7.226-8.083-15.327-8.895-24.192c-0.327-3.582,1.347-6.217,4.405-6.621c2.816-0.369,5.246,1.756,5.685,5.309
			c1.005,8.134,3.771,15.535,8.941,21.934c10.726,13.281,28.242,17.625,44.073,10.977c11.512-4.834,19.822-13.023,25.25-24.215
			c0.557-1.146,1.057-2.338,1.743-3.408c1.534-2.389,4.17-3.193,6.406-2.068c2.625,1.324,3.694,3.918,2.564,6.659
			c-4.434,10.742-11.252,19.642-20.803,26.325C363.783,919.778,355.138,923.36,345.408,923.956z"/>
		<path fill="#4CAE4F" d="M493.868,778.35c-0.104-0.404-0.274-0.804-0.302-1.218c-0.685-9.505-3.535-18.371-8.444-26.48
			c-6.013-9.93-14.425-17.065-25.591-20.771c-4.188-1.39-8.589-2.161-12.526-4.304c-12.124-6.602-17.415-17.635-19.078-30.582
			c-1.81-14.1,1.302-27.428,8.054-39.91c3.753-6.941,8.51-13.115,14.314-18.477c2.563-2.367,2.94-5.455,1.97-8.487
			c-0.946-2.954-3.395-4.614-6.531-5.009c-3.105-0.396-5.407,1.204-7.458,3.235c-14.646,14.506-23.448,31.857-25.953,52.431
			c-1.574,12.929-0.074,25.345,5.415,37.14c6.654,14.301,17.448,23.818,32.988,27.621c7.133,1.746,13.377,5.155,17.975,10.968
			c8.557,10.823,10.587,23.455,9.125,36.72c-1.408,12.752-6.239,24.266-13.965,34.564c-1.098,1.467-1.843,1.908-3.714,1.168
			c-11.036-4.374-23.768,1.761-27.483,12.977c-1.564,4.722-1.103,9.388-0.15,14.094c0.806,3.781,2.67,6.828,6.089,8.799
			c2.374,1.613,4.692,3.274,7.529,4.105c8.146,2.388,15.45,0.86,21.456-5.078c5.735-5.676,7.706-12.653,5.571-20.606
			c-0.256-0.96-0.686-1.919,0.377-2.786c2.003-1.635,3.356-3.826,4.799-5.926c8.392-12.205,13.63-25.6,15.176-40.379
			C493.915,787.563,493.931,782.957,493.868,778.35z M452.748,857.741c-5.949-0.005-10.897-4.882-10.987-10.76
			c-0.112-7.293,6.321-11.166,10.821-11.204c6.015-0.05,11.091,4.966,11.113,10.956C463.716,852.87,458.87,857.745,452.748,857.741z
			"/>
		<path fill="#1DA0B5" d="M352.732,631.298c-11.58,0.053-21.138,9.598-21.216,21.184c-0.079,11.672,9.583,21.33,21.322,21.319
			c11.74-0.014,21.273-9.649,21.188-21.415C373.943,640.775,364.315,631.241,352.732,631.298z M352.755,663.503
			c-5.989-0.012-10.935-4.934-10.964-10.908c-0.029-5.879,5.056-11.016,10.922-11.029c6.097-0.014,11.07,5.002,11.019,11.113
			C363.681,658.724,358.818,663.519,352.755,663.503z"/>
	</g>
	<g>
		<g>
			<path fill="#4CAE4F" d="M490.104,725.665l2.928-46.193l6.733-0.391l-3.091,40.988h0.587l7.547-18.381l2.276,8.816h-4.978
				l4.099-3.252l-7.417,18.411L490.104,725.665L490.104,725.665z M504.904,725.665l0.976-16.429h-2.96l1.692-18.054l6.246-0.391
				l-1.822,29.277h0.586c1.563-3.6,3.15-7.508,4.766-11.728c1.616-4.217,3.074-8.739,4.375-13.565
				c1.301-4.826,2.276-9.928,2.927-15.307h6.961c-0.563,4.576-1.366,8.995-2.406,13.257c-1.042,4.261-2.256,8.339-3.644,12.231
				s-2.891,7.568-4.506,11.027c-1.617,3.459-3.281,6.686-4.993,9.679L504.904,725.665L504.904,725.665z"/>
			<path fill="#4CAE4F" d="M544.429,720.134c1.734,0,3.588-0.27,5.563-0.813c1.973-0.543,3.871-1.301,5.692-2.277l2.244,5.563
				c-2.124,1.169-4.402,2.081-6.832,2.731c-2.428,0.652-4.749,0.977-6.961,0.977c-4.468,0-7.954-1.17-10.459-3.513
				c-2.505-2.343-3.756-5.605-3.756-9.792c0-4.51,0.85-8.447,2.553-11.81c1.702-3.36,4.082-5.979,7.141-7.856
				c3.058-1.875,6.625-2.813,10.703-2.813c3.209,0,5.709,0.802,7.499,2.406c1.789,1.605,2.684,3.838,2.684,6.701
				c0,4.25-2.175,7.602-6.523,10.053s-10.414,3.75-18.2,3.903l-0.684-5.206c5.812-0.086,10.339-0.855,13.581-2.309
				c3.242-1.452,4.863-3.459,4.863-6.018c0-1.041-0.357-1.859-1.073-2.455c-0.716-0.597-1.736-0.896-3.06-0.896
				c-2.58,0-4.853,0.663-6.814,1.984c-1.963,1.324-3.492,3.178-4.587,5.563c-1.095,2.385-1.654,5.172-1.675,8.36
				c0.021,2.363,0.748,4.208,2.18,5.529C539.94,719.474,541.914,720.134,544.429,720.134z"/>
			<path fill="#4CAE4F" d="M571.528,676.186c3.774,0,6.365,0.911,7.775,2.733c1.41,1.82,1.745,4.75,1.008,8.781l-6.669,37.965
				l-6.993-0.031l6.798-38.582c0.305-1.67,0.216-2.884-0.26-3.643c-0.477-0.759-1.378-1.139-2.7-1.139
				c-0.541,0-1.079,0.027-1.61,0.08c-0.533,0.055-1.068,0.146-1.61,0.277l-0.684-5.922c0.825-0.195,1.648-0.33,2.474-0.406
				C569.879,676.222,570.703,676.186,571.528,676.186z M576.082,726.315c-1.583,0-3.154-0.061-4.717-0.182
				c-1.561-0.118-3.133-0.287-4.717-0.502l3.253-6.312c1.41,0.544,3.708,0.813,6.897,0.813c2.45,0,4.722-0.45,6.815-1.35
				c2.093-0.9,3.919-2.156,5.481-3.774c1.563-1.614,2.775-3.507,3.643-5.677c0.868-2.168,1.302-4.531,1.302-7.092
				c0-1.758-0.401-3.117-1.204-4.082c-0.803-0.965-1.94-1.447-3.416-1.447c-1.799,0-3.611,0.563-5.433,1.691
				c-1.822,1.128-3.458,2.896-4.911,5.304c-1.454,2.405-2.527,5.521-3.22,9.334l1.268-14.019h2.831l-1.692,2.471
				c0.76-3.491,2.343-6.192,4.75-8.102c2.407-1.906,5.411-2.861,9.011-2.861c2.841,0,5.047,0.905,6.62,2.717
				c1.572,1.812,2.358,4.375,2.358,7.693c0,3.623-0.624,6.973-1.87,10.051c-1.248,3.082-3,5.771-5.254,8.068
				c-2.256,2.299-4.896,4.082-7.922,5.352C582.93,725.681,579.639,726.315,576.082,726.315z"/>
		</g>
		<g>
			<path fill="#1DA0B5" d="M517.947,791.261l1.074-6.181h28.072l-1.072,6.181H517.947z M525.005,751.247l1.075-6.182h28.074
				l-1.073,6.182H525.005z M528.617,791.261l8.133-46.193h6.766l-8.133,46.193H528.617z"/>
			<path fill="#1DA0B5" d="M556.984,791.261l6.083-34.48h5.757l-0.228,8.229l-4.619,26.254h-6.995L556.984,791.261L556.984,791.261z
				 M578.064,791.261l4.002-22.934c0.347-1.996,0.2-3.498-0.44-4.506c-0.64-1.009-1.784-1.512-3.432-1.512
				c-1.757,0-3.382,0.509-4.879,1.529c-1.496,1.02-2.847,2.715-4.049,5.09c-1.204,2.376-2.229,5.589-3.076,9.645l1.627-13.955h1.431
				c0.694-2.711,2.071-4.804,4.13-6.279c2.06-1.473,4.533-2.211,7.418-2.211c3.492,0,5.926,1.047,7.305,3.14
				c1.377,2.091,1.696,5.2,0.958,9.319l-4.001,22.674H578.064L578.064,791.261z"/>
			<path fill="#1DA0B5" d="M591.759,806.647l-0.292-6.182l2.375-0.26c2.775-0.305,5.032-1.051,6.767-2.244
				c1.736-1.193,3.053-2.863,3.953-5.01s1.468-4.791,1.708-7.938l2.408-22.055c0.39-4.836,1.36-8.811,2.912-11.924
				c1.55-3.109,3.848-5.427,6.897-6.945c3.045-1.518,6.989-2.277,11.826-2.277c1.886,0,3.685,0.218,5.399,0.652l-1.758,5.985
				c-0.997-0.173-1.882-0.292-2.65-0.357c-0.771-0.065-1.523-0.097-2.261-0.097c-4.424,0-7.64,1.188-9.645,3.563
				c-2.007,2.375-3.226,6.066-3.661,11.076l-2.635,23.357c-0.346,4.144-1.214,7.645-2.602,10.508
				c-1.388,2.864-3.416,5.107-6.083,6.734c-2.667,1.626-6.116,2.677-10.344,3.154L591.759,806.647z M596.444,770.44l1.074-6.049
				h31.88l-1.074,6.049H596.444z"/>
			<path fill="#1DA0B5" d="M648.948,791.911c-3.837,0-6.836-1.101-8.995-3.303c-2.159-2.199-3.236-5.264-3.236-9.189
				c0-7.328,1.638-13.044,4.912-17.143c3.275-4.098,7.818-6.148,13.631-6.148c3.839,0,6.836,1.129,8.995,3.385
				c2.158,2.255,3.235,5.398,3.235,9.432c0,7.223-1.63,12.854-4.895,16.902C659.331,789.89,654.783,791.911,648.948,791.911z
				 M650.152,785.763c3.254,0,5.796-1.359,7.629-4.082c1.832-2.721,2.75-6.502,2.75-11.338c0-2.513-0.543-4.482-1.627-5.902
				c-1.084-1.418-2.615-2.131-4.587-2.131c-3.339,0-5.948,1.354-7.824,4.068c-1.875,2.709-2.813,6.483-2.813,11.318
				c0,2.539,0.568,4.516,1.708,5.938C646.526,785.054,648.114,785.763,650.152,785.763z"/>
			<path fill="#1DA0B5" d="M671.168,791.261l1.074-6.049h23.032l-1.074,6.049H671.168z M678.877,791.261l4.328-24.301
				c0.304-1.669,0.215-2.883-0.26-3.641c-0.478-0.76-1.378-1.139-2.701-1.139c-1.823,0-3.579,0.247-5.271,0.746l-0.684-5.921
				c0.977-0.303,2.051-0.53,3.22-0.682c1.172-0.151,2.428-0.229,3.775-0.229c3.773,0,6.365,0.911,7.773,2.732
				c1.41,1.823,1.757,4.75,1.042,8.783l-4.23,23.65H678.877z M688.115,778.573l1.628-13.955h1.431
				c0.627-2.711,1.855-4.801,3.676-6.279c1.822-1.473,4.012-2.211,6.571-2.211c3.47,0,5.979,1.09,7.531,3.271
				c1.549,2.176,2.012,5.242,1.383,9.188h-6.994c0.282-2.125,0.108-3.703-0.521-4.734c-0.629-1.029-1.745-1.543-3.349-1.543
				c-1.649,0-3.185,0.509-4.604,1.527c-1.42,1.02-2.701,2.717-3.838,5.092C689.889,771.305,688.918,774.519,688.115,778.573z"/>
			<path fill="#1DA0B5" d="M723.25,756.778l-0.422,8.879l-4.522,25.604h-6.993l6.082-34.482H723.25z M724.258,791.261l4.75-26.938
				c0.326-1.777-0.239-2.666-1.69-2.666c-1.347,0-2.538,1.17-3.58,3.513c-1.041,2.343-1.898,5.65-2.57,9.923l0.781-13.077h1.658
				c0.542-2.126,1.372-3.638,2.488-4.539c1.119-0.899,2.468-1.349,4.051-1.349c2.015,0,3.432,0.725,4.244,2.178
				c0.814,1.453,0.939,3.764,0.375,6.93l-4.652,26.025H724.258L724.258,791.261z M747.648,765.235l-4.587,26.025h-6.993
				l4.748-26.938c0.153-0.842,0.099-1.5-0.161-1.967c-0.261-0.465-0.739-0.699-1.433-0.699c-1.431,0-2.661,1.17-3.691,3.513
				c-1.031,2.343-1.87,5.65-2.523,9.923l0.458-13.076h2.18c0.586-2.147,1.491-3.666,2.717-4.555
				c1.224-0.891,2.704-1.334,4.439-1.334C747.095,756.128,748.709,759.165,747.648,765.235z"/>
			<path fill="#1DA0B5" d="M761.018,791.943c-2.95,0-5.226-0.845-6.832-2.536c-1.604-1.693-2.408-4.076-2.408-7.156
				c0-3.904,0.83-7.444,2.488-10.622c1.66-3.177,3.984-5.894,6.98-8.149c2.992-2.254,6.494-3.989,10.506-5.205
				c4.013-1.213,8.372-1.821,13.077-1.821h0.653l-4.294,24.496c-0.304,1.733-0.168,2.992,0.405,3.772
				c0.575,0.781,1.817,1.17,3.726,1.17h1.333l-0.975,5.694h-2.311c-1.669,0-3.063-0.168-4.18-0.503
				c-1.117-0.336-1.984-0.869-2.603-1.596c-0.618-0.727-1.013-1.686-1.187-2.879c-0.174-1.192-0.153-2.645,0.065-4.359l1.886,0.846
				h-3.773l1.722-1.887c-1.191,3.405-3.035,6.046-5.528,7.922C767.275,791.005,764.358,791.943,761.018,791.943z M763.132,785.763
				c3.123,0,5.844-1.408,8.165-4.228c2.322-2.82,3.946-6.812,4.88-11.972l1.692-9.436l2.634,2.508
				c-3.036,0.128-5.873,0.694-8.507,1.69c-2.634,0.997-4.943,2.338-6.928,4.019c-1.986,1.681-3.536,3.631-4.653,5.854
				c-1.117,2.226-1.675,4.635-1.675,7.238c0,1.389,0.385,2.456,1.156,3.205C760.665,785.389,761.743,785.763,763.132,785.763z"/>
			<path fill="#1DA0B5" d="M793.028,762.827l1.074-6.049h30.383l-1.072,6.049H793.028z M809.879,791.911
				c-3.99,0-6.923-0.851-8.799-2.554c-1.876-1.702-2.815-4.354-2.815-7.952c0-0.912,0.044-1.783,0.131-2.621
				c0.086-0.834,0.222-1.773,0.407-2.813c0.184-1.042,0.406-2.32,0.668-3.838l4.52-25.765h6.994l-4.521,25.765
				c-0.369,2.168-0.667,3.838-0.896,5.008c-0.227,1.172-0.341,2.377-0.341,3.611c0,1.714,0.477,2.972,1.431,3.774
				c0.955,0.804,2.452,1.202,4.49,1.202c1.584,0,2.972-0.129,4.166-0.391c1.191-0.259,2.613-0.724,4.261-1.397l1.268,5.563
				c-1.563,0.671-3.214,1.241-4.961,1.706C814.136,791.679,812.135,791.911,809.879,791.911z"/>
			<path fill="#1DA0B5" d="M859.229,783.94l2.244,5.238c-1.324,0.76-2.723,1.404-4.196,1.936c-1.476,0.529-3.166,0.797-5.075,0.797
				c-3.926,0-6.844-0.922-8.749-2.766c-1.912-1.842-2.756-4.543-2.538-8.1c0.107-1.627,0.426-3.208,0.959-4.75
				c0.531-1.539,1.106-3.035,1.723-4.488c0.618-1.453,1.089-2.854,1.416-4.197c0.456-1.801,0.265-3.155-0.568-4.066
				c-0.836-0.91-2.284-1.367-4.343-1.367c-2.061,0-4.046,0.248-5.954,0.746l-0.683-5.92c1.279-0.368,2.559-0.61,3.839-0.731
				c1.278-0.118,2.559-0.179,3.837-0.179c4.491,0,7.645,1.025,9.467,3.074c1.821,2.049,2.244,5.082,1.269,9.095
				c-0.37,1.54-0.852,2.976-1.448,4.309c-0.597,1.337-1.143,2.651-1.642,3.952c-0.5,1.302-0.803,2.713-0.912,4.229
				c-0.239,3.318,1.627,4.979,5.596,4.979c1.083,0,2.033-0.135,2.848-0.408C857.13,785.052,858.101,784.593,859.229,783.94z
				 M851.583,751.312c-1.322,0-2.456-0.473-3.397-1.413c-0.945-0.943-1.416-2.077-1.416-3.401c0-1.344,0.471-2.48,1.416-3.415
				c0.941-0.931,2.077-1.397,3.397-1.397c1.345,0,2.484,0.467,3.418,1.397c0.931,0.935,1.397,2.071,1.397,3.415
				c0,1.324-0.466,2.458-1.397,3.401C854.067,750.839,852.928,751.312,851.583,751.312z"/>
			<path fill="#1DA0B5" d="M883.172,791.911c-3.84,0-6.839-1.101-8.996-3.303c-2.159-2.199-3.237-5.264-3.237-9.189
				c0-7.328,1.637-13.044,4.913-17.143c3.274-4.098,7.817-6.148,13.63-6.148c3.838,0,6.836,1.129,8.996,3.385
				c2.157,2.255,3.235,5.398,3.235,9.432c0,7.223-1.631,12.854-4.896,16.902C893.554,789.89,889.005,791.911,883.172,791.911z
				 M884.374,785.763c3.253,0,5.795-1.359,7.629-4.082c1.833-2.721,2.75-6.502,2.75-11.338c0-2.513-0.543-4.482-1.627-5.902
				c-1.083-1.418-2.614-2.131-4.585-2.131c-3.341,0-5.948,1.354-7.825,4.068c-1.875,2.709-2.812,6.483-2.812,11.318
				c0,2.539,0.566,4.516,1.707,5.938C880.748,785.052,882.334,785.763,884.374,785.763z"/>
			<path fill="#1DA0B5" d="M908.318,791.261l6.083-34.48h5.757l-0.227,8.229l-4.62,26.254h-6.994V791.261z M929.398,791.261
				l4.001-22.934c0.347-1.996,0.202-3.498-0.439-4.506c-0.639-1.009-1.782-1.512-3.431-1.512c-1.755,0-3.383,0.509-4.879,1.529
				c-1.497,1.02-2.847,2.715-4.049,5.09c-1.205,2.376-2.229,5.589-3.076,9.645l1.629-13.955h1.431
				c0.693-2.711,2.07-4.804,4.132-6.279c2.061-1.473,4.533-2.211,7.417-2.211c3.49,0,5.926,1.047,7.301,3.14
				c1.38,2.091,1.698,5.2,0.962,9.319l-4.003,22.674H929.398L929.398,791.261z"/>
		</g>
		<g>
			<path fill="#4CAE4F" d="M561.298,859.3c-5.618,0-10.367-0.953-14.249-2.863l2.016-5.921c4.446,1.866,8.73,2.796,12.85,2.796
				c3.275,0,5.758-0.507,7.45-1.527c1.691-1.02,2.538-2.515,2.538-4.489c0-1.214-0.239-2.272-0.716-3.172
				c-0.476-0.899-1.257-1.782-2.341-2.652l-9.304-7.546c-1.671-1.366-2.891-2.943-3.661-4.735c-0.769-1.788-1.154-3.538-1.154-5.252
				c0-3.991,1.264-7.013,3.791-9.062c2.526-2.049,6.197-3.072,11.012-3.072c6.006,0,10.756,1.832,14.249,5.498l-4.717,4.944
				c-1.583-1.476-3.21-2.587-4.88-3.337c-1.669-0.746-3.35-1.119-5.041-1.119c-2.386,0-4.224,0.47-5.514,1.414
				c-1.29,0.943-1.936,2.338-1.936,4.181c0,0.977,0.26,2.038,0.78,3.188c0.52,1.148,1.356,2.189,2.505,3.122l8.002,6.44
				c2.061,1.67,3.557,3.303,4.489,4.896c0.932,1.595,1.398,3.432,1.398,5.516c0,4.186-1.485,7.355-4.457,9.514
				C571.435,858.221,567.065,859.3,561.298,859.3z"/>
			<path fill="#4CAE4F" d="M584.62,874.003l-2.894-5.692c4.945-2.147,9.299-4.614,13.061-7.399c3.763-2.789,7.005-5.959,9.728-9.516
				c2.72-3.557,4.97-7.584,6.749-12.086c1.779-4.5,3.156-9.547,4.132-15.143h6.961c-1.626,8.436-4.023,15.795-7.188,22.071
				c-3.167,6.278-7.25,11.674-12.248,16.186C597.92,866.935,591.822,870.792,584.62,874.003z M595.063,823.515
				c3.188,13.012,7.396,22.869,12.623,29.57l-6.019,3.904c-2.711-4.098-5.21-8.869-7.498-14.313
				c-2.288-5.446-4.387-11.614-6.294-18.511L595.063,823.515z"/>
			<path fill="#4CAE4F" d="M639.534,859.3c-2.819,0-5.412-0.174-7.775-0.521c-2.364-0.346-4.294-0.822-5.792-1.432l1.888-6.245
				c2.516,0.63,4.884,1.12,7.108,1.48c2.222,0.357,4.114,0.536,5.677,0.536c2.84,0,5.046-0.375,6.62-1.121
				c1.572-0.75,2.359-1.807,2.359-3.174c0-0.672-0.267-1.293-0.798-1.87c-0.531-0.574-1.295-1.023-2.293-1.351l-9.759-3.285
				c-2.148-0.715-3.795-1.723-4.945-3.024c-1.149-1.3-1.724-2.767-1.724-4.394c0-3.622,1.535-6.423,4.604-8.408
				c3.066-1.984,7.411-2.977,13.027-2.977c1.973,0,3.997,0.088,6.067,0.261c2.071,0.174,4.018,0.411,5.839,0.715l-1.757,5.986
				c-2.039-0.239-4.029-0.427-5.969-0.569c-1.942-0.141-3.662-0.211-5.157-0.211c-3.08,0-5.461,0.396-7.141,1.188
				c-1.681,0.791-2.521,1.914-2.521,3.366c0,0.521,0.206,0.991,0.619,1.415c0.411,0.423,1.018,0.753,1.822,0.992l9.921,3.155
				c2.298,0.737,4.061,1.829,5.287,3.271c1.225,1.441,1.837,3.095,1.837,4.961c0,3.577-1.484,6.348-4.456,8.311
				C649.15,858.319,644.955,859.3,639.534,859.3z"/>
			<path fill="#4CAE4F" d="M666.86,830.218l1.074-6.053h30.383l-1.074,6.053H666.86z M683.711,859.3
				c-3.989,0-6.925-0.851-8.801-2.553c-1.875-1.703-2.814-4.354-2.814-7.953c0-0.912,0.044-1.785,0.131-2.619
				c0.085-0.836,0.222-1.773,0.407-2.816c0.183-1.041,0.406-2.319,0.667-3.838l4.522-25.764h6.993l-4.522,25.764
				c-0.369,2.168-0.667,3.838-0.894,5.01c-0.229,1.172-0.342,2.375-0.342,3.611c0,1.714,0.478,2.973,1.433,3.773
				c0.954,0.803,2.45,1.203,4.488,1.203c1.584,0,2.972-0.131,4.165-0.391c1.192-0.26,2.614-0.727,4.262-1.397l1.268,5.562
				c-1.563,0.674-3.214,1.242-4.961,1.709C687.966,859.065,685.966,859.3,683.711,859.3z"/>
			<path fill="#4CAE4F" d="M720.731,853.118c1.736,0,3.589-0.27,5.562-0.813c1.973-0.541,3.871-1.303,5.693-2.276l2.244,5.562
				c-2.124,1.172-4.402,2.082-6.83,2.73c-2.429,0.652-4.75,0.978-6.961,0.978c-4.468,0-7.955-1.172-10.459-3.513
				c-2.504-2.342-3.757-5.606-3.757-9.791c0-4.513,0.851-8.449,2.553-11.811c1.701-3.361,4.082-5.98,7.141-7.856
				c3.058-1.874,6.625-2.813,10.703-2.813c3.209,0,5.711,0.803,7.499,2.406c1.789,1.605,2.684,3.838,2.684,6.701
				c0,4.252-2.175,7.603-6.523,10.054c-4.347,2.451-10.414,3.753-18.201,3.903l-0.684-5.205c5.812-0.087,10.341-0.857,13.583-2.311
				c3.243-1.449,4.863-3.457,4.863-6.016c0-1.042-0.359-1.859-1.074-2.457c-0.715-0.596-1.735-0.895-3.059-0.895
				c-2.58,0-4.853,0.662-6.813,1.985c-1.965,1.322-3.493,3.175-4.588,5.56c-1.095,2.389-1.655,5.174-1.675,8.361
				c0.021,2.363,0.748,4.207,2.179,5.531C716.241,852.458,718.216,853.118,720.731,853.118z"/>
			<path fill="#4CAE4F" d="M753.229,824.165l-0.423,8.883l-4.522,25.6h-6.994l6.084-34.482H753.229L753.229,824.165z
				 M754.238,858.647l4.749-26.934c0.327-1.779-0.238-2.668-1.692-2.668c-1.343,0-2.536,1.172-3.577,3.513
				c-1.041,2.341-1.897,5.65-2.57,9.921l0.779-13.076h1.659c0.544-2.126,1.373-3.639,2.488-4.538c1.118-0.9,2.467-1.351,4.051-1.351
				c2.017,0,3.433,0.727,4.247,2.18c0.812,1.453,0.936,3.762,0.372,6.928l-4.651,26.025H754.238L754.238,858.647z M777.627,832.622
				l-4.587,26.025h-6.993l4.751-26.934c0.149-0.847,0.097-1.502-0.164-1.969c-0.26-0.467-0.736-0.699-1.43-0.699
				c-1.433,0-2.664,1.172-3.693,3.513c-1.031,2.341-1.87,5.649-2.521,9.921l0.456-13.076h2.18c0.586-2.148,1.49-3.667,2.717-4.555
				c1.225-0.891,2.705-1.334,4.44-1.334C777.074,823.515,778.688,826.551,777.627,832.622z"/>
		</g>
	</g>
</g>
<g>
	<g>
		<defs>
			<rect id="SVGID_1_" x="217.504" y="238.279" width="727.848" height="263.769"/>
		</defs>
		<clipPath id="SVGID_2_">
			<use xlink:href="#SVGID_1_"  overflow="visible"/>
		</clipPath>
		<g clip-path="url(#SVGID_2_)">
			<defs>
				<rect id="SVGID_3_" x="217.504" y="238.279" width="727.848" height="263.769"/>
			</defs>
			<clipPath id="SVGID_4_">
				<use xlink:href="#SVGID_3_"  overflow="visible"/>
			</clipPath>
			<g clip-path="url(#SVGID_4_)">
				<defs>
					<rect id="SVGID_5_" x="217.504" y="242.106" width="727.848" height="259.942"/>
				</defs>
				<clipPath id="SVGID_6_">
					<use xlink:href="#SVGID_5_"  overflow="visible"/>
				</clipPath>
				<g clip-path="url(#SVGID_6_)">
					<defs>
						<rect id="SVGID_7_" x="213.913" y="230.034" width="742.442" height="273.995"/>
					</defs>
					<clipPath id="SVGID_8_">
						<use xlink:href="#SVGID_7_"  overflow="visible"/>
					</clipPath>
				</g>
			</g>
			<g clip-path="url(#SVGID_4_)">
				<defs>
					<rect id="SVGID_9_" x="217.504" y="242.106" width="727.848" height="259.942"/>
				</defs>
				<clipPath id="SVGID_10_">
					<use xlink:href="#SVGID_9_"  overflow="visible"/>
				</clipPath>
				<path clip-path="url(#SVGID_10_)" fill="#FFFFFF" d="M522.205,416.088c-0.937-1.269-2.141-2.071-3.782-2.071
					c-1.571,0-3.079,1.2-3.079,2.845c0,4.249,10.007,2.471,10.007,10.938c0,5.053-3.146,8.633-8.3,8.633
					c-3.477,0-6.023-2.009-7.762-4.918l3.181-3.113c0.671,1.944,2.442,3.681,4.548,3.681c2.009,0,3.245-1.707,3.245-3.646
					c0-2.611-2.407-3.347-4.381-4.114c-3.248-1.342-5.619-2.978-5.619-6.893c0-4.183,3.107-7.56,7.36-7.56
					c2.24,0,5.351,1.1,6.893,2.804L522.205,416.088z"/>
				<path clip-path="url(#SVGID_10_)" fill="#FFFFFF" d="M539.202,436.434c-7.694,0-12.478-5.887-12.478-13.313
					c0-7.5,4.953-13.255,12.478-13.255c7.53,0,12.481,5.756,12.481,13.255C551.683,430.546,546.898,436.434,539.202,436.434
					 M539.202,414.721c-4.65,0-7.395,4.112-7.395,8.196c0,3.88,1.941,8.663,7.395,8.663c5.456,0,7.395-4.783,7.395-8.663
					C546.597,418.833,543.853,414.721,539.202,414.721"/>
				<path clip-path="url(#SVGID_10_)" fill="#FFFFFF" d="M570.958,417.227c-1.374-1.67-3.448-2.676-5.556-2.676
					c-4.72,0-7.427,4.352-7.427,8.697c0,4.254,2.807,8.5,7.396,8.5c2.106,0,4.214-1.104,5.588-2.675v5.855
					c-1.843,0.868-3.681,1.505-5.725,1.505c-7.092,0-12.344-6.123-12.344-13.08c0-7.167,5.052-13.487,12.449-13.487
					c1.969,0,3.908,0.537,5.62,1.472V417.227z"/>
				<rect x="574.203" y="410.538" clip-path="url(#SVGID_10_)" fill="#FFFFFF" width="4.921" height="25.231"/>
				<path clip-path="url(#SVGID_10_)" fill="#FFFFFF" d="M587.854,430.446l-2.077,5.316h-5.187l9.838-25.896h3.814l9.569,25.896
					h-5.252l-1.939-5.316H587.854z M592.102,417.261h-0.067l-2.775,9.171h5.991L592.102,417.261z"/>
				<path clip-path="url(#SVGID_10_)" fill="#FFFFFF" d="M622.184,417.227c-1.373-1.67-3.447-2.676-5.555-2.676
					c-4.72,0-7.428,4.352-7.428,8.697c0,4.254,2.807,8.5,7.395,8.5c2.107,0,4.215-1.104,5.588-2.675v5.855
					c-1.843,0.868-3.68,1.505-5.725,1.505c-7.089,0-12.343-6.123-12.343-13.08c0-7.167,5.052-13.487,12.448-13.487
					c1.969,0,3.909,0.537,5.62,1.472V417.227z"/>
				<rect x="625.426" y="410.538" clip-path="url(#SVGID_10_)" fill="#FFFFFF" width="4.919" height="25.231"/>
				<path clip-path="url(#SVGID_10_)" fill="#FFFFFF" d="M645.206,436.429c-7.699,0-12.483-5.882-12.483-13.313
					c0-7.495,4.954-13.249,12.483-13.249c7.527,0,12.479,5.754,12.479,13.249C657.684,430.546,652.899,436.429,645.206,436.429
					 M645.206,414.721c-4.652,0-7.398,4.116-7.398,8.196c0,3.88,1.942,8.663,7.398,8.663c5.452,0,7.391-4.783,7.391-8.663
					C652.597,418.837,649.851,414.721,645.206,414.721 M649.92,404.316l-5.052,5.018l-2.375-1.478l4.014-5.62L649.92,404.316z"/>
				<polygon clip-path="url(#SVGID_10_)" fill="#FFFFFF" points="660.091,409.865 663.637,409.865 676.924,427.498 676.989,427.498 
					676.989,410.538 681.907,410.538 681.907,436.264 678.361,436.264 665.08,418.633 665.012,418.633 665.012,435.762 
					660.091,435.762 				"/>
				<path clip-path="url(#SVGID_10_)" fill="#FFFFFF" d="M712.021,417.227c-1.373-1.67-3.444-2.676-5.553-2.676
					c-4.72,0-7.43,4.352-7.43,8.697c0,4.254,2.81,8.5,7.395,8.5c2.107,0,4.215-1.104,5.588-2.675v5.855
					c-1.843,0.868-3.678,1.505-5.722,1.505c-7.092,0-12.344-6.123-12.344-13.08c0-7.167,5.053-13.487,12.446-13.487
					c1.972,0,3.912,0.537,5.62,1.472V417.227z"/>
				<path clip-path="url(#SVGID_10_)" fill="#FFFFFF" d="M726.543,436.434c-7.696,0-12.481-5.887-12.481-13.313
					c0-7.5,4.954-13.255,12.481-13.255s12.481,5.756,12.481,13.255C739.024,430.546,734.236,436.434,726.543,436.434
					 M726.543,414.721c-4.65,0-7.395,4.112-7.395,8.196c0,3.88,1.942,8.663,7.395,8.663c5.453,0,7.393-4.783,7.393-8.663
					C733.937,418.833,731.191,414.721,726.543,414.721"/>
				<polygon clip-path="url(#SVGID_10_)" fill="#FFFFFF" points="746.35,431.481 753.308,431.481 753.308,435.762 741.432,435.762 
					741.432,410.533 746.35,410.533 				"/>
				<path clip-path="url(#SVGID_10_)" fill="#FFFFFF" d="M766.16,436.434c-7.694,0-12.479-5.887-12.479-13.313
					c0-7.5,4.951-13.255,12.479-13.255c7.527,0,12.479,5.756,12.479,13.255C778.638,430.546,773.853,436.434,766.16,436.434
					 M766.16,414.721c-4.651,0-7.396,4.112-7.396,8.196c0,3.88,1.939,8.663,7.396,8.663c5.456,0,7.395-4.783,7.395-8.663
					C773.555,418.833,770.81,414.721,766.16,414.721"/>
				<polygon clip-path="url(#SVGID_10_)" fill="#FFFFFF" points="799.887,420.106 799.817,420.106 794.1,436.101 792.392,436.101 
					786.868,420.106 786.805,420.106 784.561,435.762 779.612,435.762 783.86,409.865 787.341,409.865 793.563,426.492 
					799.516,409.865 803.065,409.865 806.842,435.762 801.894,435.762 				"/>
				<path clip-path="url(#SVGID_10_)" fill="#FFFFFF" d="M809.02,410.538h6.125c4.685,0,7.562,1.839,7.562,6.859
					c0,1.805-0.636,3.878-2.208,4.883c2.979,0.538,4.314,3.546,4.314,6.327c0,4.952-3.479,7.156-8.063,7.156h-7.731V410.538z
					 M813.938,421.041h0.603c2.409,0,3.581-0.701,3.581-3.312c0-2.575-1.475-3.241-3.546-3.241h-0.637V421.041z M813.938,431.813
					h1.04c2.641,0,4.916-0.333,4.916-3.61c0-3.278-2.678-3.413-5.152-3.413h-0.803V431.813z"/>
				<rect x="827.522" y="410.538" clip-path="url(#SVGID_10_)" fill="#FFFFFF" width="4.92" height="25.231"/>
				<path clip-path="url(#SVGID_10_)" fill="#FFFFFF" d="M841.173,430.446l-2.074,5.316h-5.185l9.837-25.896h3.814l9.568,25.896
					h-5.254l-1.939-5.316H841.173z M845.426,417.261h-0.066l-2.778,9.171h5.992L845.426,417.261z"/>
				<polygon clip-path="url(#SVGID_10_)" fill="#FFFFFF" points="858.641,409.865 862.186,409.865 875.476,427.498 875.538,427.498 
					875.538,410.538 880.458,410.538 880.458,436.264 876.91,436.264 863.628,418.633 863.562,418.633 863.562,435.762 
					858.641,435.762 				"/>
				<path clip-path="url(#SVGID_10_)" fill="#FFFFFF" d="M889.192,430.446l-2.079,5.316h-5.183l9.835-25.896h3.815l9.569,25.896
					h-5.255l-1.94-5.316H889.192z M893.439,417.261h-0.067l-2.778,9.171h5.988L893.439,417.261z"/>
				<path clip-path="url(#SVGID_10_)" fill="#FFFFFF" d="M561.456,444.556h7.025c7.298,0,12.18,5.456,12.18,12.646
					c0,7.094-5.019,12.578-12.21,12.578h-6.995V444.556z M566.376,465.499h0.801c6.055,0,8.397-3.342,8.397-8.331
					c0-5.486-2.813-8.331-8.397-8.331h-0.801V465.499z"/>
				<polygon clip-path="url(#SVGID_10_)" fill="#FFFFFF" points="587.992,448.837 587.992,454.394 595.819,454.394 595.819,458.675 
					587.992,458.675 587.992,465.503 596.123,465.503 596.123,469.785 583.073,469.785 583.073,444.556 596.123,444.556 
					596.123,448.837 				"/>
				<path clip-path="url(#SVGID_10_)" fill="#FFFFFF" d="M608.935,444.556h4.918v14.119c0,3.108,0.269,7.495,4.451,7.495
					c4.18,0,4.451-4.386,4.451-7.495v-14.119h4.916v15.088c0,6.16-2.609,10.807-9.367,10.807c-6.759,0-9.37-4.647-9.37-10.807
					V444.556z"/>
				<polygon clip-path="url(#SVGID_10_)" fill="#FFFFFF" points="631.151,443.885 634.697,443.885 647.983,461.516 648.046,461.516 
					648.046,444.556 652.967,444.556 652.967,470.284 649.418,470.284 636.14,452.653 636.072,452.653 636.072,469.78 
					631.151,469.78 				"/>
				<rect x="656.547" y="444.551" clip-path="url(#SVGID_10_)" fill="#FFFFFF" width="4.921" height="25.229"/>
				<polygon clip-path="url(#SVGID_10_)" fill="#FFFFFF" points="674.114,461.55 674.181,461.55 679.8,444.556 685.087,444.556 
					675.286,470.451 672.406,470.451 662.772,444.556 668.059,444.556 				"/>
				<polygon clip-path="url(#SVGID_10_)" fill="#FFFFFF" points="691.344,448.837 691.344,454.394 699.177,454.394 699.177,458.675 
					691.344,458.675 691.344,465.503 699.476,465.503 699.476,469.785 686.425,469.785 686.425,444.556 699.476,444.556 
					699.476,448.837 				"/>
				<path clip-path="url(#SVGID_10_)" fill="#FFFFFF" d="M719.816,469.78h-5.953l-6.123-10.17h-0.067v10.17h-4.921v-25.224h6.659
					c4.988,0,8.433,2.208,8.433,7.593c0,3.213-1.773,6.427-5.152,6.993L719.816,469.78z M707.674,456.163h0.637
					c2.708,0,4.618-0.8,4.618-3.878c0-3.113-1.975-3.716-4.588-3.716h-0.667V456.163z"/>
				<path clip-path="url(#SVGID_10_)" fill="#FFFFFF" d="M733.305,450.111c-0.94-1.274-2.143-2.073-3.783-2.073
					c-1.571,0-3.079,1.198-3.079,2.845c0,4.247,10.004,2.472,10.004,10.936c0,5.058-3.143,8.633-8.298,8.633
					c-3.479,0-6.023-2.006-7.762-4.918l3.178-3.113c0.672,1.945,2.442,3.679,4.551,3.679c2.009,0,3.245-1.704,3.245-3.645
					c0-2.611-2.41-3.347-4.384-4.111c-3.245-1.342-5.619-2.98-5.619-6.895c0-4.183,3.11-7.559,7.36-7.559
					c2.243,0,5.352,1.1,6.893,2.804L733.305,450.111z"/>
				<rect x="739.024" y="444.551" clip-path="url(#SVGID_10_)" fill="#FFFFFF" width="4.921" height="25.229"/>
				<path clip-path="url(#SVGID_10_)" fill="#FFFFFF" d="M747.524,444.556h7.024c7.298,0,12.178,5.456,12.178,12.646
					c0,7.094-5.018,12.578-12.21,12.578h-6.992V444.556z M752.443,465.499h0.8c6.058,0,8.4-3.342,8.4-8.331
					c0-5.486-2.813-8.331-8.4-8.331h-0.8V465.499z"/>
				<path clip-path="url(#SVGID_10_)" fill="#FFFFFF" d="M774.291,464.463l-2.074,5.316h-5.187l9.837-25.895h3.815l9.569,25.895
					h-5.255l-1.937-5.316H774.291z M778.541,451.279h-0.067l-2.778,9.172h5.99L778.541,451.279z"/>
				<path clip-path="url(#SVGID_10_)" fill="#FFFFFF" d="M791.757,444.556h7.025c7.299,0,12.178,5.456,12.178,12.646
					c0,7.094-5.019,12.578-12.21,12.578h-6.993V444.556z M796.677,465.499h0.8c6.058,0,8.4-3.342,8.4-8.331
					c0-5.486-2.813-8.331-8.4-8.331h-0.8V465.499z"/>
				<polygon clip-path="url(#SVGID_10_)" fill="#FFFFFF" points="818.291,448.837 818.291,454.394 826.121,454.394 826.121,458.675 
					818.291,458.675 818.291,465.503 826.422,465.503 826.422,469.785 813.372,469.785 813.372,444.556 826.422,444.556 
					826.422,448.837 				"/>
				<path clip-path="url(#SVGID_10_)" fill="#FFFFFF" d="M841.579,450.111c-0.938-1.274-2.141-2.073-3.782-2.073
					c-1.572,0-3.078,1.198-3.078,2.845c0,4.247,10.006,2.472,10.006,10.936c0,5.058-3.146,8.633-8.3,8.633
					c-3.477,0-6.023-2.006-7.761-4.918l3.181-3.113c0.671,1.945,2.441,3.679,4.548,3.679c2.009,0,3.245-1.704,3.245-3.645
					c0-2.611-2.407-3.347-4.382-4.111c-3.245-1.342-5.62-2.98-5.62-6.895c0-4.183,3.109-7.559,7.361-7.559
					c2.241,0,5.352,1.1,6.893,2.804L841.579,450.111z"/>
				<path clip-path="url(#SVGID_10_)" fill="#FFFFFF" d="M492.86,430.446l-2.074,5.316h-5.185l9.835-25.896h3.814l9.572,25.896
					h-5.257l-1.938-5.316H492.86z M497.112,417.261h-0.067l-2.777,9.171h5.99L497.112,417.261z"/>
			</g>
		</g>
	</g>
</g>
</svg>
