<?xml version="1.0" encoding="utf-8"?>
<!-- Generator: Adobe Illustrator 16.0.3, SVG Export Plug-In . SVG Version: 6.00 Build 0)  -->
<!DOCTYPE svg PUBLIC "-//W3C//DTD SVG 1.1//EN" "http://www.w3.org/Graphics/SVG/1.1/DTD/svg11.dtd">
<svg version="1.1" id="Capa_1" xmlns="http://www.w3.org/2000/svg" xmlns:xlink="http://www.w3.org/1999/xlink" x="0px" y="0px"
	 width="322px" height="42px" viewBox="0 0 322 42" enable-background="new 0 0 322 42" xml:space="preserve">
<g>
	<path fill-rule="evenodd" clip-rule="evenodd" fill="#ECF3D1" d="M41.146,22.265c0.024-0.002,0.047-0.003,0.071-0.006
		c0,0.53,0,1.061,0,1.591c-0.038,0.043-0.077,0.086-0.115,0.129c-0.066-0.047-0.097-0.12-0.088-0.192
		c0.056-0.449,0.026-0.901,0.056-1.353C41.073,22.37,41.097,22.311,41.146,22.265z"/>
	<path fill-rule="evenodd" clip-rule="evenodd" fill="#90C94E" d="M26.535,19.921c0.002-1.809-0.197-3.592-0.727-5.327
		c-0.241-0.789-0.564-1.543-1.136-2.17c-0.417-0.457-0.367-1.075,0.076-1.468c0.402-0.355,1.016-0.31,1.421,0.126
		c0.769,0.832,1.229,1.835,1.556,2.903c0.498,1.627,0.722,3.295,0.797,4.996c0.092,2.076-0.068,4.124-0.555,6.139
		c-0.275,1.143-0.662,2.253-1.363,3.22c-0.46,0.635-1.009,1.154-1.804,1.362c-0.54,0.141-1.048,0.028-1.559-0.12
		c-1.293-0.373-2.262-1.197-3.079-2.227c-0.115-0.144-0.187-0.172-0.354-0.072c-1.269,0.757-2.629,1.033-4.081,0.681
		c-1.156-0.281-2.128-0.897-2.96-1.739c-1.259-1.271-2.015-2.819-2.479-4.529c-0.411-1.516-0.57-3.053-0.438-4.621
		c0.151-1.801,0.603-3.515,1.473-5.108c0.232-0.425,0.621-0.652,1.03-0.586c0.447,0.071,0.773,0.407,0.853,0.861
		c0.045,0.262-0.069,0.476-0.187,0.688c-0.646,1.161-1.018,2.414-1.169,3.723c-0.134,1.159-0.12,2.32,0.085,3.48
		c0.263,1.488,0.759,2.872,1.666,4.092c0.618,0.831,1.381,1.485,2.391,1.786c1.01,0.303,1.963,0.139,2.853-0.424
		c0.153-0.098,0.107-0.193,0.046-0.32c-0.476-0.996-0.808-2.045-1.055-3.115c-0.379-1.639-0.486-3.306-0.425-4.984
		c0.015-0.413,0.004-0.826,0.072-1.236c0.092-0.548,0.508-0.896,1.04-0.859c0.515,0.035,0.906,0.457,0.882,1.008
		c-0.032,0.698-0.083,1.395-0.073,2.095c0.036,2.246,0.431,4.416,1.414,6.45c0.528,1.094,1.213,2.075,2.263,2.753
		c0.372,0.24,0.777,0.322,1.201,0.348c0.359,0.021,0.541-0.259,0.718-0.502c0.506-0.693,0.788-1.492,1.01-2.31
		C26.384,23.28,26.533,21.609,26.535,19.921z"/>
	<path fill-rule="evenodd" clip-rule="evenodd" fill="#91C94E" d="M41.146,22.265c0.007,0.572,0.005,1.144-0.044,1.714
		c-0.192,1.834-0.842,3.497-1.884,5.013c-0.179,0.261-0.347,0.532-0.596,0.733c-0.132,0.108-0.079,0.229-0.046,0.348
		c0.265,0.987,0.02,1.853-0.692,2.558c-0.745,0.737-1.651,0.926-2.663,0.63c-0.353-0.104-0.64-0.31-0.935-0.51
		c-0.425-0.245-0.656-0.623-0.756-1.092c-0.119-0.585-0.176-1.164,0.019-1.749c0.461-1.393,2.042-2.153,3.411-1.612
		c0.232,0.094,0.325,0.038,0.461-0.145c0.958-1.277,1.559-2.706,1.733-4.29c0.182-1.646-0.07-3.213-1.132-4.557
		c-0.571-0.722-1.346-1.145-2.231-1.362c-1.929-0.472-3.268-1.653-4.094-3.428c-0.681-1.464-0.867-3.005-0.672-4.61
		c0.312-2.554,1.404-4.708,3.222-6.508c0.254-0.252,0.541-0.451,0.925-0.402c0.39,0.05,0.694,0.256,0.811,0.623
		c0.121,0.376,0.074,0.759-0.245,1.053c-0.72,0.665-1.311,1.432-1.776,2.293c-0.838,1.549-1.224,3.204-1,4.955
		c0.207,1.606,0.863,2.976,2.368,3.795c0.488,0.266,1.035,0.362,1.555,0.534c1.385,0.46,2.43,1.346,3.176,2.579
		c0.609,1.007,0.962,2.107,1.048,3.287C41.111,22.164,41.132,22.215,41.146,22.265z"/>
	<path fill-rule="evenodd" clip-rule="evenodd" fill="#1B499D" d="M33.53,31.658c0.19,0.406,0.441,0.771,0.756,1.092
		c-0.699,0.775-1.595,1.205-2.584,1.465c-1.892,0.498-3.803,0.424-5.701,0.097c-5.262-0.907-9.955-3.085-14.076-6.474
		c-1.479-1.218-2.771-2.619-3.66-4.344c-0.246-0.477-0.025-0.963,0.454-1.007c0.271-0.025,0.488,0.089,0.613,0.316
		c1.9,3.433,4.993,5.521,8.32,7.318c2.516,1.358,5.184,2.33,8.005,2.846c1.664,0.304,3.338,0.458,5.02,0.167
		C31.778,32.943,32.822,32.62,33.53,31.658z"/>
	<path fill-rule="evenodd" clip-rule="evenodd" fill="#1B489D" d="M31.787,24.241c-0.002,1.761-0.135,4.211-0.8,6.601
		c-0.11,0.396-0.239,0.789-0.403,1.167c-0.167,0.388-0.512,0.551-0.842,0.418c-0.351-0.143-0.496-0.504-0.337-0.9
		c0.625-1.561,0.856-3.203,0.998-4.861c0.215-2.523,0.115-5.039-0.201-7.546c-0.289-2.293-0.747-4.549-1.639-6.696
		c-0.183-0.439-0.391-0.867-0.645-1.271c-0.25-0.396-0.535-0.758-0.922-1.036c-0.354-0.254-0.429-0.611-0.223-0.907
		c0.216-0.31,0.592-0.366,0.949-0.128c0.779,0.516,1.254,1.279,1.66,2.089c0.819,1.64,1.294,3.393,1.657,5.18
		C31.521,18.721,31.745,21.121,31.787,24.241z"/>
	<path fill-rule="evenodd" clip-rule="evenodd" fill="#1B489D" d="M22.718,40.338c-0.346-0.001-0.693-0.002-1.041-0.002
		c-1.836-0.162-3.265-1.036-4.309-2.529c-0.628-0.897-1.003-1.903-1.104-3.004c-0.041-0.444,0.167-0.771,0.546-0.82
		c0.35-0.048,0.651,0.218,0.707,0.658c0.124,1.009,0.467,1.929,1.11,2.722c1.331,1.648,3.505,2.188,5.47,1.363
		c1.429-0.601,2.46-1.617,3.134-3.005c0.069-0.144,0.131-0.292,0.216-0.425c0.19-0.296,0.518-0.396,0.795-0.257
		c0.326,0.164,0.458,0.487,0.318,0.827c-0.55,1.334-1.396,2.438-2.582,3.268C24.999,39.819,23.926,40.264,22.718,40.338z"/>
	<path fill-rule="evenodd" clip-rule="evenodd" fill="#1B489D" d="M23.641,9.288c-1.457,0.001-2.657-1.197-2.646-2.646
		c0.009-1.438,1.196-2.623,2.633-2.629c1.438-0.007,2.633,1.176,2.644,2.618C26.281,8.091,25.098,9.287,23.641,9.288z"/>
	<path fill-rule="evenodd" clip-rule="evenodd" fill="#FEFEFE" d="M37.399,30.752c0.003,0.763-0.599,1.367-1.358,1.367
		c-0.739-0.001-1.353-0.606-1.364-1.336c-0.014-0.904,0.785-1.386,1.343-1.391C36.767,29.387,37.397,30.009,37.399,30.752z"/>
	<path fill-rule="evenodd" clip-rule="evenodd" fill="#FEFEFE" d="M23.63,8.01c-0.744-0.001-1.357-0.612-1.36-1.353
		c-0.004-0.73,0.627-1.368,1.355-1.37c0.757-0.001,1.374,0.621,1.367,1.38C24.986,7.417,24.383,8.012,23.63,8.01z"/>
</g>
<g>
	<g>
		<path fill="#90C94E" d="M40.677,15.725l0.364-5.733l0.836-0.048l-0.384,5.088h0.073l0.937-2.282l0.283,1.095h-0.618l0.509-0.404
			l-0.92,2.285H40.677z M42.515,15.725l0.121-2.039h-0.367l0.21-2.241l0.775-0.049l-0.226,3.635h0.073
			c0.194-0.447,0.391-0.932,0.592-1.456c0.2-0.524,0.381-1.085,0.542-1.684s0.283-1.232,0.364-1.9h0.864
			c-0.07,0.568-0.17,1.117-0.299,1.646c-0.129,0.529-0.28,1.035-0.452,1.519c-0.173,0.483-0.359,0.939-0.56,1.368
			c-0.201,0.43-0.407,0.83-0.62,1.201H42.515z"/>
		<path fill="#90C94E" d="M47.421,15.039c0.215,0,0.445-0.034,0.69-0.101c0.245-0.067,0.48-0.161,0.706-0.282l0.279,0.691
			c-0.264,0.145-0.546,0.258-0.848,0.338c-0.301,0.081-0.589,0.121-0.864,0.121c-0.554,0-0.987-0.145-1.297-0.436
			c-0.312-0.291-0.466-0.696-0.466-1.215c0-0.56,0.105-1.048,0.317-1.465c0.211-0.417,0.506-0.743,0.885-0.976
			c0.38-0.233,0.823-0.349,1.329-0.349c0.398,0,0.708,0.1,0.93,0.298c0.223,0.199,0.333,0.476,0.333,0.832
			c0,0.528-0.27,0.944-0.809,1.248c-0.54,0.305-1.293,0.466-2.259,0.485l-0.085-0.646c0.722-0.011,1.284-0.106,1.687-0.287
			c0.402-0.18,0.604-0.429,0.604-0.747c0-0.129-0.044-0.23-0.134-0.305c-0.088-0.074-0.215-0.111-0.379-0.111
			c-0.321,0-0.602,0.083-0.846,0.246c-0.244,0.165-0.434,0.395-0.569,0.691c-0.137,0.296-0.206,0.642-0.208,1.038
			c0.003,0.293,0.093,0.522,0.271,0.687C46.863,14.957,47.108,15.039,47.421,15.039z"/>
		<path fill="#90C94E" d="M50.785,9.584c0.468,0,0.79,0.113,0.965,0.339c0.175,0.226,0.216,0.589,0.125,1.09l-0.827,4.711
			l-0.869-0.004l0.844-4.789c0.038-0.207,0.027-0.358-0.032-0.452s-0.171-0.142-0.335-0.142c-0.067,0-0.134,0.004-0.2,0.01
			c-0.066,0.007-0.133,0.019-0.199,0.035l-0.085-0.735c0.102-0.024,0.204-0.041,0.307-0.05C50.58,9.589,50.682,9.584,50.785,9.584z
			 M51.35,15.806c-0.197,0-0.392-0.007-0.586-0.022s-0.389-0.036-0.585-0.063l0.404-0.783c0.175,0.067,0.46,0.101,0.856,0.101
			c0.304,0,0.586-0.056,0.846-0.168c0.26-0.111,0.486-0.267,0.68-0.468c0.194-0.2,0.344-0.435,0.453-0.705
			c0.107-0.269,0.162-0.563,0.162-0.88c0-0.218-0.05-0.387-0.15-0.507c-0.099-0.119-0.241-0.18-0.424-0.18
			c-0.223,0-0.448,0.07-0.674,0.21c-0.226,0.14-0.429,0.359-0.609,0.658c-0.181,0.299-0.314,0.685-0.4,1.159l0.157-1.741h0.352
			l-0.21,0.307c0.095-0.434,0.291-0.768,0.59-1.005c0.298-0.237,0.671-0.355,1.119-0.355c0.353,0,0.626,0.112,0.821,0.336
			c0.195,0.225,0.292,0.543,0.292,0.955c0,0.45-0.077,0.866-0.232,1.248c-0.155,0.383-0.373,0.716-0.652,1.002
			c-0.28,0.285-0.608,0.507-0.983,0.664C52.2,15.728,51.791,15.806,51.35,15.806z"/>
	</g>
	<g>
		<path fill="#1B489D" d="M44.134,23.867l0.134-0.767h3.484l-0.134,0.767H44.134z M45.01,18.901l0.133-0.768h3.485l-0.133,0.768
			H45.01z M45.458,23.867l1.009-5.733h0.84l-1.009,5.733H45.458z"/>
		<path fill="#1B489D" d="M48.979,23.867l0.755-4.28h0.714l-0.028,1.021l-0.574,3.258H48.979z M51.596,23.867l0.497-2.846
			c0.042-0.248,0.024-0.435-0.055-0.559c-0.08-0.125-0.221-0.188-0.426-0.188c-0.218,0-0.42,0.063-0.606,0.19
			c-0.186,0.126-0.353,0.337-0.502,0.632c-0.149,0.294-0.276,0.692-0.381,1.197l0.202-1.732h0.178
			c0.086-0.336,0.257-0.596,0.513-0.779s0.563-0.274,0.92-0.274c0.434,0,0.736,0.129,0.907,0.389c0.17,0.26,0.209,0.645,0.119,1.157
			l-0.497,2.814H51.596z"/>
		<path fill="#1B489D" d="M53.295,25.777l-0.037-0.768l0.295-0.031c0.345-0.038,0.624-0.132,0.84-0.279
			c0.215-0.147,0.378-0.354,0.491-0.622c0.111-0.267,0.182-0.595,0.211-0.984l0.299-2.738c0.048-0.6,0.17-1.094,0.362-1.48
			s0.477-0.674,0.855-0.862c0.378-0.188,0.868-0.283,1.469-0.283c0.234,0,0.457,0.027,0.669,0.081l-0.218,0.743
			c-0.124-0.022-0.234-0.037-0.329-0.044s-0.189-0.012-0.281-0.012c-0.549,0-0.948,0.147-1.197,0.442
			c-0.249,0.294-0.4,0.753-0.455,1.375l-0.326,2.899c-0.043,0.515-0.151,0.949-0.324,1.304c-0.172,0.355-0.424,0.635-0.754,0.837
			c-0.331,0.202-0.759,0.332-1.285,0.392L53.295,25.777z M53.877,21.283l0.133-0.751h3.958l-0.134,0.751H53.877z"/>
		<path fill="#1B489D" d="M60.395,23.948c-0.478,0-0.849-0.137-1.118-0.41c-0.267-0.272-0.401-0.652-0.401-1.141
			c0-0.91,0.203-1.619,0.609-2.128c0.406-0.508,0.971-0.762,1.692-0.762c0.476,0,0.849,0.139,1.117,0.419
			c0.268,0.28,0.401,0.67,0.401,1.17c0,0.897-0.202,1.596-0.606,2.098C61.683,23.697,61.119,23.948,60.395,23.948z M60.543,23.186
			c0.404,0,0.719-0.169,0.947-0.508c0.228-0.338,0.341-0.806,0.341-1.407c0-0.312-0.067-0.556-0.202-0.732
			c-0.135-0.177-0.324-0.265-0.57-0.265c-0.415,0-0.738,0.168-0.97,0.504c-0.234,0.337-0.35,0.805-0.35,1.404
			c0,0.316,0.071,0.562,0.212,0.737C60.094,23.098,60.291,23.186,60.543,23.186z"/>
		<path fill="#1B489D" d="M63.151,23.867l0.134-0.752h2.858l-0.133,0.752H63.151z M64.108,23.867l0.538-3.016
			c0.037-0.207,0.026-0.358-0.033-0.452c-0.059-0.094-0.171-0.142-0.335-0.142c-0.227,0-0.444,0.031-0.654,0.093l-0.085-0.735
			c0.122-0.038,0.255-0.066,0.4-0.084c0.145-0.02,0.301-0.029,0.468-0.029c0.469,0,0.791,0.113,0.966,0.339
			c0.175,0.227,0.217,0.59,0.128,1.091l-0.524,2.935H64.108z M65.255,22.293l0.202-1.732h0.177c0.08-0.336,0.231-0.596,0.457-0.779
			c0.227-0.183,0.498-0.274,0.816-0.274c0.431,0,0.743,0.135,0.935,0.405c0.193,0.271,0.25,0.651,0.172,1.141h-0.868
			c0.035-0.264,0.013-0.459-0.065-0.587c-0.078-0.128-0.217-0.192-0.416-0.192c-0.204,0-0.395,0.063-0.571,0.19
			c-0.177,0.126-0.336,0.337-0.477,0.632C65.475,21.391,65.355,21.789,65.255,22.293z"/>
		<path fill="#1B489D" d="M69.616,19.587l-0.052,1.103l-0.562,3.177h-0.868l0.754-4.28H69.616z M69.741,23.867l0.59-3.343
			c0.04-0.221-0.029-0.331-0.21-0.331c-0.167,0-0.315,0.145-0.444,0.436c-0.129,0.291-0.236,0.701-0.319,1.231l0.096-1.623h0.207
			c0.067-0.264,0.17-0.452,0.309-0.564c0.139-0.111,0.306-0.167,0.502-0.167c0.251,0,0.427,0.089,0.527,0.27
			c0.101,0.181,0.117,0.467,0.046,0.86l-0.577,3.23H69.741z M72.645,20.637l-0.569,3.23h-0.868l0.589-3.343
			c0.019-0.105,0.011-0.187-0.02-0.245c-0.033-0.058-0.091-0.086-0.178-0.086c-0.177,0-0.33,0.145-0.458,0.436
			c-0.127,0.291-0.232,0.701-0.313,1.231l0.056-1.623h0.271c0.072-0.267,0.185-0.455,0.337-0.565
			c0.152-0.111,0.336-0.166,0.551-0.166C72.576,19.507,72.777,19.883,72.645,20.637z"/>
		<path fill="#1B489D" d="M74.304,23.952c-0.366,0-0.648-0.104-0.848-0.315c-0.199-0.209-0.298-0.505-0.298-0.888
			c0-0.485,0.103-0.924,0.309-1.319c0.206-0.394,0.494-0.731,0.867-1.011c0.371-0.28,0.805-0.495,1.303-0.646
			s1.04-0.226,1.623-0.226h0.081l-0.533,3.04c-0.038,0.217-0.021,0.372,0.05,0.469c0.072,0.097,0.227,0.146,0.463,0.146h0.165
			l-0.121,0.707h-0.287c-0.208,0-0.38-0.021-0.52-0.063c-0.138-0.042-0.246-0.107-0.322-0.198c-0.077-0.09-0.126-0.209-0.147-0.357
			c-0.021-0.148-0.019-0.328,0.008-0.541l0.235,0.105h-0.469l0.214-0.234c-0.148,0.423-0.376,0.75-0.686,0.983
			C75.081,23.836,74.719,23.952,74.304,23.952z M74.567,23.186c0.387,0,0.725-0.176,1.014-0.525c0.288-0.35,0.49-0.845,0.604-1.486
			l0.21-1.17l0.326,0.311c-0.375,0.016-0.728,0.086-1.055,0.21c-0.327,0.124-0.613,0.29-0.859,0.499
			c-0.247,0.209-0.439,0.451-0.578,0.727c-0.139,0.275-0.208,0.574-0.208,0.897c0,0.173,0.049,0.305,0.145,0.397
			C74.259,23.138,74.394,23.186,74.567,23.186z"/>
		<path fill="#1B489D" d="M78.278,20.338l0.133-0.75h3.771l-0.134,0.75H78.278z M80.37,23.948c-0.496,0-0.86-0.105-1.093-0.316
			c-0.234-0.212-0.349-0.541-0.349-0.988c0-0.112,0.005-0.222,0.016-0.325s0.027-0.219,0.05-0.349
			c0.023-0.129,0.05-0.288,0.083-0.477l0.562-3.197h0.868l-0.561,3.197c-0.046,0.269-0.084,0.477-0.111,0.622
			c-0.028,0.146-0.043,0.295-0.043,0.447c0,0.214,0.061,0.369,0.179,0.469c0.119,0.101,0.303,0.15,0.557,0.15
			c0.197,0,0.37-0.018,0.517-0.049c0.148-0.032,0.324-0.09,0.529-0.174l0.158,0.691c-0.193,0.083-0.399,0.153-0.616,0.211
			C80.897,23.919,80.648,23.948,80.37,23.948z"/>
		<path fill="#1B489D" d="M86.495,22.959l0.278,0.649c-0.164,0.096-0.337,0.175-0.521,0.241c-0.184,0.066-0.393,0.099-0.63,0.099
			c-0.488,0-0.85-0.114-1.086-0.343s-0.341-0.564-0.315-1.006c0.013-0.202,0.054-0.398,0.119-0.59
			c0.067-0.191,0.138-0.376,0.214-0.557c0.077-0.18,0.136-0.354,0.176-0.521c0.057-0.224,0.033-0.392-0.071-0.505
			s-0.284-0.169-0.54-0.169c-0.255,0-0.5,0.031-0.739,0.093l-0.084-0.735c0.159-0.046,0.318-0.076,0.476-0.091
			c0.159-0.015,0.318-0.022,0.477-0.022c0.557,0,0.949,0.127,1.175,0.382c0.227,0.255,0.278,0.63,0.159,1.128
			c-0.047,0.191-0.106,0.37-0.181,0.535c-0.074,0.166-0.143,0.33-0.204,0.491c-0.062,0.162-0.099,0.337-0.113,0.524
			c-0.028,0.412,0.202,0.619,0.695,0.619c0.134,0,0.252-0.018,0.353-0.051C86.234,23.098,86.354,23.04,86.495,22.959z
			 M85.546,18.909c-0.164,0-0.305-0.059-0.423-0.176c-0.116-0.118-0.175-0.258-0.175-0.422c0-0.167,0.06-0.308,0.175-0.423
			c0.118-0.116,0.259-0.173,0.423-0.173c0.167,0,0.307,0.058,0.423,0.173c0.116,0.116,0.173,0.257,0.173,0.423
			c0,0.165-0.058,0.305-0.173,0.422C85.853,18.85,85.712,18.909,85.546,18.909z"/>
		<path fill="#1B489D" d="M89.466,23.948c-0.476,0-0.849-0.137-1.117-0.41c-0.269-0.272-0.402-0.652-0.402-1.141
			c0-0.91,0.203-1.619,0.609-2.128c0.407-0.508,0.97-0.762,1.692-0.762c0.477,0,0.849,0.139,1.117,0.419
			c0.268,0.28,0.402,0.67,0.402,1.17c0,0.897-0.203,1.596-0.607,2.098C90.754,23.697,90.189,23.948,89.466,23.948z M89.615,23.186
			c0.404,0,0.72-0.169,0.947-0.508c0.229-0.338,0.342-0.806,0.342-1.407c0-0.312-0.068-0.556-0.202-0.732
			c-0.135-0.177-0.324-0.265-0.569-0.265c-0.415,0-0.739,0.168-0.971,0.504c-0.233,0.337-0.35,0.805-0.35,1.404
			c0,0.316,0.071,0.562,0.212,0.737C89.165,23.098,89.362,23.186,89.615,23.186z"/>
		<path fill="#1B489D" d="M92.587,23.867l0.755-4.28h0.716l-0.028,1.021l-0.574,3.258H92.587z M95.203,23.867l0.497-2.846
			c0.042-0.248,0.024-0.435-0.055-0.559c-0.08-0.125-0.222-0.188-0.425-0.188c-0.219,0-0.419,0.063-0.605,0.19
			c-0.186,0.126-0.354,0.337-0.503,0.632c-0.149,0.294-0.276,0.692-0.381,1.197l0.202-1.732h0.178
			c0.085-0.336,0.256-0.596,0.512-0.779c0.255-0.183,0.562-0.274,0.92-0.274c0.434,0,0.735,0.129,0.906,0.389
			c0.171,0.26,0.211,0.645,0.12,1.157l-0.497,2.814H95.203z"/>
	</g>
	<g>
		<path fill="#90C94E" d="M49.515,32.312c-0.698,0-1.287-0.117-1.769-0.354l0.251-0.734c0.551,0.231,1.083,0.347,1.595,0.347
			c0.406,0,0.714-0.063,0.925-0.19c0.21-0.125,0.314-0.312,0.314-0.558c0-0.149-0.029-0.28-0.088-0.393
			c-0.06-0.111-0.156-0.222-0.291-0.328l-1.155-0.938c-0.207-0.17-0.358-0.365-0.454-0.587c-0.096-0.223-0.143-0.439-0.143-0.652
			c0-0.496,0.157-0.871,0.47-1.125s0.769-0.382,1.367-0.382c0.746,0,1.335,0.228,1.769,0.683l-0.585,0.613
			c-0.197-0.183-0.398-0.32-0.605-0.413c-0.208-0.094-0.416-0.14-0.626-0.14c-0.295,0-0.524,0.059-0.684,0.176
			s-0.241,0.29-0.241,0.52c0,0.12,0.033,0.252,0.097,0.396c0.065,0.143,0.168,0.271,0.311,0.387l0.994,0.801
			c0.255,0.206,0.441,0.409,0.557,0.607c0.116,0.197,0.174,0.425,0.174,0.684c0,0.521-0.185,0.914-0.553,1.182
			C50.772,32.179,50.231,32.312,49.515,32.312z"/>
		<path fill="#90C94E" d="M52.41,34.138l-0.359-0.707c0.613-0.267,1.154-0.572,1.621-0.918c0.468-0.346,0.871-0.74,1.208-1.182
			c0.338-0.441,0.617-0.941,0.837-1.5c0.221-0.559,0.392-1.185,0.513-1.879h0.864c-0.202,1.047-0.5,1.96-0.894,2.739
			c-0.392,0.78-0.898,1.449-1.519,2.009S53.303,33.74,52.41,34.138z M53.706,27.871c0.396,1.615,0.919,2.839,1.567,3.67
			l-0.747,0.485c-0.337-0.51-0.647-1.102-0.931-1.777c-0.284-0.675-0.544-1.44-0.781-2.297L53.706,27.871z"/>
		<path fill="#90C94E" d="M59.225,32.312c-0.349,0-0.672-0.021-0.965-0.063c-0.293-0.043-0.533-0.103-0.718-0.178l0.234-0.775
			c0.311,0.078,0.605,0.14,0.881,0.185c0.276,0.044,0.512,0.065,0.706,0.065c0.352,0,0.626-0.046,0.821-0.14
			c0.195-0.093,0.293-0.224,0.293-0.393c0-0.084-0.034-0.162-0.099-0.232c-0.067-0.071-0.16-0.127-0.285-0.168l-1.211-0.407
			c-0.267-0.089-0.472-0.214-0.614-0.375c-0.142-0.162-0.214-0.344-0.214-0.547c0-0.448,0.19-0.797,0.571-1.043
			c0.38-0.246,0.919-0.369,1.618-0.369c0.244,0,0.495,0.011,0.752,0.032c0.257,0.022,0.498,0.051,0.725,0.089l-0.219,0.742
			c-0.253-0.029-0.5-0.053-0.741-0.07c-0.24-0.018-0.454-0.026-0.64-0.026c-0.381,0-0.677,0.049-0.886,0.146
			c-0.208,0.1-0.313,0.238-0.313,0.419c0,0.065,0.026,0.124,0.076,0.176c0.052,0.053,0.127,0.094,0.227,0.123l1.231,0.392
			c0.286,0.093,0.504,0.228,0.657,0.406c0.152,0.179,0.227,0.384,0.227,0.615c0,0.444-0.184,0.788-0.553,1.032
			C60.419,32.19,59.898,32.312,59.225,32.312z"/>
		<path fill="#90C94E" d="M62.617,28.702l0.133-0.75h3.771l-0.133,0.75H62.617z M64.709,32.312c-0.496,0-0.86-0.105-1.092-0.316
			c-0.234-0.211-0.35-0.54-0.35-0.987c0-0.112,0.006-0.221,0.016-0.324c0.011-0.104,0.027-0.22,0.051-0.35
			c0.023-0.129,0.05-0.288,0.083-0.477l0.561-3.197h0.869l-0.562,3.197c-0.046,0.27-0.083,0.477-0.111,0.622
			s-0.043,0.294-0.043,0.448c0,0.213,0.06,0.368,0.178,0.469c0.119,0.099,0.304,0.148,0.557,0.148c0.197,0,0.37-0.016,0.517-0.048
			c0.148-0.033,0.324-0.091,0.53-0.175l0.157,0.691c-0.193,0.083-0.399,0.154-0.616,0.213
			C65.236,32.283,64.988,32.312,64.709,32.312z"/>
		<path fill="#90C94E" d="M69.303,31.545c0.216,0,0.446-0.034,0.69-0.1c0.245-0.068,0.481-0.162,0.707-0.283l0.278,0.689
			c-0.264,0.146-0.546,0.26-0.848,0.34c-0.302,0.081-0.589,0.12-0.864,0.12c-0.555,0-0.988-0.145-1.299-0.436
			c-0.311-0.29-0.466-0.696-0.466-1.216c0-0.559,0.105-1.048,0.317-1.465c0.21-0.417,0.506-0.742,0.886-0.976
			c0.38-0.232,0.823-0.349,1.328-0.349c0.399,0,0.709,0.099,0.931,0.299c0.222,0.199,0.333,0.477,0.333,0.831
			c0,0.528-0.27,0.943-0.809,1.248c-0.541,0.305-1.293,0.466-2.26,0.484l-0.084-0.646c0.721-0.011,1.283-0.106,1.686-0.287
			c0.402-0.18,0.604-0.43,0.604-0.747c0-0.129-0.044-0.23-0.133-0.305c-0.088-0.074-0.215-0.111-0.379-0.111
			c-0.321,0-0.603,0.083-0.847,0.247c-0.244,0.164-0.433,0.395-0.569,0.69s-0.206,0.641-0.208,1.037
			c0.002,0.293,0.092,0.522,0.271,0.687C68.746,31.463,68.991,31.545,69.303,31.545z"/>
		<path fill="#90C94E" d="M73.338,27.952l-0.053,1.102l-0.561,3.178h-0.869l0.755-4.279H73.338z M73.463,32.231l0.588-3.342
			c0.041-0.222-0.029-0.332-0.209-0.332c-0.167,0-0.315,0.145-0.445,0.436c-0.128,0.29-0.235,0.701-0.318,1.231l0.097-1.622h0.206
			c0.067-0.265,0.169-0.452,0.308-0.563c0.139-0.112,0.307-0.168,0.503-0.168c0.251,0,0.426,0.09,0.527,0.271
			c0.1,0.18,0.116,0.467,0.046,0.859l-0.577,3.23H73.463z M76.365,29.001l-0.569,3.23h-0.868l0.59-3.342
			c0.019-0.106,0.011-0.188-0.021-0.245c-0.032-0.058-0.091-0.087-0.177-0.087c-0.178,0-0.331,0.145-0.458,0.436
			c-0.128,0.29-0.232,0.701-0.313,1.231l0.056-1.622h0.271c0.074-0.267,0.185-0.455,0.339-0.565c0.151-0.11,0.334-0.166,0.55-0.166
			C76.297,27.871,76.498,28.248,76.365,29.001z"/>
	</g>
</g>
</svg>
