<svg id="Capa_1" data-name="Capa 1" xmlns="http://www.w3.org/2000/svg" viewBox="0 0 484.71 392.12"><title>logo-imperio-MAX</title><path d="M101.52,103.42c20.05,5,36.14,9.85,52.57,12.76,6.29,1.11,7.18,2.14,8.56,8.42,2.51,11.43,8.12,23.54,21.11,25.67,12.15,2,25,1.29,34-10.54,7-9.2,8.77-19.29,4.17-29.08-3.77-8-3-13.37,1.66-20.61,10.11-15.62,18.91-32.09,29-49.47,9.72,17.8,17.61,33.72,26.94,48.74,5.09,8.19,5.28,15.38,1.81,23.71-6.76,16.28,5.07,33,19.18,37.37,15.92,5,39.26-7.13,40.09-21.9,0.55-9.87,3.18-12.42,11.94-13.14s16.79-4.24,25.62-5.13c7.88-.8,15.47-4.52,24.31-7.29-16.7,34.69-32.77,67.55-48.23,100.7-3,6.49-5.4,6.88-10.9,3.26-17.53-11.55-37.66-14-57.94-16.62a251.34,251.34,0,0,0-62.24-.35c-22.43,2.68-44.42,4.91-63.87,17.41-6.72,4.32-7.53-1.42-9.36-5.13C134.21,170.22,118.56,138.2,101.52,103.42Z" transform="translate(-9.86 -40.57)"/><g id="Império"><path d="M43.1,247h3.26v2.28q0,12.87-.16,22.65t-0.33,16.29q-0.65,26.4-.65,40.08,0,17.76,1,34.7-2.61,2.6-11.89,2.61L27,365.44q-2.44-.16-6.84-0.16a30.09,30.09,0,0,0-7,.81l0.16-3.91a13.86,13.86,0,0,0-3.42.65Q11,346.05,11,332.2q0-9.29-.16-16.37t-0.33-11.65Q9.86,285.6,9.86,276q0-16,1.63-32.75a28.23,28.23,0,0,1,2.93-.33q4.56,0,9.45.33a78.52,78.52,0,0,0,9.78.49H43.1V247Zm-22-2.12q-4.89-.32-7.49-0.33H13v0.33a284.39,284.39,0,0,0-1.47,31q0,9.45.16,16.45T12,304q0.65,19.23.65,29.16,0,13.69-1,27.37a27.22,27.22,0,0,1,3.75-.33q2,0,7.17.33,5.86,0.33,9.12.33,7.82,0,9.61-1.79-1-17.6-1-35.52,0-13.36.65-39.1,0.16-6.51.33-16.13T41.47,246v-0.65H33.81Q29.91,245.36,21.11,244.87Z" transform="translate(-9.86 -40.57)"/><path d="M116.42,364.46l-7.82.16q-2.28.16-6.52,0.16a26.26,26.26,0,0,1-.16-3.42l-3.1.16q-0.49-8.8-.49-29.16l-0.33-20q-0.49,1.3-1.87,5.21a25.5,25.5,0,0,1-2.69,5.78q-1.31,1.88-2.44,1.87-1.31,0-3.26-3.26-2.44-.16-5.86-8.31-0.16,3.91-.16,11.4,0,14.34,1.63,39.1a89.08,89.08,0,0,1-13.52,1l-5.21.16a20.12,20.12,0,0,1-6.11-.73,2.93,2.93,0,0,1-2.2-3H55.48q-1.31,0-2.28-2-0.33-1-.41-7.74T52.71,333q0-44.15.49-86a31.33,31.33,0,0,1,9.94-1.47q3.09,0,4.72.16l5.21,0.16q2.93,0,4.72-.16l2.28,3.42,1-.16q3.09,3.59,6.84,14.66l1.47,4.07A92.18,92.18,0,0,1,93,255.38a46.25,46.25,0,0,1,4.81-10.18,28,28,0,0,0,3.91.33q2.93,0,10.75-.33,6.35-.49,11.73-0.49L124.08,248h3.42q-0.16,4.07-.16,14l0.16,17.11q0.16,5.71.16,17.27v6q0,6-.33,9.12v-0.16l-0.49,53.77A74.19,74.19,0,0,0,116.42,364.46Zm6.35-66v-6.35q0-11.08-.16-16.62l-0.16-16.78q0-8.31.16-12.38-5.05,0-11.4.49l-10.1.33A10.29,10.29,0,0,1,98.5,247a28.49,28.49,0,0,0-3.26,7.09q-1.8,5.13-3.26,10-1,3.26-1.87,5.86t-1.22,2.44q-1,0-2.28-2.93t-3.91-9.61q-1.47-4.07-2.93-7.74a15.69,15.69,0,0,0-2.61-4.81H77q-1.79.16-5.7,0.16l-5.87-.16H62.81a28.86,28.86,0,0,0-8,.81q-0.49,41.71-.49,84.89,0,17.27.24,22.08t0.9,4.81l12.22,0.16a73.53,73.53,0,0,0,10.59-.65q-1.47-22.32-1.47-37.64,0-12.22,1-24.11l0.49,1.63,1.3,3.42q2.6,7.5,4.72,12.55t3.58,5.05q0.65,0,2.28-3.91t3.26-8.47a111.81,111.81,0,0,1,4.72-11.4q1.47,13.2,1.79,41.39,0,3.75.16,10.67t0.33,11.32l10.26-.16h5.87q1.79,0,5.38.33l0.49-52Q122.77,304.83,122.77,298.47Z" transform="translate(-9.86 -40.57)"/><path d="M207.33,302.79a41.94,41.94,0,0,1-15.07,14.34,39.33,39.33,0,0,1-19.63,5.3,36.22,36.22,0,0,1-4.07-.16v6.84q0,15.64.49,33.89a29.79,29.79,0,0,0-4.56.49q-1.14.16-5,.57a68.87,68.87,0,0,1-7.25.41,119.9,119.9,0,0,1-14.18-.82c0-1.52-.22-2.44-0.65-2.77a4.74,4.74,0,0,0-2.61-.49q-0.65-15.8-.65-55.72V285q0-27.37-.49-39.59a95,95,0,0,1,25.42-3.42,72.19,72.19,0,0,1,25.5,4.48,46.8,46.8,0,0,1,19.8,13.77q7.82,9.29,8.63,23v0.16A35.86,35.86,0,0,1,207.33,302.79ZM193,252.28q-14.17-8.71-34.05-8.72a94.84,94.84,0,0,0-23.62,3.1q0.65,18.25.65,57.84v28.68q0,13.69.49,25.74a91.19,91.19,0,0,0,12.54.65q10.75,0,14.66-1.3l0.49-.33q-0.49-15.8-.49-30v-6.35q0-3.09-.16-4.56a35.6,35.6,0,0,0,5.87.49,38.87,38.87,0,0,0,18.17-4.73,41.4,41.4,0,0,0,14.83-12.87,29.81,29.81,0,0,0,5.78-17.6V279.9Q207.17,261,193,252.28Zm-13.77,39.35q-5.46,2-14.58,2.12l-3.58.16h-0.49q-1.31-4.07-1.3-13.36,0-7.66-.16-11.08,1-1,6.84-1a20.83,20.83,0,0,1,13.69,4.56,9.86,9.86,0,0,1,3.75,4,11.74,11.74,0,0,1,1.3,5.46Q184.68,289.68,179.23,291.63ZM164,274q0.16,2.45.16,7v7.5a14.16,14.16,0,0,0,.33,3.58h0.81a36.76,36.76,0,0,0,12.79-1.87q5-1.87,5-7.9a7.14,7.14,0,0,0-4.24-6.84,21.24,21.24,0,0,0-9.61-2.12A18,18,0,0,0,164,274Z" transform="translate(-9.86 -40.57)"/><path d="M290.91,348.65a64.25,64.25,0,0,1-2,15.64q-7.17,0-21.51.33l-21.18.16q-14.5,0-27-1v-3.1l-3.26-.16q0-8.47-.16-19.71t-0.33-17.11q-0.49-17.6-.49-35.36,0-20.53,1.3-42.36Q229,245.36,245.7,245t27.62-.41q12.87,0,13.52,2a2.57,2.57,0,0,0,.57,1.87,3.22,3.22,0,0,0,1.55.81,1.8,1.8,0,0,1,1.14.57v-0.16a51,51,0,0,1,.65,8.64q0,2.61-.33,7.82-0.33,5.54-.33,8.47a94,94,0,0,1-21,2h-5.86l-6.35-.16q-5.05,0-10.1.49,0,2.44-.33,6.35l-0.16,5.38V290l2.93,0.16,6.35-.16q0.81,0,8.15.49A10.63,10.63,0,0,1,264,292a1.78,1.78,0,0,0,.73,1.39,5,5,0,0,0,2.2.33,53.34,53.34,0,0,1,.81,9.94q0,5.05-.16,7.66l-0.16,7.82a49.82,49.82,0,0,1-12.54,1.3,45.4,45.4,0,0,0-7.33.33,41.74,41.74,0,0,0-.49,7.49q0,4.89.16,7,19.55,1,31,1,3.91,0,9.12-.33v2l0.16,1.47a23,23,0,0,0,3.1-.16v2Q290.91,346,290.91,348.65ZM278.69,337.9q-4.07,0-9.45-.16t-8.31-.33q-8.8-.49-17.92-0.49l-0.16-.16A79.26,79.26,0,0,1,242.2,325a47.26,47.26,0,0,1,.65-8.64,6.37,6.37,0,0,1,2.93-.65q2.28-.16,5.05-0.16,8.47,0,11.73-1l0.16-14.17a53.29,53.29,0,0,0-.49-8.47v-0.16q-4.4,0-6.68-.16-9,0-13.36-.33l-0.16-.16a24.46,24.46,0,0,1-.65-6.19q0-2.28.33-6.52l0.16-6.35,0.65-.16a58,58,0,0,1,6.35-.33h17.43q11.89,0,18.9-1.63V269.8l0.16-7.66q0.32-5.21.33-7.82a61.69,61.69,0,0,0-.49-7.66q0-.49-11.89-0.49-25.42,0-55.56,1.47-1,15.81-1,39.1,0,12.06.33,35.85,0.49,18.09.49,36.5,9.61,0.82,23.63.81,7,0,21.67-.33l21.51-.16A55.76,55.76,0,0,0,286,345.56q0-2.6-.33-7.49v-0.33Q283.26,337.9,278.69,337.9ZM274,231h0.16q-9.94,8.15-11.73,11.4a64.35,64.35,0,0,1-8.8.49q-4.73,0-9.69-.49a43.91,43.91,0,0,1-7.74-1.3l2.44-2.12a29.68,29.68,0,0,0-3.1-.57,11.86,11.86,0,0,1-2.61-.57q6-5.21,14.66-14.34a175.17,175.17,0,0,1,16.13-15.15l3.1,3.42,0.16-.16,13.2,13.69Q279.83,225.65,274,231Zm-16.13-16.13-12.38,13L236.33,237q2.93,1,13.85,1h3.42a22.91,22.91,0,0,0,4.56-.33q1-2,5.78-6.19t5.62-4.89l5.05-4.56,0.16-.16-11.24-11.4Z" transform="translate(-9.86 -40.57)"/><path d="M310.71,242.26a122.17,122.17,0,0,1,14.26-.81,74,74,0,0,1,22.73,3.1,35.37,35.37,0,0,1,16,10.59q11.73,14.5,11.73,26.88a36.15,36.15,0,0,1-3.1,14.26,34.7,34.7,0,0,1-9,12.46,24,24,0,0,1-13.85,6q2.93,5.22,10.27,16,6.51,9.45,10.59,16.45a95,95,0,0,1,7,15l1,2.12h-2.28q-2.61,0-8.8.33-7.17.33-10.92,0.33-3.42,0-8.64-.33a6.5,6.5,0,0,1-.65-1.39,3.27,3.27,0,0,0-.9-1.39,2.58,2.58,0,0,0-1.71-.49,221.89,221.89,0,0,0-17.43-33.89v4.24q0,4.56.81,19.23,0.49,6.84.49,11.4a24.09,24.09,0,0,1-7.58,2.12,86,86,0,0,1-9.86.49l-7.17-.16h-9.45q-0.16-3.26-.16-7L294,343v-13.2q0-25.42-.57-52.14t-1.39-32.91Q303.78,243.08,310.71,242.26ZM344.52,310a24.82,24.82,0,0,0,14.17-5.46,30,30,0,0,0,8.8-11.81,36,36,0,0,0,2.93-14,34.5,34.5,0,0,0-4.32-16.62,35.61,35.61,0,0,0-12.06-13,33,33,0,0,0-17.19-5.38,101.22,101.22,0,0,0-12.06-.65,122,122,0,0,0-13.77.73q-6.44.73-17,2.2,0.81,4.73,1.3,29t0.49,51.81V343.6q0,7.82-.16,10.92v5.05a3.6,3.6,0,0,0,1.14.16,29.37,29.37,0,0,1,3.42.16l6.52,0.16q6,0,10.1-.41a22.43,22.43,0,0,0,6.68-1.55q-1.31-16.13-1.3-29.49a88.77,88.77,0,0,1,.49-10.27l0.33,0.49a110.78,110.78,0,0,1,12.22,19q6,11.49,10.43,21.91h0.16q5.54,0.33,8.47.33,3.58,0,10.1-.33,5.87-.32,8.31-0.33a95.6,95.6,0,0,0-7.33-15.23q-4.4-7.41-10.75-16.7-1.63-2.6-5.13-7.9t-5.78-9.37Zm-6-40.49a11.77,11.77,0,0,1,3.58,9q0,5.87-3.34,8.31t-10.83,2.44a77.28,77.28,0,0,1-9.12-.49h-0.16a82.39,82.39,0,0,1-.49-11.4l-0.33-8.64a28.37,28.37,0,0,1,11.57-2.61A12.86,12.86,0,0,1,338.49,269.55Zm-15.8,3.67q0.32,4.24.33,7.49l-0.16,4.73,0.16,2.28h4.89a50.65,50.65,0,0,0,7.17-.49h-0.16a6.54,6.54,0,0,0,4.23-3,10.43,10.43,0,0,0,1.47-5.62q0-7.49-8-7.49A27.32,27.32,0,0,0,322.68,273.22Z" transform="translate(-9.86 -40.57)"/><path d="M410.83,247h3.26v2.28q0,12.87-.16,22.65t-0.33,16.29q-0.65,26.4-.65,40.08,0,17.76,1,34.7-2.61,2.6-11.89,2.61l-7.33-.16q-2.45-.16-6.84-0.16a30.09,30.09,0,0,0-7,.81l0.16-3.91a13.87,13.87,0,0,0-3.42.65q1.14-16.78,1.14-30.63,0-9.29-.16-16.37t-0.33-11.65q-0.65-18.57-.65-28.19,0-16,1.63-32.75a28.2,28.2,0,0,1,2.93-.33q4.56,0,9.45.33a78.52,78.52,0,0,0,9.77.49h9.45V247h0Zm-22-2.12q-4.89-.32-7.49-0.33h-0.65v0.33a284.4,284.4,0,0,0-1.47,31q0,9.45.16,16.45T379.71,304q0.65,19.23.65,29.16,0,13.69-1,27.37a27.22,27.22,0,0,1,3.75-.33q2,0,7.17.33,5.87,0.33,9.12.33,7.82,0,9.61-1.79-1-17.6-1-35.52,0-13.36.65-39.1,0.16-6.51.33-16.13T409.2,246v-0.65h-7.66Q397.63,245.36,388.83,244.87Z" transform="translate(-9.86 -40.57)"/><path d="M494,275.42a101,101,0,0,1,.57,11.65v10.1q0,2.44-.16,11.89T493.6,326.5l-0.49,5.38q-1.31,15-6.52,22.81Q482,361,473.15,364.05a56.18,56.18,0,0,1-18.17,3q-11.08,0-19.06-3.5t-12.22-12.3v0.16a27.07,27.07,0,0,1-3.42-10.1,114.6,114.6,0,0,1-1-13.69q0-3.75-.16-5.54-0.82-13.85-.81-25.74v-6a110.17,110.17,0,0,1,2.61-25.42q2.6-10.91,11.08-15.8a50.26,50.26,0,0,1,22.48-5.05A49.3,49.3,0,0,1,471,246.91a28,28,0,0,1,12.63,8.39,34.06,34.06,0,0,1,7.66,10.92v-0.16A30.77,30.77,0,0,1,494,275.42Zm-54-27.7a23.77,23.77,0,0,0-10.92,5.78,31.33,31.33,0,0,0-7.41,15.56A117.38,117.38,0,0,0,420,290.33V296q0,6.52.33,14.58t0.49,11.32l0.49,10.59q0.33,16.78,8.07,23.22t22.4,6.44a53.66,53.66,0,0,0,17.52-2.93q8.55-2.93,12.79-8.8,5-7.82,6.19-22l0.49-5.38q0.81-10.43.81-24.77V281.85a78.59,78.59,0,0,0-.57-10.27,28.69,28.69,0,0,0-2.36-8.15,22.8,22.8,0,0,0-12.06-13.2,44.87,44.87,0,0,0-20-4.4A56,56,0,0,0,440,247.72ZM469.15,311v5.54a82,82,0,0,1-.57,11.73,11.39,11.39,0,0,1-3,6,12.41,12.41,0,0,1-5.21,3.75,17.8,17.8,0,0,1-6.68,1.3q-6.19,0-9.37-3.18a15.73,15.73,0,0,1-4.24-7.74,77,77,0,0,1-1.55-11.89q-0.33-5.21-.65-7.33-0.33-5.54-.33-8.31,0-32.75,18.09-32.75,8.31,0,10.75,7.9a54,54,0,0,1,2.44,16l0.33,11.08V311Zm-2-19.55q-0.16-1.3-.41-6.44a19.67,19.67,0,0,0-2.12-8.55,6,6,0,0,0-5.62-3.42,13.42,13.42,0,0,0-9.29,3.91,18.28,18.28,0,0,0-5.54,9.29v-0.16a83.56,83.56,0,0,0-1.63,18.09q0,5.38.16,8.15v-0.16q0.65,4.56,1,9.12,0.16,1,.57,5.38a44,44,0,0,0,1.55,8.31l-0.16-.16,0.49,1a14.28,14.28,0,0,0,7.49,2,13.72,13.72,0,0,0,10.75-4.56l-0.16.16a12.14,12.14,0,0,0,2.77-5.46,71.74,71.74,0,0,0,.49-10.51V303.2l-0.33-11.08v-0.65h0Z" transform="translate(-9.86 -40.57)"/></g><path d="M122.5,431.6V402a0.4,0.4,0,0,1,.42-0.45h10q6.77,0,10.88,4.06t4.12,11.15q0,7.08-4.1,11.15T132.91,432h-10A0.37,0.37,0,0,1,122.5,431.6Zm3.9-2.61h6.51a10.79,10.79,0,0,0,8-3.11q3.08-3.11,3.08-9.06t-3.07-9.06a10.78,10.78,0,0,0-8-3.11H126.4V429Z" transform="translate(-9.86 -40.57)"/><path d="M154.42,431.6V402a0.38,0.38,0,0,1,.42-0.45h3.05a0.38,0.38,0,0,1,.42.45V431.6a0.38,0.38,0,0,1-.42.42h-3.05A0.38,0.38,0,0,1,154.42,431.6Z" transform="translate(-9.86 -40.57)"/><path d="M164.88,424.15a0.37,0.37,0,0,1,.45-0.38h2.74a0.54,0.54,0,0,1,.53.42q1.82,5.43,9.29,5.43a10.69,10.69,0,0,0,6-1.39,4.07,4.07,0,0,0,2.07-3.45,4.41,4.41,0,0,0-1.3-3.32,9.61,9.61,0,0,0-4.08-2l-7.62-2.16q-7.38-2.12-7.38-8a7.09,7.09,0,0,1,3.11-6A13.68,13.68,0,0,1,177,401a14.47,14.47,0,0,1,8.43,2.24,9.65,9.65,0,0,1,4,6.14,0.4,0.4,0,0,1-.45.53h-2.74a0.55,0.55,0,0,1-.53-0.45q-1.83-5.43-8.68-5.43a9.74,9.74,0,0,0-5.61,1.39,4.12,4.12,0,0,0-2,3.48,4.28,4.28,0,0,0,1.3,3.3,10.39,10.39,0,0,0,4.13,2l7.62,2.18q7.34,2.08,7.34,8a7,7,0,0,1-3.19,6q-3.19,2.28-8.75,2.28T169,430.46a11.35,11.35,0,0,1-2.9-2.81A5.89,5.89,0,0,1,164.88,424.15Z" transform="translate(-9.86 -40.57)"/><path d="M198.58,428.48q-4-4.2-4-11.65t4-11.66A13.31,13.31,0,0,1,208.71,401a15,15,0,0,1,8.68,2.3,9.9,9.9,0,0,1,4.16,6.5,0.4,0.4,0,0,1-.45.53h-2.74a0.51,0.51,0,0,1-.51-0.42Q216,404,208.71,404a9.4,9.4,0,0,0-7.3,3.23q-2.91,3.23-2.91,9.58t2.94,9.58a9.68,9.68,0,0,0,7.5,3.23q7.3,0,9.12-5.86a0.54,0.54,0,0,1,.51-0.45h2.74a0.37,0.37,0,0,1,.45.38,6.41,6.41,0,0,1-1.25,3.69q-3.63,5.28-11.56,5.28A13.62,13.62,0,0,1,198.58,428.48Z" transform="translate(-9.86 -40.57)"/><path d="M230.52,428.46q-3.95-4.22-3.95-11.65t4-11.64a14.37,14.37,0,0,1,20.32,0q4,4.21,4,11.64t-4,11.65A14.35,14.35,0,0,1,230.52,428.46ZM248,407.23a9.85,9.85,0,0,0-14.6,0q-2.92,3.23-2.92,9.58t2.92,9.58a9.85,9.85,0,0,0,14.6,0q2.92-3.23,2.92-9.58T248,407.23Z" transform="translate(-9.86 -40.57)"/><path d="M274.8,431.6V402a0.38,0.38,0,0,1,.42-0.45h11.52q5.3,0,8.08,2.15a7.29,7.29,0,0,1,2.78,6.12,6.82,6.82,0,0,1-1.3,4.1,6.43,6.43,0,0,1-3.91,2.42,8.55,8.55,0,0,1,5.26,2.56,6.83,6.83,0,0,1,1.7,4.61,7.55,7.55,0,0,1-2.76,6.27q-2.76,2.2-8.1,2.2H275.22A0.38,0.38,0,0,1,274.8,431.6Zm3.9-16.53h8.46a7.75,7.75,0,0,0,4.77-1.33,4.56,4.56,0,0,0,1.76-3.88,4.49,4.49,0,0,0-1.82-3.88,8.61,8.61,0,0,0-5.13-1.33h-8v10.42h0Zm16.74,8.49q0-5.43-7-5.43H278.7V429h9.78Q295.44,429,295.44,423.56Z" transform="translate(-9.86 -40.57)"/><path d="M303.29,431.6l11.52-28.68a2,2,0,0,1,2-1.32h1.32a1.92,1.92,0,0,1,2,1.32l11.52,28.68a0.49,0.49,0,0,1,.06.19c0,0.16-.14.23-0.42,0.23h-3.12a0.72,0.72,0,0,1-.66-0.42l-3-7.4H310.46l-3,7.4a0.7,0.7,0,0,1-.66.42h-3.12c-0.27,0-.4-0.08-0.4-0.23A0.26,0.26,0,0,1,303.29,431.6Zm8.27-10.44h11.73l-5.88-14.55Z" transform="translate(-9.86 -40.57)"/><path d="M337.23,431.6V402a0.4,0.4,0,0,1,.42-0.45h12.18q5.35,0,8.32,2.46a8.46,8.46,0,0,1,3,6.89,7.56,7.56,0,0,1-2.28,5.49,11.18,11.18,0,0,1-6.4,3,5.73,5.73,0,0,1,2.18,1.06,8.31,8.31,0,0,1,1.41,1.33q0.43,0.56,1.18,1.75l5.22,7.93a0.65,0.65,0,0,1,.11.35c0,0.12-.15.18-0.47,0.18h-3.56a0.81,0.81,0,0,1-.64-0.42l-5.22-8a6.77,6.77,0,0,0-6.09-3.27h-5.43V431.6a0.38,0.38,0,0,1-.42.42h-3.05A0.38,0.38,0,0,1,337.23,431.6Zm3.9-14.34h8.7a8.26,8.26,0,0,0,5.37-1.63,6.41,6.41,0,0,0,0-9.35,8.31,8.31,0,0,0-5.36-1.62h-8.7v12.6h0Z" transform="translate(-9.86 -40.57)"/><path d="M54.71,415.51l0.08-6.27H92.51v1.63h1.63l-0.08,4.64Q94,417,94,419.67a45.61,45.61,0,0,0,.41,6.44L57,425.53l-0.81-.81V423.9H55.36l-0.81-.81Zm37.23,8.15a32.38,32.38,0,0,1-.41-5.46l0.08-4.07q0.08-1.38.08-4.07H55.61l-0.08,3.18-0.16,9.86,1.63,0q1.3,0,4.4,0,15.64,0.49,27.29.49h3.26Z" transform="translate(-9.86 -40.57)"/><path d="M391.43,415.51l0.08-6.27h37.72v1.63h1.63l-0.08,4.64q-0.08,1.47-.08,4.15a45.77,45.77,0,0,0,.41,6.44l-37.39-.57-0.82-.81V423.9h-0.81l-0.81-.81Zm37.23,8.15a32.38,32.38,0,0,1-.41-5.46l0.08-4.07q0.08-1.38.08-4.07H392.33l-0.08,3.18-0.16,9.86,1.63,0q1.3,0,4.4,0,15.64,0.49,27.29.49h3.26Z" transform="translate(-9.86 -40.57)"/></svg>