<?xml version="1.0" encoding="utf-8"?>
<!-- Generator: Adobe Illustrator 16.0.3, SVG Export Plug-In . SVG Version: 6.00 Build 0)  -->
<!DOCTYPE svg PUBLIC "-//W3C//DTD SVG 1.0//EN" "http://www.w3.org/TR/2001/REC-SVG-20010904/DTD/svg10.dtd">
<svg version="1.0" id="Capa_1" xmlns="http://www.w3.org/2000/svg" xmlns:xlink="http://www.w3.org/1999/xlink" x="0px" y="0px"
	 width="500px" height="500px" viewBox="0 0 500 500" enable-background="new 0 0 500 500" xml:space="preserve">
<g>
	<path fill-rule="evenodd" clip-rule="evenodd" fill="#FCF119" d="M101.52,103.415c20.051,5.022,36.142,9.851,52.573,12.761
		c6.293,1.113,7.176,2.14,8.555,8.417c2.508,11.432,8.117,23.545,21.111,25.67c12.151,1.986,25,1.293,34.044-10.536
		c7.036-9.202,8.775-19.293,4.169-29.081c-3.771-8.014-3.031-13.371,1.658-20.615c10.111-15.622,18.908-32.093,28.965-49.465
		c9.725,17.799,17.61,33.716,26.94,48.735c5.092,8.192,5.276,15.378,1.814,23.708c-6.757,16.28,5.07,32.973,19.183,37.37
		c15.917,4.953,39.259-7.131,40.086-21.902c0.547-9.87,3.183-12.418,11.938-13.14c8.641-0.713,16.786-4.238,25.616-5.129
		c7.882-0.798,15.473-4.516,24.313-7.295c-16.695,34.694-32.771,67.551-48.226,100.699c-3.023,6.489-5.399,6.882-10.899,3.256
		c-17.534-11.551-37.656-14.046-57.938-16.619c-20.829-2.646-41.226-2.859-62.242-0.348c-22.435,2.678-44.416,4.906-63.87,17.415
		c-6.719,4.322-7.534-1.417-9.361-5.126C134.207,170.217,118.558,138.199,101.52,103.415z"/>
	<g id="Império">
		<path fill="#FCF119" d="M43.102,246.987h3.258v2.281c0,8.582-0.056,16.13-0.163,22.647c-0.109,6.518-0.219,11.95-0.326,16.293
			c-0.435,17.597-0.651,30.957-0.651,40.081c0,11.841,0.326,23.408,0.978,34.704c-1.739,1.736-5.703,2.606-11.894,2.606
			l-7.332-0.162c-1.629-0.11-3.91-0.163-6.843-0.163c-2.391,0-4.725,0.27-7.006,0.814l0.163-3.91
			c-1.848,0.216-2.989,0.433-3.421,0.651c0.759-11.186,1.141-21.397,1.141-30.631c0-6.191-0.056-11.649-0.163-16.374
			c-0.109-4.726-0.219-8.607-0.326-11.649c-0.436-12.383-0.652-21.777-0.652-28.188c0-10.644,0.542-21.56,1.629-32.749
			c1.52-0.216,2.498-0.326,2.933-0.326c3.04,0,6.191,0.109,9.45,0.326c2.497,0.326,5.756,0.489,9.775,0.489h9.45V246.987z
			 M21.106,244.869c-3.259-0.216-5.759-0.326-7.495-0.326h-0.652v0.326c-0.978,8.798-1.466,19.119-1.466,30.957
			c0,6.301,0.053,11.786,0.163,16.455c0.107,4.672,0.216,8.582,0.326,11.731c0.433,12.817,0.652,22.54,0.652,29.164
			c0,9.124-0.326,18.248-0.978,27.372c1.52-0.219,2.77-0.325,3.747-0.325c1.304,0,3.691,0.106,7.169,0.325
			c3.91,0.217,6.95,0.326,9.124,0.326c5.214,0,8.417-0.599,9.613-1.792c-0.651-11.731-0.978-23.569-0.978-35.519
			c0-8.905,0.216-21.939,0.652-39.104c0.107-4.343,0.216-9.72,0.326-16.13c0.107-6.408,0.163-13.85,0.163-22.321v-0.652h-7.658
			C31.208,245.358,26.971,245.195,21.106,244.869z"/>
		<path fill="#FCF119" d="M116.419,364.46l-7.821,0.162c-1.522,0.107-3.694,0.163-6.517,0.163c-0.109-0.761-0.163-1.901-0.163-3.421
			l-3.095,0.162c-0.326-5.865-0.489-15.585-0.489-29.164l-0.326-20.04c-0.326,0.87-0.952,2.606-1.874,5.214
			c-0.924,2.606-1.82,4.536-2.688,5.783c-0.871,1.25-1.685,1.874-2.444,1.874c-0.871,0-1.955-1.084-3.259-3.259
			c-1.629-0.106-3.584-2.877-5.865-8.31c-0.109,2.607-0.163,6.411-0.163,11.405c0,9.56,0.542,22.594,1.629,39.104
			c-4.236,0.651-8.745,0.978-13.523,0.978l-5.214,0.163c-2.607,0-4.644-0.245-6.11-0.733c-1.466-0.489-2.2-1.494-2.2-3.015h-0.814
			c-0.871,0-1.629-0.651-2.281-1.955c-0.219-0.651-0.354-3.23-0.407-7.739c-0.056-4.506-0.082-10.778-0.082-18.818
			c0-29.434,0.163-58.109,0.489-86.026c2.933-0.978,6.245-1.466,9.939-1.466c2.062,0,3.638,0.056,4.725,0.163l5.214,0.163
			c1.955,0,3.528-0.054,4.725-0.163l2.281,3.421l0.978-0.163c2.063,2.391,4.343,7.278,6.843,14.664l1.466,4.073
			c0.759-3.585,1.98-7.684,3.666-12.302c1.683-4.615,3.284-8.009,4.806-10.183c1.52,0.219,2.824,0.326,3.911,0.326
			c1.955,0,5.54-0.107,10.753-0.326c4.236-0.326,8.146-0.489,11.731-0.489l-0.163,3.259h3.421
			c-0.109,2.716-0.163,7.388-0.163,14.012l0.163,17.107c0.107,3.804,0.163,9.56,0.163,17.271v6.028c0,4.021-0.109,7.063-0.326,9.124
			v-0.162l-0.489,53.767C123.804,364.676,120.329,364.46,116.419,364.46z M122.773,298.473v-6.354
			c0-7.386-0.056-12.926-0.163-16.619l-0.163-16.782c0-5.539,0.054-9.666,0.163-12.382c-3.368,0-7.169,0.163-11.405,0.489
			l-10.102,0.326c-1.522,0-2.391-0.053-2.607-0.163c-0.978,1.303-2.064,3.666-3.258,7.087c-1.197,3.422-2.281,6.762-3.259,10.021
			c-0.652,2.174-1.278,4.129-1.874,5.865c-0.599,1.739-1.006,2.554-1.222,2.444c-0.652,0-1.413-0.978-2.281-2.933
			c-0.871-1.955-2.174-5.158-3.911-9.613c-0.978-2.714-1.955-5.295-2.933-7.739c-0.978-2.444-1.848-4.045-2.607-4.806H76.99
			c-1.196,0.109-3.095,0.163-5.702,0.163l-5.866-0.163h-2.607c-3.584,0-6.247,0.272-7.983,0.814
			c-0.326,27.808-0.489,56.104-0.489,84.886c0,11.515,0.082,18.875,0.244,22.077c0.163,3.205,0.461,4.807,0.896,4.807l12.22,0.163
			c4.126,0,7.658-0.217,10.59-0.652c-0.978-14.88-1.466-27.425-1.466-37.637c0-8.146,0.326-16.183,0.978-24.113l0.489,1.629
			l1.303,3.422c1.736,4.997,3.312,9.181,4.725,12.546c1.41,3.368,2.607,5.051,3.584,5.051c0.433,0,1.194-1.304,2.281-3.91
			c1.084-2.607,2.171-5.431,3.258-8.473c2.388-6.298,3.964-10.102,4.725-11.405c0.978,8.799,1.573,22.594,1.792,41.385
			c0,2.5,0.054,6.056,0.163,10.672c0.107,4.617,0.216,8.391,0.326,11.323l10.265-0.163h5.866c1.194,0,2.986,0.109,5.376,0.326
			l0.489-51.975C122.664,305.914,122.773,302.709,122.773,298.473z"/>
		<path fill="#FCF119" d="M207.333,302.791c-3.804,6.028-8.826,10.809-15.071,14.337c-6.247,3.531-12.79,5.296-19.633,5.296
			c-1.848,0-3.205-0.054-4.073-0.163v6.843c0,10.428,0.163,21.726,0.489,33.89c-1.087,0-2.607,0.163-4.562,0.488
			c-0.761,0.107-2.418,0.298-4.969,0.57c-2.554,0.271-4.97,0.408-7.25,0.408c-4.888,0-9.613-0.272-14.175-0.815
			c0-1.522-0.219-2.443-0.652-2.77c-0.436-0.326-1.303-0.488-2.607-0.488c-0.435-10.535-0.652-29.109-0.652-55.723V284.95
			c0-18.249-0.163-31.446-0.489-39.592c8.253-2.281,16.726-3.421,25.417-3.421c9.015,0,17.515,1.494,25.499,4.48
			c7.984,2.989,14.583,7.576,19.796,13.768c5.213,6.191,8.09,13.849,8.635,22.973v0.163
			C213.035,290.273,211.133,296.762,207.333,302.791z M192.995,252.282c-9.45-5.81-20.802-8.717-34.052-8.717
			c-7.714,0-15.588,1.034-23.625,3.096c0.433,12.166,0.652,31.445,0.652,57.84v28.676c0,9.124,0.163,17.706,0.489,25.743
			c2.933,0.436,7.113,0.651,12.545,0.651c7.169,0,12.057-0.433,14.664-1.303l0.489-0.326c-0.326-10.534-0.489-20.529-0.489-29.979
			v-6.354c0-2.063-0.056-3.585-0.163-4.563c1.955,0.326,3.91,0.489,5.865,0.489c6.082,0,12.138-1.573,18.167-4.726
			c6.028-3.148,10.97-7.438,14.827-12.871c3.854-5.431,5.784-11.296,5.784-17.597v-2.443
			C207.495,267.3,202.444,258.095,192.995,252.282z M179.227,291.63c-3.641,1.304-8.5,2.011-14.582,2.118l-3.584,0.163h-0.489
			c-0.871-2.714-1.304-7.169-1.304-13.36c0-5.104-0.056-8.798-0.163-11.079c0.652-0.652,2.933-0.978,6.843-0.978
			c5.43,0,9.992,1.522,13.686,4.562c1.629,0.978,2.877,2.31,3.748,3.992c0.868,1.686,1.303,3.503,1.303,5.458
			C184.685,287.287,182.865,290.326,179.227,291.63z M163.993,274.033c0.107,1.63,0.163,3.967,0.163,7.006v4.726v2.77
			c0,1.629,0.107,2.826,0.326,3.585h0.814c5.214,0,9.476-0.624,12.79-1.874c3.312-1.248,4.969-3.883,4.969-7.902
			c0-3.149-1.413-5.43-4.236-6.843c-2.826-1.41-6.028-2.118-9.613-2.118C167.142,273.382,165.403,273.601,163.993,274.033z"/>
		<path fill="#FCF119" d="M290.914,348.655c0,5.214-0.651,10.428-1.955,15.642c-4.78,0-11.949,0.106-21.507,0.325l-21.181,0.163
			c-9.669,0-18.683-0.325-27.046-0.978v-3.096l-3.258-0.163c0-5.646-0.056-12.22-0.163-19.714
			c-0.109-7.495-0.219-13.197-0.326-17.108c-0.326-11.73-0.489-23.515-0.489-35.355c0-13.686,0.433-27.805,1.303-42.361
			c8.473-0.433,18.273-0.787,29.409-1.059c11.133-0.27,20.339-0.408,27.617-0.408c8.579,0,13.088,0.652,13.522,1.956
			c0,0.871,0.188,1.494,0.57,1.874c0.38,0.382,0.896,0.652,1.548,0.814c0.652,0.163,1.031,0.354,1.141,0.57v-0.163
			c0.433,2.5,0.652,5.376,0.652,8.635c0,1.738-0.11,4.346-0.326,7.82c-0.219,3.694-0.326,6.518-0.326,8.473
			c-5.539,1.304-12.546,1.955-21.018,1.955h-5.865l-6.354-0.163c-3.368,0-6.736,0.163-10.102,0.489c0,1.629-0.109,3.747-0.326,6.354
			l-0.163,5.377v1.467l2.933,0.162l6.354-0.162c0.542,0,3.259,0.162,8.146,0.488c0.107,0.326,0.217,0.843,0.326,1.548
			c0.106,0.708,0.351,1.169,0.733,1.385c0.379,0.219,1.112,0.326,2.199,0.326c0.542,2.826,0.814,6.138,0.814,9.938
			c0,3.368-0.056,5.922-0.163,7.658l-0.163,7.82c-3.258,0.871-7.441,1.304-12.545,1.304c-4.02,0-6.464,0.109-7.332,0.325
			c-0.326,1.63-0.489,4.13-0.489,7.495c0,3.259,0.053,5.596,0.163,7.006c13.034,0.652,23.353,0.978,30.957,0.978
			c2.606,0,5.646-0.106,9.124-0.325v1.955l0.163,1.466c1.303,0,2.334-0.054,3.096-0.163v1.955
			C290.805,344.419,290.914,346.919,290.914,348.655z M278.694,337.902c-2.716,0-5.865-0.054-9.449-0.163
			c-3.585-0.107-6.354-0.217-8.31-0.326c-5.865-0.326-11.841-0.488-17.922-0.488l-0.163-0.163
			c-0.436-2.714-0.652-6.624-0.652-11.731c0-3.475,0.216-6.354,0.652-8.635c0.433-0.326,1.41-0.543,2.933-0.652
			c1.52-0.106,3.203-0.163,5.051-0.163c5.647,0,9.557-0.325,11.731-0.978l0.163-14.175c0-3.801-0.163-6.624-0.489-8.472v-0.163
			c-2.933,0-5.16-0.054-6.68-0.163c-5.975,0-10.427-0.106-13.36-0.326l-0.163-0.163c-0.436-1.629-0.652-3.69-0.652-6.19
			c0-1.521,0.107-3.691,0.326-6.518l0.163-6.354l0.652-0.163c1.955-0.216,4.073-0.325,6.354-0.325s3.801,0,4.562,0h12.871
			c7.928,0,14.229-0.543,18.9-1.63v-0.163l0.163-7.657c0.216-3.475,0.325-6.082,0.325-7.82c0-2.498-0.162-5.051-0.488-7.658
			c0-0.326-3.967-0.489-11.894-0.489c-16.945,0-35.466,0.489-55.56,1.466c-0.651,10.537-0.978,23.571-0.978,39.104
			c0,8.039,0.107,19.986,0.326,35.845c0.326,12.057,0.489,24.223,0.489,36.496c6.408,0.545,14.282,0.814,23.625,0.814
			c4.669,0,11.894-0.106,21.67-0.326l21.507-0.163c1.084-4.235,1.629-8.852,1.629-13.849c0-1.736-0.109-4.236-0.326-7.495v-0.325
			C284.071,337.849,281.734,337.902,278.694,337.902z M273.97,231.02h0.163c-6.627,5.433-10.537,9.233-11.731,11.405
			c-2.28,0.326-5.214,0.489-8.798,0.489c-3.152,0-6.382-0.163-9.694-0.489c-3.314-0.326-5.894-0.759-7.739-1.304l2.444-2.118
			c-0.871-0.216-1.901-0.407-3.096-0.57c-1.196-0.163-2.064-0.351-2.606-0.57c4.017-3.475,8.905-8.253,14.664-14.338
			c6.733-6.95,12.11-12.001,16.13-15.153l3.096,3.422l0.163-0.163l13.197,13.686C279.942,225.537,277.88,227.436,273.97,231.02z
			 M257.84,214.89c0,0-4.13,4.346-12.383,13.034l-9.124,9.124c1.955,0.652,6.571,0.978,13.849,0.978h3.421
			c2.063,0,3.584-0.107,4.562-0.326c0.652-1.304,2.579-3.366,5.784-6.191c3.203-2.823,5.076-4.453,5.621-4.888l5.051-4.562
			l0.163-0.163l-11.242-11.405C259.739,213.424,257.84,214.89,257.84,214.89z"/>
		<path fill="#FCF119" d="M310.709,242.262c4.615-0.542,9.368-0.814,14.256-0.814c8.799,0,16.375,1.033,22.729,3.095
			c6.354,2.065,11.702,5.596,16.048,10.591c7.821,9.669,11.731,18.63,11.731,26.883c0,4.672-1.034,9.425-3.096,14.257
			c-2.064,4.834-5.051,8.989-8.961,12.464c-3.911,3.478-8.528,5.486-13.85,6.028c1.955,3.478,5.377,8.799,10.265,15.968
			c4.343,6.301,7.874,11.786,10.591,16.455c2.714,4.672,5.051,9.669,7.006,14.99l0.978,2.118h-2.281
			c-1.738,0-4.671,0.106-8.798,0.325c-4.781,0.217-8.419,0.326-10.917,0.326c-2.28,0-5.16-0.109-8.635-0.326
			c-0.219-0.325-0.436-0.789-0.651-1.385c-0.22-0.598-0.518-1.059-0.896-1.385c-0.382-0.326-0.952-0.488-1.711-0.488
			c-5.649-13.36-11.461-24.656-17.434-33.89v4.236c0,3.042,0.271,9.449,0.814,19.226c0.326,4.562,0.489,8.365,0.489,11.405
			c-2.281,1.084-4.807,1.792-7.576,2.118c-2.77,0.325-6.057,0.488-9.857,0.488l-7.169-0.163h-9.45
			c-0.109-2.174-0.162-4.509-0.162-7.006l-0.163-14.826v-13.197c0-16.945-0.191-34.322-0.57-52.138
			c-0.382-17.813-0.843-28.783-1.385-32.912C299.874,243.622,306.091,242.807,310.709,242.262z M344.517,310.041
			c5.54-0.433,10.265-2.253,14.175-5.458c3.91-3.203,6.844-7.142,8.799-11.813c1.955-4.669,2.933-9.341,2.933-14.012
			c0-5.757-1.441-11.296-4.318-16.619c-2.879-5.32-6.898-9.666-12.057-13.035c-5.16-3.365-10.891-5.158-17.188-5.376
			c-3.585-0.433-7.604-0.652-12.057-0.652c-4.889,0-9.479,0.245-13.768,0.733c-4.293,0.489-9.967,1.222-17.026,2.2
			c0.542,3.151,0.978,12.817,1.303,29.001c0.326,16.187,0.489,33.457,0.489,51.812v16.782c0,5.214-0.056,8.854-0.163,10.916v5.051
			c0.326,0.109,0.705,0.163,1.141,0.163c1.41,0,2.551,0.057,3.422,0.163l6.517,0.163c4.018,0,7.386-0.138,10.102-0.407
			c2.714-0.271,4.941-0.787,6.681-1.548c-0.871-10.754-1.304-20.583-1.304-29.49c0-4.127,0.163-7.549,0.489-10.265l0.325,0.488
			c4.127,4.998,8.2,11.324,12.22,18.981c4.018,7.658,7.495,14.964,10.428,21.914h0.163c3.691,0.217,6.517,0.326,8.473,0.326
			c2.388,0,5.756-0.109,10.102-0.326c3.91-0.216,6.68-0.326,8.309-0.326c-1.955-5.213-4.398-10.29-7.331-15.233
			c-2.933-4.941-6.518-10.509-10.754-16.7c-1.087-1.736-2.798-4.371-5.132-7.902c-2.337-3.528-4.265-6.652-5.784-9.368
			L344.517,310.041z M338.488,269.553c2.388,2.228,3.585,5.242,3.585,9.043c0,3.91-1.115,6.68-3.341,8.31
			c-2.228,1.629-5.84,2.443-10.835,2.443c-3.367,0-6.41-0.163-9.124-0.488h-0.162c-0.326-1.846-0.489-5.646-0.489-11.405
			l-0.326-8.636c3.911-1.735,7.765-2.606,11.568-2.606C333.056,266.213,336.098,267.328,338.488,269.553z M322.685,273.219
			c0.216,2.826,0.325,5.323,0.325,7.495l-0.163,4.725l0.163,2.281h4.888c2.498,0,4.889-0.163,7.169-0.489h-0.162
			c1.846-0.433,3.258-1.438,4.235-3.014c0.978-1.573,1.467-3.447,1.467-5.621c0-4.995-2.663-7.495-7.983-7.495
			C329.581,271.101,326.269,271.809,322.685,273.219z"/>
		<path fill="#FCF119" d="M410.827,246.987h3.259v2.281c0,8.582-0.057,16.13-0.163,22.647c-0.109,6.518-0.219,11.95-0.326,16.293
			c-0.436,17.597-0.651,30.957-0.651,40.081c0,11.841,0.326,23.408,0.978,34.704c-1.739,1.736-5.703,2.606-11.894,2.606
			l-7.332-0.162c-1.63-0.11-3.91-0.163-6.844-0.163c-2.39,0-4.725,0.27-7.006,0.814l0.163-3.91
			c-1.848,0.216-2.988,0.433-3.421,0.651c0.758-11.186,1.14-21.397,1.14-30.631c0-6.191-0.056-11.649-0.162-16.374
			c-0.11-4.726-0.22-8.607-0.326-11.649c-0.436-12.383-0.651-21.777-0.651-28.188c0-10.644,0.542-21.56,1.629-32.749
			c1.52-0.216,2.497-0.326,2.933-0.326c3.04,0,6.191,0.109,9.45,0.326c2.497,0.326,5.756,0.489,9.775,0.489h9.45V246.987z
			 M388.831,244.869c-3.258-0.216-5.758-0.326-7.494-0.326h-0.652v0.326c-0.978,8.798-1.466,19.119-1.466,30.957
			c0,6.301,0.054,11.786,0.163,16.455c0.106,4.672,0.216,8.582,0.325,11.731c0.434,12.817,0.652,22.54,0.652,29.164
			c0,9.124-0.326,18.248-0.978,27.372c1.52-0.219,2.77-0.325,3.747-0.325c1.304,0,3.691,0.106,7.169,0.325
			c3.91,0.217,6.95,0.326,9.124,0.326c5.214,0,8.416-0.599,9.613-1.792c-0.652-11.731-0.978-23.569-0.978-35.519
			c0-8.905,0.216-21.939,0.651-39.104c0.106-4.343,0.217-9.72,0.326-16.13c0.106-6.408,0.162-13.85,0.162-22.321v-0.652h-7.657
			C398.934,245.358,394.697,245.195,388.831,244.869z"/>
		<path fill="#FCF119" d="M494.002,275.418c0.38,3.205,0.57,7.088,0.57,11.649v10.103c0,1.629-0.056,5.595-0.163,11.894
			c-0.109,6.301-0.382,12.112-0.814,17.434l-0.488,5.377c-0.871,9.994-3.042,17.596-6.518,22.81
			c-3.042,4.236-7.522,7.357-13.441,9.368c-5.922,2.009-11.976,3.015-18.167,3.015c-7.388,0-13.742-1.169-19.063-3.503
			c-5.323-2.337-9.396-6.436-12.22-12.302v0.163c-1.739-2.933-2.88-6.298-3.422-10.102c-0.545-3.801-0.87-8.362-0.978-13.686
			c0-2.498-0.056-4.344-0.163-5.54c-0.545-9.23-0.814-17.813-0.814-25.743v-6.028c0-9.666,0.868-18.139,2.607-25.417
			c1.735-7.275,5.43-12.545,11.079-15.804c6.843-3.365,14.338-5.051,22.484-5.051c5.646,0,11.16,0.952,16.537,2.852
			c5.377,1.901,9.585,4.7,12.627,8.391c3.584,3.584,6.136,7.225,7.657,10.916v-0.163
			C492.725,269.092,493.62,272.216,494.002,275.418z M439.991,247.72c-4.672,1.25-8.31,3.177-10.916,5.784
			c-3.804,4.236-6.273,9.425-7.414,15.561c-1.141,6.138-1.71,13.225-1.71,21.262v5.703c0,4.346,0.106,9.205,0.325,14.582
			c0.217,5.377,0.38,9.152,0.489,11.323l0.488,10.591c0.217,11.188,2.905,18.928,8.065,23.218
			c5.157,4.289,12.627,6.436,22.402,6.436c5.973,0,11.813-0.978,17.516-2.933c5.702-1.955,9.964-4.889,12.79-8.799
			c3.365-5.214,5.43-12.545,6.191-21.995l0.488-5.377c0.542-6.95,0.814-15.206,0.814-24.766v-16.455c0-4.018-0.19-7.439-0.57-10.265
			c-0.382-2.823-1.168-5.54-2.362-8.146c-2.064-5.866-6.084-10.265-12.057-13.198c-5.975-2.933-12.655-4.399-20.04-4.399
			C449.494,245.847,444.66,246.473,439.991,247.72z M469.155,311.019v5.54c0,5.539-0.19,9.449-0.57,11.73
			c-0.382,2.281-1.385,4.292-3.014,6.028c-1.304,1.63-3.042,2.879-5.214,3.747c-2.174,0.871-4.399,1.304-6.681,1.304
			c-4.129,0-7.25-1.059-9.368-3.177s-3.531-4.697-4.236-7.739c-0.707-3.04-1.222-7.006-1.548-11.894
			c-0.219-3.476-0.435-5.919-0.651-7.332c-0.219-3.691-0.326-6.462-0.326-8.31c0-21.833,6.028-32.749,18.086-32.749
			c5.539,0,9.124,2.635,10.753,7.902c1.629,5.27,2.444,10.618,2.444,16.049l0.325,11.079V311.019z M467.2,291.467
			c-0.109-0.868-0.244-3.014-0.407-6.436s-0.871-6.272-2.118-8.554c-1.25-2.281-3.124-3.422-5.621-3.422
			c-3.368,0-6.464,1.304-9.287,3.91c-2.825,2.607-4.671,5.703-5.539,9.287v-0.163c-1.087,4.781-1.63,10.81-1.63,18.086
			c0,3.584,0.054,6.301,0.163,8.146v-0.163c0.433,3.042,0.759,6.084,0.978,9.124c0.107,0.651,0.298,2.443,0.57,5.377
			c0.27,2.933,0.787,5.702,1.548,8.309l-0.163-0.162l0.489,0.978c2.171,1.303,4.669,1.955,7.494,1.955
			c4.453,0,8.037-1.521,10.754-4.563l-0.163,0.163c1.52-1.846,2.444-3.666,2.77-5.458c0.326-1.792,0.489-5.295,0.489-10.509v-6.354
			v-7.82l-0.326-11.079V291.467z"/>
	</g>
	<g>
		<path fill="#FCF119" d="M122.495,431.601v-29.553c0-0.283,0.141-0.432,0.424-0.445h9.992c4.511,0,8.139,1.354,10.883,4.063
			c2.744,2.709,4.115,6.425,4.115,11.148s-1.368,8.44-4.105,11.148c-2.736,2.708-6.368,4.063-10.894,4.063h-9.992
			C122.636,432.024,122.495,431.883,122.495,431.601z M126.398,428.99h6.513c3.295,0,5.968-1.035,8.019-3.107
			s3.076-5.092,3.076-9.059c0-3.968-1.022-6.987-3.065-9.059c-2.044-2.072-4.72-3.108-8.03-3.108h-6.513V428.99z"/>
		<path fill="#FCF119" d="M154.423,431.601v-29.553c0-0.297,0.141-0.445,0.424-0.445h3.055c0.283,0,0.424,0.148,0.424,0.445v29.553
			c0,0.282-0.142,0.424-0.424,0.424h-3.055C154.564,432.024,154.423,431.883,154.423,431.601z"/>
		<path fill="#FCF119" d="M164.882,424.153c0-0.254,0.148-0.382,0.445-0.382h2.737c0.254,0,0.431,0.142,0.53,0.425
			c1.216,3.621,4.313,5.431,9.292,5.431c2.602,0,4.593-0.463,5.972-1.39c1.379-0.926,2.068-2.075,2.068-3.447
			c0-1.371-0.435-2.479-1.305-3.32c-0.87-0.841-2.231-1.523-4.084-2.047l-7.616-2.164c-4.922-1.414-7.383-4.095-7.383-8.04
			c0-2.433,1.036-4.416,3.108-5.951c2.072-1.534,4.847-2.302,8.327-2.302c3.479,0,6.29,0.746,8.433,2.238
			c2.143,1.492,3.49,3.539,4.042,6.142c0.057,0.354-0.092,0.53-0.445,0.53h-2.737c-0.254,0-0.432-0.148-0.53-0.445
			c-1.217-3.62-4.109-5.431-8.677-5.431c-2.405,0-4.275,0.463-5.611,1.39c-1.336,0.926-2.005,2.086-2.005,3.479
			c0,1.394,0.435,2.493,1.305,3.299c0.87,0.807,2.245,1.485,4.126,2.037l7.616,2.185c4.894,1.387,7.34,4.066,7.34,8.041
			c0,2.461-1.064,4.451-3.193,5.972c-2.128,1.521-5.045,2.28-8.751,2.28s-6.661-0.742-8.868-2.228
			c-1.103-0.734-2.068-1.672-2.896-2.811C165.296,426.505,164.882,425.342,164.882,424.153z"/>
		<path fill="#FCF119" d="M198.582,428.481c-2.652-2.8-3.978-6.683-3.978-11.646c0-4.965,1.319-8.851,3.957-11.658
			c2.638-2.807,6.021-4.211,10.151-4.211c3.564,0,6.456,0.768,8.677,2.302c2.22,1.535,3.606,3.702,4.158,6.503
			c0.056,0.354-0.092,0.53-0.445,0.53h-2.737c-0.255,0-0.424-0.142-0.509-0.425c-1.216-3.903-4.264-5.862-9.144-5.876
			c-2.928,0-5.36,1.078-7.298,3.235c-1.938,2.156-2.906,5.35-2.906,9.578s0.979,7.422,2.938,9.578
			c1.959,2.157,4.458,3.235,7.5,3.235c4.865,0,7.906-1.951,9.123-5.855c0.084-0.282,0.254-0.431,0.509-0.445h2.737
			c0.297,0,0.445,0.128,0.445,0.382c0,1.259-0.417,2.489-1.251,3.691c-2.418,3.521-6.272,5.282-11.562,5.282
			C204.688,432.682,201.234,431.282,198.582,428.481z"/>
		<path fill="#FCF119" d="M230.521,428.46c-2.63-2.813-3.946-6.696-3.946-11.646s1.319-8.829,3.957-11.637
			c2.638-2.807,6.025-4.211,10.162-4.211c4.137,0,7.524,1.404,10.162,4.211c2.638,2.808,3.957,6.687,3.957,11.637
			s-1.318,8.833-3.957,11.646c-2.638,2.815-6.025,4.222-10.162,4.222C236.556,432.682,233.165,431.275,230.521,428.46z
			 M247.991,407.235c-1.945-2.157-4.377-3.235-7.298-3.235c-2.921,0-5.354,1.078-7.298,3.235c-1.945,2.156-2.917,5.35-2.917,9.578
			s0.972,7.422,2.917,9.578c1.944,2.157,4.377,3.235,7.298,3.235c2.92,0,5.353-1.078,7.298-3.235
			c1.944-2.156,2.917-5.35,2.917-9.578S249.936,409.392,247.991,407.235z"/>
		<path fill="#FCF119" d="M274.796,431.601v-29.553c0-0.297,0.142-0.445,0.425-0.445h11.52c3.535,0,6.229,0.718,8.083,2.153
			c1.853,1.436,2.779,3.476,2.779,6.12c0,1.527-0.436,2.893-1.305,4.095c-0.87,1.202-2.175,2.009-3.914,2.418
			c2.376,0.396,4.129,1.249,5.261,2.557c1.132,1.309,1.697,2.847,1.697,4.614c0,2.716-0.92,4.806-2.758,6.27
			c-1.839,1.464-4.54,2.195-8.104,2.195h-13.259C274.938,432.024,274.796,431.883,274.796,431.601z M278.7,415.074h8.464
			c2.009,0,3.6-0.442,4.773-1.326s1.761-2.178,1.761-3.883c0-1.704-0.607-2.998-1.824-3.882s-2.928-1.326-5.134-1.326h-8.04V415.074
			z M295.438,423.56c0-3.62-2.32-5.431-6.959-5.431H278.7v10.861h9.779C293.118,428.99,295.438,427.181,295.438,423.56z"/>
		<path fill="#FCF119" d="M303.288,431.601l11.52-28.683c0.354-0.863,1.004-1.302,1.951-1.315h1.315
			c0.962,0,1.612,0.438,1.952,1.315l11.52,28.683c0.042,0.084,0.063,0.148,0.063,0.19c0,0.156-0.142,0.233-0.424,0.233h-3.119
			c-0.283,0-0.502-0.142-0.657-0.424l-3.034-7.404h-13.917l-3.033,7.404c-0.142,0.282-0.361,0.424-0.658,0.424h-3.118
			c-0.269,0-0.403-0.077-0.403-0.233C303.231,431.749,303.245,431.685,303.288,431.601z M311.562,421.162h11.731l-5.876-14.553
			L311.562,421.162z"/>
		<path fill="#FCF119" d="M337.231,431.601v-29.553c0-0.283,0.142-0.432,0.425-0.445h12.177c3.564,0,6.336,0.82,8.316,2.461
			s2.971,3.938,2.971,6.895c0,2.121-0.761,3.953-2.281,5.495c-1.521,1.541-3.652,2.531-6.396,2.97
			c0.806,0.198,1.534,0.552,2.185,1.061c0.65,0.51,1.121,0.951,1.411,1.326c0.289,0.375,0.682,0.958,1.177,1.75l5.219,7.935
			c0.071,0.113,0.106,0.229,0.106,0.35c0,0.121-0.155,0.181-0.467,0.181h-3.563c-0.227,0-0.439-0.142-0.637-0.424l-5.219-8.041
			c-1.387-2.178-3.416-3.267-6.089-3.267h-5.431v11.308c0,0.282-0.142,0.424-0.425,0.424h-3.055
			C337.373,432.024,337.231,431.883,337.231,431.601z M341.136,417.259h8.697c2.235,0,4.024-0.544,5.368-1.634
			c1.343-1.089,2.015-2.647,2.015-4.678c0-2.029-0.675-3.585-2.025-4.667s-3.137-1.623-5.357-1.623h-8.697V417.259z"/>
	</g>
	<g>
		<path fill="#FCF119" d="M54.713,415.512l0.081-6.272h37.718v1.629h1.629l-0.082,4.644c-0.055,0.978-0.082,2.362-0.082,4.155
			c0,2.39,0.135,4.535,0.408,6.436l-37.393-0.57l-0.814-0.814v-0.815h-0.815l-0.814-0.814L54.713,415.512z M91.942,423.658
			c-0.272-1.574-0.407-3.394-0.407-5.458l0.082-4.073c0.054-0.923,0.082-2.281,0.082-4.073H55.609l-0.082,3.177l-0.163,9.857
			c0.216,0,0.76,0.014,1.629,0.041c0.868,0.028,2.334,0.041,4.399,0.041c10.428,0.325,19.524,0.488,27.291,0.488H91.942z"/>
	</g>
	<g>
		<path fill="#FCF119" d="M391.435,415.512l0.081-6.272h37.719v1.629h1.629l-0.081,4.644c-0.055,0.978-0.082,2.362-0.082,4.155
			c0,2.39,0.135,4.535,0.407,6.436l-37.392-0.57l-0.815-0.814v-0.815h-0.814l-0.814-0.814L391.435,415.512z M428.664,423.658
			c-0.272-1.574-0.407-3.394-0.407-5.458l0.081-4.073c0.054-0.923,0.081-2.281,0.081-4.073H392.33l-0.081,3.177l-0.163,9.857
			c0.217,0,0.76,0.014,1.63,0.041c0.867,0.028,2.334,0.041,4.398,0.041c10.428,0.325,19.523,0.488,27.291,0.488H428.664z"/>
	</g>
</g>
<g>
</g>
<g>
</g>
<g>
</g>
<g>
</g>
<g>
</g>
<g>
</g>
</svg>
